<?xml version="1.0" encoding="utf-8"?>
<!-- Generator: Adobe Illustrator 25.3.1, SVG Export Plug-In . SVG Version: 6.00 Build 0)  -->
<svg version="1.1" id="Layer_1" xmlns="http://www.w3.org/2000/svg" xmlns:xlink="http://www.w3.org/1999/xlink" x="0px" y="0px"
	 viewBox="0 0 150 150" style="enable-background:new 0 0 150 150;" xml:space="preserve">
<style type="text/css">
	.st0{fill:#F2F5F7;}
	.st1{fill:#212121;}
	.st2{fill:#BCD5C5;}
	.st3{fill:#FFFFFF;}
	.st4{fill:#E9EDF2;}
	.st5{opacity:0.4;fill:#A8C4E5;}
	.st6{fill:#D6E3FF;}
	.st7{fill:#223A6B;}
	.st8{fill:#221473;}
	.st9{fill:#27427A;}
	.st10{fill:#94B7E0;}
	.st11{opacity:0.2;fill:#FFFFFF;}
	.st12{opacity:0.2;fill:#628FC4;}
	.st13{fill:#4D7CF0;}
	.st14{fill:#446DD4;}
	.st15{fill:#97CBFF;}
	.st16{fill:#DB9833;}
	.st17{fill:#F5BC51;}
	.st18{fill:#F7C750;}
	.st19{fill:#C7DCFF;}
	.st20{opacity:0.15;}
	.st21{fill:#F29700;}
	.st22{fill:#FFA208;}
	.st23{fill:#FFAD24;}
	.st24{fill:#FFC31B;}
	.st25{fill:#FFE7A6;}
	.st26{fill:#FF9F00;}
	.st27{fill:#FFDC7D;}
	.st28{fill:#FFF6DB;}
	.st29{fill:#D98800;}
	.st30{fill:url(#SVGID_1_);}
	.st31{fill:url(#SVGID_2_);}
	.st32{fill:url(#SVGID_3_);}
	.st33{fill:#5CA7FF;}
	.st34{fill:#BAD0FF;}
	.st35{fill:#E6EEFF;}
	.st36{fill:#F1F5FE;}
	.st37{fill:#BEDBFA;}
	.st38{fill:#BF6B6B;}
	.st39{fill:#EA8A6C;}
	.st40{fill:#6F7996;}
	.st41{fill:#628FC4;}
	.st42{fill:#A64C4B;}
	.st43{fill:#FFB49E;}
	.st44{fill:#FFC2B0;}
	.st45{fill:#F5D6CE;}
	.st46{fill:#4F94E3;}
	.st47{fill:#DFEAF4;}
	.st48{fill:#F5A086;}
	.st49{fill:#C9DFF2;}
	.st50{fill:#A8C8E3;}
	.st51{fill:#95C1F5;}
	.st52{fill:#2F4C9C;}
	.st53{fill:#B25D5D;}
	.st54{fill:#5A97DB;}
	.st55{fill:#A3BDFF;}
	.st56{fill:#2C4482;}
	.st57{fill:#FFCCBD;}
	.st58{fill:#B3D1F5;}
	.st59{fill:#7090E0;}
	.st60{fill:#213696;}
	.st61{fill:#1B3A91;}
	.st62{fill:#163078;}
	.st63{fill:url(#SVGID_4_);}
	.st64{fill:#EBF5FF;}
	.st65{fill:#F5FAFF;}
	.st66{fill:#CEDBED;}
	.st67{fill:#B3CCF2;}
	.st68{fill:#CFE5FF;}
	.st69{fill:#3E68DE;}
	.st70{fill:#D9E8FF;}
	.st71{fill:#96B5EB;}
	.st72{fill:#353559;}
	.st73{opacity:0.71;fill:#FFFFFF;}
	.st74{fill:#C2E0FF;}
	.st75{opacity:0.47;fill:#BADDFF;}
	.st76{fill:#BADDFF;}
	.st77{opacity:0.61;fill:#FFFFFF;}
	.st78{fill:#2A66F7;}
	.st79{fill:#5986FF;}
	.st80{fill:#29479C;}
	.st81{fill:#EA986C;}
	.st82{fill:#E69F35;}
	.st83{fill:#D47D62;}
	.st84{fill:#3C61C7;}
	.st85{fill:#363656;}
	.st86{fill:#EDF4FF;}
	.st87{fill:url(#SVGID_5_);}
	.st88{fill:#ABCFFF;}
	.st89{fill:url(#SVGID_6_);}
	.st90{fill:none;stroke:#FFFFFF;stroke-width:2.5103;stroke-miterlimit:10;}
	.st91{fill:none;stroke:#FFFFFF;stroke-width:2.6407;stroke-miterlimit:10;}
	.st92{fill:none;stroke:#FFFFFF;stroke-width:2.5677;stroke-miterlimit:10;}
	.st93{fill:#A8ACBA;}
	.st94{fill:none;stroke:#FFFFFF;stroke-width:2.9223;stroke-linecap:round;stroke-linejoin:round;stroke-miterlimit:10;}
	.st95{fill:none;stroke:#FFFFFF;stroke-width:2.9311;stroke-linecap:round;stroke-linejoin:round;stroke-miterlimit:10;}
	.st96{fill:#ED5353;}
	.st97{fill:none;stroke:#27427A;stroke-width:5.3333;stroke-linecap:round;stroke-linejoin:round;stroke-miterlimit:10;}
</style>
<g>
	<g>
		<path class="st0" d="M104.93,120.66l21.62-10.21c4.77-2.41,10.58-0.64,13.21,4.01l-43.94,28.43c-5.9,2.71-12.5,3.46-18.85,2.13
			l-30.31-8.51c-2.79-0.78-5.77-0.45-8.32,0.91l-6.34,3.39l0.85-30.91l0.25,0.01c9.06-6.44,20.95-7.27,30.82-2.16l1.81,0.94
			c2.84,1.47,5.97,2.28,9.17,2.37l17.81,0.49C98.29,111.7,103.18,115.35,104.93,120.66z"/>
		<path class="st0" d="M118.98,68.41c0,18.37-14.89,33.26-33.26,33.26c-18.37,0-33.27-14.89-33.27-33.26
			c0-18.37,14.89-33.27,33.27-33.27C104.09,35.14,118.98,50.04,118.98,68.41z"/>
		<path class="st1" d="M52.45,68.41c0,19.73,15.99,35.73,35.73,35.73c19.73,0,35.73-16,35.73-35.73c0-19.73-16-35.73-35.73-35.73
			C68.46,32.7,52.48,48.69,52.45,68.41z M88.18,37.61c17.01,0,30.8,13.79,30.8,30.8s-13.79,30.8-30.8,30.8
			c-17.01,0-30.8-13.79-30.8-30.8C57.4,51.41,71.18,37.63,88.18,37.61z"/>
		<path class="st1" d="M124.38,110.01l-19.3,9.11c-2.67-4.95-7.78-8.1-13.41-8.26l-17.81-0.49c-2.82-0.09-5.59-0.8-8.1-2.09
			l-1.81-0.95c-9.28-4.84-20.35-4.82-29.62,0.03l0.11-4.11c0.03-1.35-1.03-2.49-2.4-2.53l-19.54-0.54
			c-0.66-0.02-1.29,0.22-1.76,0.68c-0.47,0.44-0.75,1.07-0.77,1.72L8.8,145.46c-0.04,1.36,1.04,2.49,2.4,2.53l19.53,0.53h0.07
			c1.33,0,2.43-1.06,2.46-2.39l0.05-2.05l5.08-2.71c1.99-1.07,4.32-1.33,6.5-0.71l30.3,8.5c0.06,0.02,0.1,0.03,0.16,0.04
			c2.19,0.46,4.43,0.69,6.67,0.69c4.74,0,9.42-1.02,13.72-2.99c0.11-0.05,0.21-0.11,0.31-0.17L140,118.3
			c1.1-0.7,1.45-2.15,0.81-3.28C137.55,109.23,130.32,107.03,124.38,110.01z M93.54,142.49c-5.35,2.42-11.33,3.08-17.08,1.91
			l-30.22-8.48c-3.41-0.96-7.05-0.56-10.16,1.11l-2.59,1.39l0.69-25.23c8.22-5.47,18.76-6.03,27.51-1.47l1.81,0.94
			c3.17,1.63,6.66,2.54,10.23,2.64l17.82,0.49c4.55,0.13,8.53,3.1,9.96,7.42c0.13,0.39,0.23,0.78,0.32,1.19l-26.55-0.74
			c-1.36-0.03-2.49,1.04-2.53,2.4c-0.03,1.36,1.04,2.5,2.4,2.53l29.29,0.81h0.07c1.33,0,2.42-1.06,2.46-2.4
			c0.03-1.07-0.05-2.14-0.24-3.19l19.8-9.35c0.02-0.01,0.04-0.02,0.05-0.03c2.81-1.42,6.21-0.94,8.52,1.2L93.54,142.49z"/>
		<g>
			<path class="st1" d="M88.19,25.76V2.35c0-1.37-1.11-2.47-2.47-2.47c-1.36,0-2.47,1.1-2.47,2.47v23.4c0,1.36,1.1,2.47,2.47,2.47
				C87.08,28.22,88.19,27.12,88.19,25.76z"/>
			<path class="st1" d="M106.66,25.76V14.67c0-1.36-1.1-2.46-2.46-2.46c-1.36,0-2.47,1.1-2.47,2.46v11.09c0,1.36,1.1,2.47,2.47,2.47
				C105.56,28.22,106.66,27.12,106.66,25.76z"/>
			<path class="st1" d="M69.71,25.76V14.67c0-1.36-1.1-2.46-2.46-2.46c-1.36,0-2.47,1.1-2.47,2.46v11.09c0,1.36,1.1,2.47,2.47,2.47
				C68.61,28.22,69.71,27.12,69.71,25.76z"/>
		</g>
		<path class="st1" d="M93.65,63.69c-0.55,5.61-5,9.18-12.04,9.4c4.29,4.45,8.96,10.05,13.58,15.71h-5.27
			c-4.29-5.16-8.3-9.94-13.47-15.44v-3.4h3.03c5.93,0,9.12-2.47,9.51-6.26H76.45v-2.75h12.37c-0.78-3.19-3.69-4.78-8.47-4.78h-3.9
			V52.6h23.08v2.75h-9.01c1.59,1.26,2.75,3.07,3.08,5.6h5.98v2.75L93.65,63.69L93.65,63.69L93.65,63.69z"/>
	</g>
	<polygon class="st2" points="28.46,142.52 28.42,143.54 13.81,143.13 14.85,105.19 29.47,105.59 	"/>
</g>
</svg>
