<?xml version="1.0" encoding="utf-8"?>
<!-- Generator: Adobe Illustrator 25.3.1, SVG Export Plug-In . SVG Version: 6.00 Build 0)  -->
<svg version="1.1" id="Layer_1" xmlns="http://www.w3.org/2000/svg" xmlns:xlink="http://www.w3.org/1999/xlink" x="0px" y="0px"
	 viewBox="0 0 150 150" style="enable-background:new 0 0 150 150;" xml:space="preserve">
<style type="text/css">
	.st0{fill:#F2F5F7;}
	.st1{fill:#212121;}
	.st2{fill:#BCD5C5;}
	.st3{fill:#FFFFFF;}
	.st4{fill:#E9EDF2;}
	.st5{opacity:0.4;fill:#A8C4E5;}
	.st6{fill:#D6E3FF;}
	.st7{fill:#223A6B;}
	.st8{fill:#221473;}
	.st9{fill:#27427A;}
	.st10{fill:#94B7E0;}
	.st11{opacity:0.2;fill:#FFFFFF;}
	.st12{opacity:0.2;fill:#628FC4;}
	.st13{fill:#4D7CF0;}
	.st14{fill:#446DD4;}
	.st15{fill:#97CBFF;}
	.st16{fill:#DB9833;}
	.st17{fill:#F5BC51;}
	.st18{fill:#F7C750;}
	.st19{fill:#C7DCFF;}
	.st20{opacity:0.15;}
	.st21{fill:#F29700;}
	.st22{fill:#FFA208;}
	.st23{fill:#FFAD24;}
	.st24{fill:#FFC31B;}
	.st25{fill:#FFE7A6;}
	.st26{fill:#FF9F00;}
	.st27{fill:#FFDC7D;}
	.st28{fill:#FFF6DB;}
	.st29{fill:#D98800;}
	.st30{fill:url(#SVGID_1_);}
	.st31{fill:url(#SVGID_2_);}
	.st32{fill:url(#SVGID_3_);}
	.st33{fill:#5CA7FF;}
	.st34{fill:#BAD0FF;}
	.st35{fill:#E6EEFF;}
	.st36{fill:#F1F5FE;}
	.st37{fill:#BEDBFA;}
	.st38{fill:#BF6B6B;}
	.st39{fill:#EA8A6C;}
	.st40{fill:#6F7996;}
	.st41{fill:#628FC4;}
	.st42{fill:#A64C4B;}
	.st43{fill:#FFB49E;}
	.st44{fill:#FFC2B0;}
	.st45{fill:#F5D6CE;}
	.st46{fill:#4F94E3;}
	.st47{fill:#DFEAF4;}
	.st48{fill:#F5A086;}
	.st49{fill:#C9DFF2;}
	.st50{fill:#A8C8E3;}
	.st51{fill:#95C1F5;}
	.st52{fill:#2F4C9C;}
	.st53{fill:#B25D5D;}
	.st54{fill:#5A97DB;}
	.st55{fill:#A3BDFF;}
	.st56{fill:#2C4482;}
	.st57{fill:#FFCCBD;}
	.st58{fill:#B3D1F5;}
	.st59{fill:#7090E0;}
	.st60{fill:#213696;}
	.st61{fill:#1B3A91;}
	.st62{fill:#163078;}
	.st63{fill:url(#SVGID_4_);}
	.st64{fill:#EBF5FF;}
	.st65{fill:#F5FAFF;}
	.st66{fill:#CEDBED;}
	.st67{fill:#B3CCF2;}
	.st68{fill:#CFE5FF;}
	.st69{fill:#3E68DE;}
	.st70{fill:#D9E8FF;}
	.st71{fill:#96B5EB;}
	.st72{fill:#353559;}
	.st73{opacity:0.71;fill:#FFFFFF;}
	.st74{fill:#C2E0FF;}
	.st75{opacity:0.47;fill:#BADDFF;}
	.st76{fill:#BADDFF;}
	.st77{opacity:0.61;fill:#FFFFFF;}
	.st78{fill:#2A66F7;}
	.st79{fill:#5986FF;}
	.st80{fill:#29479C;}
	.st81{fill:#EA986C;}
	.st82{fill:#E69F35;}
	.st83{fill:#D47D62;}
	.st84{fill:#3C61C7;}
	.st85{fill:#363656;}
	.st86{fill:#EDF4FF;}
	.st87{fill:url(#SVGID_5_);}
	.st88{fill:#ABCFFF;}
	.st89{fill:url(#SVGID_6_);}
	.st90{fill:none;stroke:#FFFFFF;stroke-width:2.5103;stroke-miterlimit:10;}
	.st91{fill:none;stroke:#FFFFFF;stroke-width:2.6407;stroke-miterlimit:10;}
	.st92{fill:none;stroke:#FFFFFF;stroke-width:2.5677;stroke-miterlimit:10;}
	.st93{fill:#A8ACBA;}
	.st94{fill:none;stroke:#FFFFFF;stroke-width:2.9223;stroke-linecap:round;stroke-linejoin:round;stroke-miterlimit:10;}
	.st95{fill:none;stroke:#FFFFFF;stroke-width:2.9311;stroke-linecap:round;stroke-linejoin:round;stroke-miterlimit:10;}
	.st96{fill:#ED5353;}
	.st97{fill:none;stroke:#27427A;stroke-width:5.3333;stroke-linecap:round;stroke-linejoin:round;stroke-miterlimit:10;}
</style>
<g>
	<path class="st2" d="M51.41,97.32c0,2.08,0.05,4.07-0.01,6.06c-0.15,4.83,1.57,9.11,3.8,13.24c1.98,3.66,4.2,7.19,6.86,10.39
		c1.59,1.91,3.27,3.76,5.07,5.47c1.86,1.76,3.9,3.34,5.88,4.97c1.58,1.31,2.35,1.36,3.91,0.12c2.22-1.75,4.51-3.45,6.53-5.41
		c2.79-2.71,5.33-5.68,7.34-9.05c1.82-3.05,3.74-6.05,5.37-9.18c1.68-3.22,2.6-6.69,2.51-10.39c-0.06-2.06-0.01-4.12-0.01-6.23
		c2,0.64,4.12,1.35,6.26,2c3.67,1.1,7.39,2.08,11.03,3.25c3.99,1.31,7.96,2.72,11.89,4.2c3.12,1.16,5.9,2.96,8.58,4.95
		c1.94,1.45,3.2,3.31,4.16,5.51c1.63,3.69,2.42,7.6,3.18,11.5c0.35,1.86,0.45,3.79,0.49,5.69c0.07,4.21,0.02,8.42,0.02,12.61
		c0,0.19-0.02,0.38-0.04,0.62H5.85c-0.01-0.4-0.04-0.77-0.04-1.14c-0.01-3.74-0.15-7.49,0.04-11.22c0.16-3.03,0.6-6.03,1.11-9.02
		c0.42-2.44,1.01-4.87,1.76-7.23c1.21-3.81,3.64-6.66,7.04-8.86c4.42-2.86,9.27-4.71,14.18-6.4c3.26-1.13,6.65-1.88,9.96-2.86
		c3.28-0.97,6.54-2.02,9.81-3.03C50.31,97.67,50.92,97.48,51.41,97.32"/>
	<g>
		<path class="st1" d="M144.2,150H3.54l-0.08-2.72c-0.01-0.27-0.03-0.53-0.03-0.79c0-1.08-0.02-2.16-0.03-3.25
			c-0.03-2.64-0.07-5.37,0.07-8.09c0.17-3.34,0.67-6.58,1.14-9.31c0.44-2.55,1.05-5.09,1.84-7.55c1.33-4.18,3.94-7.5,8.01-10.13
			c4.38-2.83,9.04-4.71,14.7-6.65c2.11-0.73,4.27-1.31,6.36-1.87c1.24-0.33,2.47-0.66,3.7-1.03c2.19-0.65,4.37-1.33,6.56-2.02
			l8.01-2.52l0.01,5.19c0.01,1.42,0.02,2.8-0.02,4.19c-0.15,4.62,1.7,8.67,3.52,12.03c2.16,3.98,4.32,7.25,6.6,10.01
			c1.7,2.04,3.29,3.77,4.87,5.26c1.39,1.31,2.94,2.57,4.44,3.79l1.31,1.07c0.24,0.19,0.41,0.32,0.52,0.39
			c0.09-0.06,0.22-0.16,0.4-0.3l1.35-1.06c1.79-1.39,3.48-2.71,5-4.2c2.96-2.87,5.23-5.67,6.96-8.57l1.41-2.34
			c1.33-2.19,2.71-4.46,3.9-6.73c1.56-3.01,2.32-6.11,2.24-9.23c-0.04-1.42-0.03-2.86-0.02-4.32l0.01-5.23l4.61,1.49
			c1.53,0.5,3.11,1.01,4.71,1.5c1.4,0.42,2.81,0.82,4.22,1.23c2.29,0.65,4.58,1.31,6.85,2.04c3.68,1.2,7.6,2.59,12,4.23
			c3.65,1.36,6.81,3.53,9.15,5.26c2.12,1.59,3.69,3.64,4.92,6.47c1.78,4.04,2.61,8.27,3.33,12c0.41,2.16,0.5,4.29,0.53,6.1
			c0.05,3.1,0.04,6.19,0.03,9.28l-0.01,3.38c0,0.22-0.01,0.44-0.03,0.71l-0.17,2.19L144.2,150z M8.17,145.25h133.7l0-1.64
			c0.01-3.06,0.02-6.13-0.03-9.19c-0.03-1.6-0.1-3.48-0.44-5.29c-0.68-3.47-1.45-7.42-3.02-10.99c-0.9-2.05-1.98-3.5-3.41-4.57
			c-2.21-1.64-4.9-3.48-7.98-4.62c-4.34-1.62-8.2-2.99-11.8-4.17c-2.2-0.71-4.44-1.35-6.68-1.99c-1.43-0.41-2.86-0.82-4.29-1.24
			c-1.09-0.33-2.16-0.67-3.22-1.01c0,0.97,0,1.94,0.03,2.9c0.1,3.94-0.83,7.82-2.77,11.55c-1.26,2.41-2.68,4.74-4.05,7l-1.39,2.3
			c-1.94,3.26-4.47,6.38-7.72,9.54c-1.7,1.66-3.58,3.13-5.39,4.54l-1.32,1.03c-2.41,1.93-4.41,1.89-6.89-0.14l-1.29-1.05
			c-1.57-1.27-3.19-2.59-4.71-4.02c-1.72-1.63-3.44-3.48-5.26-5.67c-2.49-3-4.82-6.52-7.12-10.78c-2-3.69-4.28-8.67-4.09-14.45
			c0.03-0.92,0.03-1.83,0.03-2.76l-1.86,0.58c-2.21,0.69-4.42,1.39-6.63,2.04c-1.27,0.38-2.54,0.72-3.82,1.06
			c-2.1,0.56-4.08,1.1-6.04,1.77c-5.33,1.84-9.7,3.58-13.67,6.15c-3.1,2.01-5.08,4.49-6.06,7.58c-0.71,2.26-1.28,4.59-1.68,6.92
			c-0.44,2.59-0.92,5.65-1.08,8.74c-0.13,2.57-0.1,5.23-0.06,7.8C8.15,143.87,8.16,144.56,8.17,145.25z"/>
	</g>
	<path class="st1" d="M42.59,44.35c-0.24-1.87-0.53-3.55-0.66-5.25c-0.21-2.78-0.51-5.57-0.43-8.35c0.1-3.07,0.24-6.21,0.97-9.17
		c0.88-3.57,2.44-6.94,4.89-9.85c2.16-2.57,4.62-4.75,7.46-6.49C58.85,2.77,63.18,1,67.87,0.5c3.69-0.4,7.43-0.61,11.12-0.45
		c4.47,0.2,8.75,1.47,12.84,3.37c3.8,1.76,7.1,4.17,9.92,7.23c2.63,2.86,4.4,6.2,5.46,9.93c0.77,2.7,1,5.42,1.18,8.2
		c0.24,3.67-0.09,7.3-0.49,10.94c-0.16,1.53-0.29,3.07-0.43,4.61c2.91,0.15,4.12,2.13,4.34,5.12c0.36,4.57-0.92,8.68-3.69,12.33
		c-0.09,0.13-0.14,0.3-0.25,0.37c-1.78,1.28-2.26,3.34-3.22,5.12c-1.45,2.69-2.75,5.48-4.43,8.02c-1.89,2.86-4,5.62-6.26,8.21
		c-2.3,2.61-5.14,4.55-8.24,6.21c-4.2,2.24-8.67,2.67-13.26,2.38c-2.71-0.16-5.27-1.02-7.77-2.19c-3.1-1.46-5.8-3.4-8.08-5.9
		c-1.95-2.16-3.81-4.41-5.56-6.73c-2.69-3.54-4.68-7.53-6.42-11.59c-0.88-2.05-2.59-3.34-3.67-5.16c-2.31-3.88-3.35-8-2.52-12.51
		C38.86,45.75,40.22,44.45,42.59,44.35"/>
	<path class="st3" d="M102.84,36.98c-3.78-0.38-7.41-0.6-10.99-1.14c-3.61-0.55-7.24-1.16-10.73-2.18
		c-7.34-2.13-13.73-6.01-19.07-11.51c-0.84-0.86-1.68-0.99-2.8-0.72c-4.78,1.13-7.96,4.26-10.39,8.3c-0.8,1.34-1.75,2.61-1.77,4.3
		c-0.03,4.19,0.38,8.32,1.21,12.43c0.31,1.57,0.57,3.17,0.85,4.75c-0.75-1.11-1.28-2.31-2.02-3.36c-0.4-0.56-1.09-1.1-1.76-1.28
		c-1.48-0.41-2.58,1.12-2.71,2.33c-0.47,4.14,0.47,7.9,3.39,11.04c0.65,0.69,1.28,1.43,1.71,2.26c2.26,4.39,4.33,8.87,6.7,13.17
		c1.8,3.29,4.19,6.18,7.25,8.42c5.97,4.39,12.69,4.76,19.61,3.28c5.73-1.23,9.72-4.99,12.95-9.66c2.91-4.21,5.07-8.82,7.19-13.44
		c0.6-1.29,1.26-2.66,2.22-3.68c2.97-3.14,4.04-6.85,3.74-11.04c-0.11-1.65-1.42-2.96-2.79-2.65c-0.71,0.15-1.41,0.83-1.88,1.46
		c-0.67,0.91-1.14,1.98-1.69,2.99C101.7,46.33,102.85,41.74,102.84,36.98"/>
	<path class="st4" d="M73.04,97.22c1.7,0,3.42,0.15,5.1-0.03c2.01-0.22,3.01,1.16,4.25,2.25c0.25,0.22,0.39,0.56,0.62,0.8
		c1.25,1.29,1.32,1.56,0.08,2.9c-1.61,1.73-3.34,3.33-4.96,5.05c-0.22,0.23-0.24,0.85-0.11,1.19c1.05,2.74,2.16,5.46,3.24,8.19
		c0.86,2.16,1.74,4.32,2.54,6.51c0.15,0.39,0.13,1.03-0.1,1.34c-1.96,2.67-4.24,5.05-6.93,7.02c-0.62,0.45-1.29,1.23-1.9,1.2
		c-0.67-0.03-1.34-0.78-1.91-1.34c-2.12-2.07-4.21-4.16-6.28-6.27c-1.02-1.05-0.47-2.13-0.02-3.22c1.77-4.28,3.53-8.56,5.24-12.87
		c0.26-0.65,0.34-1.33-0.53-1.97c-2.04-1.51-3.81-3.32-5.02-5.61c-0.35-0.65-0.31-1.12,0.19-1.6c0.93-0.92,1.83-1.87,2.78-2.77
		C70.09,97.24,70.33,97.22,73.04,97.22"/>
	<g>
		<path class="st1" d="M74.91,136.01c-0.06,0-0.12,0-0.18-0.01c-1.48-0.08-2.54-1.13-3.25-1.83l-0.19-0.18
			c-2.13-2.08-4.23-4.19-6.32-6.31c-2.06-2.11-1.08-4.45-0.6-5.58l0.36-0.87c1.61-3.89,3.21-7.79,4.76-11.71
			c-2.33-1.8-4.05-3.79-5.25-6.06c-0.86-1.58-0.63-3.2,0.64-4.43l0.99-1c0.59-0.6,1.19-1.2,1.8-1.79c1.49-1.4,2.55-1.4,5.36-1.4
			c0.55,0,1.1,0.01,1.65,0.03c1.13,0.03,2.2,0.06,3.2-0.05c2.75-0.32,4.41,1.26,5.51,2.31c0.18,0.17,0.36,0.35,0.55,0.51
			c0.39,0.35,0.61,0.69,0.76,0.92c1.79,1.86,2.5,3.61,0.12,6.18c-0.86,0.92-1.74,1.8-2.63,2.68c-0.58,0.58-1.16,1.15-1.73,1.74
			c0.65,1.68,1.32,3.36,2,5.04l1.54,3.85c0.69,1.73,1.38,3.46,2.02,5.21c0.35,0.95,0.38,2.48-0.42,3.56c-2.2,3-4.71,5.53-7.44,7.53
			c-0.12,0.09-0.24,0.19-0.37,0.3C77.17,135.2,76.22,136.01,74.91,136.01z M68.52,124.52c2.02,2.05,4.04,4.08,6.09,6.08l0.21,0.21
			c0.03,0.03,0.05,0.05,0.08,0.08c0.16-0.13,0.31-0.25,0.46-0.36c2.2-1.61,4.24-3.63,6.06-6.03c-0.59-1.58-1.2-3.13-1.82-4.68
			l-1.54-3.84c-0.76-1.91-1.53-3.82-2.26-5.74c-0.41-1.07-0.34-2.67,0.59-3.66c0.82-0.86,1.64-1.69,2.47-2.51
			c0.77-0.77,1.55-1.54,2.3-2.33c-0.16-0.18-0.28-0.36-0.4-0.54c-0.17-0.17-0.4-0.39-0.63-0.6c-0.98-0.93-1.24-1.1-1.73-1.04
			c-1.33,0.14-2.61,0.11-3.84,0.07c-0.51-0.01-1.02-0.03-1.52-0.03c-0.84,0-1.89,0-2.14,0.06c-0.53,0.59-1.09,1.15-1.64,1.71
			l-0.47,0.48c0.95,1.56,2.26,2.93,3.99,4.21c0.74,0.54,2.36,2.1,1.33,4.74c-1.62,4.11-3.3,8.17-4.98,12.25l-0.37,0.9
			C68.68,124.11,68.58,124.34,68.52,124.52z M81.57,124.88c0,0.01,0.01,0.02,0.01,0.03C81.57,124.9,81.57,124.89,81.57,124.88z
			 M81.79,124.01C81.79,124.01,81.79,124.02,81.79,124.01C81.79,124.02,81.79,124.01,81.79,124.01z M68.21,102.41l-0.02,0.02
			C68.2,102.42,68.21,102.42,68.21,102.41z"/>
	</g>
</g>
</svg>
