<?xml version="1.0" encoding="utf-8"?>
<!-- Generator: Adobe Illustrator 25.3.1, SVG Export Plug-In . SVG Version: 6.00 Build 0)  -->
<svg version="1.1" id="Layer_1" xmlns="http://www.w3.org/2000/svg" xmlns:xlink="http://www.w3.org/1999/xlink" x="0px" y="0px"
	 viewBox="0 0 150 150" style="enable-background:new 0 0 150 150;" xml:space="preserve">
<style type="text/css">
	.st0{fill:#F2F5F7;}
	.st1{fill:#212121;}
	.st2{fill:#BCD5C5;}
	.st3{fill:#FFFFFF;}
	.st4{fill:#E9EDF2;}
	.st5{opacity:0.4;fill:#A8C4E5;}
	.st6{fill:#D6E3FF;}
	.st7{fill:#223A6B;}
	.st8{fill:#221473;}
	.st9{fill:#27427A;}
	.st10{fill:#94B7E0;}
	.st11{opacity:0.2;fill:#FFFFFF;}
	.st12{opacity:0.2;fill:#628FC4;}
	.st13{fill:#4D7CF0;}
	.st14{fill:#446DD4;}
	.st15{fill:#97CBFF;}
	.st16{fill:#DB9833;}
	.st17{fill:#F5BC51;}
	.st18{fill:#F7C750;}
	.st19{fill:#C7DCFF;}
	.st20{opacity:0.15;}
	.st21{fill:#F29700;}
	.st22{fill:#FFA208;}
	.st23{fill:#FFAD24;}
	.st24{fill:#FFC31B;}
	.st25{fill:#FFE7A6;}
	.st26{fill:#FF9F00;}
	.st27{fill:#FFDC7D;}
	.st28{fill:#FFF6DB;}
	.st29{fill:#D98800;}
	.st30{fill:url(#SVGID_1_);}
	.st31{fill:url(#SVGID_2_);}
	.st32{fill:url(#SVGID_3_);}
	.st33{fill:#5CA7FF;}
	.st34{fill:#BAD0FF;}
	.st35{fill:#E6EEFF;}
	.st36{fill:#F1F5FE;}
	.st37{fill:#BEDBFA;}
	.st38{fill:#BF6B6B;}
	.st39{fill:#EA8A6C;}
	.st40{fill:#6F7996;}
	.st41{fill:#628FC4;}
	.st42{fill:#A64C4B;}
	.st43{fill:#FFB49E;}
	.st44{fill:#FFC2B0;}
	.st45{fill:#F5D6CE;}
	.st46{fill:#4F94E3;}
	.st47{fill:#DFEAF4;}
	.st48{fill:#F5A086;}
	.st49{fill:#C9DFF2;}
	.st50{fill:#A8C8E3;}
	.st51{fill:#95C1F5;}
	.st52{fill:#2F4C9C;}
	.st53{fill:#B25D5D;}
	.st54{fill:#5A97DB;}
	.st55{fill:#A3BDFF;}
	.st56{fill:#2C4482;}
	.st57{fill:#FFCCBD;}
	.st58{fill:#B3D1F5;}
	.st59{fill:#7090E0;}
	.st60{fill:#213696;}
	.st61{fill:#1B3A91;}
	.st62{fill:#163078;}
	.st63{fill:url(#SVGID_4_);}
	.st64{fill:#EBF5FF;}
	.st65{fill:#F5FAFF;}
	.st66{fill:#CEDBED;}
	.st67{fill:#B3CCF2;}
	.st68{fill:#CFE5FF;}
	.st69{fill:#3E68DE;}
	.st70{fill:#D9E8FF;}
	.st71{fill:#96B5EB;}
	.st72{fill:#353559;}
	.st73{opacity:0.71;fill:#FFFFFF;}
	.st74{fill:#C2E0FF;}
	.st75{opacity:0.47;fill:#BADDFF;}
	.st76{fill:#BADDFF;}
	.st77{opacity:0.61;fill:#FFFFFF;}
	.st78{fill:#2A66F7;}
	.st79{fill:#5986FF;}
	.st80{fill:#29479C;}
	.st81{fill:#EA986C;}
	.st82{fill:#E69F35;}
	.st83{fill:#D47D62;}
	.st84{fill:#3C61C7;}
	.st85{fill:#363656;}
	.st86{fill:#EDF4FF;}
	.st87{fill:url(#SVGID_5_);}
	.st88{fill:#ABCFFF;}
	.st89{fill:url(#SVGID_6_);}
	.st90{fill:none;stroke:#FFFFFF;stroke-width:2.5103;stroke-miterlimit:10;}
	.st91{fill:none;stroke:#FFFFFF;stroke-width:2.6407;stroke-miterlimit:10;}
	.st92{fill:none;stroke:#FFFFFF;stroke-width:2.5677;stroke-miterlimit:10;}
	.st93{fill:#A8ACBA;}
	.st94{fill:none;stroke:#FFFFFF;stroke-width:2.9223;stroke-linecap:round;stroke-linejoin:round;stroke-miterlimit:10;}
	.st95{fill:none;stroke:#FFFFFF;stroke-width:2.9311;stroke-linecap:round;stroke-linejoin:round;stroke-miterlimit:10;}
	.st96{fill:#ED5353;}
	.st97{fill:none;stroke:#27427A;stroke-width:5.3333;stroke-linecap:round;stroke-linejoin:round;stroke-miterlimit:10;}
</style>
<g>
	<g>
		<path class="st2" d="M47.5,66.2h10v15h-10V66.2z"/>
		<path class="st2" d="M70,48.7h10v32.5H70V48.7z"/>
		<path class="st2" d="M92.5,56.2h10v25h-10V56.2z"/>
		<path class="st2" d="M115,43.7h10v37.51h-10V43.7z"/>
	</g>
	<path class="st0" d="M146.67,91.64c-2.6-3.99-7.8-5.38-12.05-3.21l-18.11,9.25c-0.11-0.33-0.25-0.65-0.42-0.95
		c-3.02-5.23-9.61-7.17-14.98-4.41l-20.18,10.36c-2.86,1.47-6.26,1.45-9.11-0.06l-13.75-7.3c-9.8-5.21-21.7-4.48-30.79,1.89
		l-5.03,3.53l7.37,34.5l11.12-2.39c2.19-0.47,4.45-0.56,6.68-0.26L78.63,136c5.87,0.78,11.83-0.61,16.75-3.92l49.93-33.5
		C147.59,97.03,148.19,93.93,146.67,91.64L146.67,91.64z"/>
	<polygon class="st2" points="33.18,142.03 13.78,146.2 2.5,92.42 21.89,88.25 	"/>
	<g>
		<path class="st1" d="M148.8,90.31l-0.04-0.06c-3.32-5.05-9.9-6.79-15.28-4.05l-16.02,8.19c-3.96-5.57-11.41-7.39-17.5-4.28
			l-20.17,10.34c-2.14,1.1-4.68,1.08-6.8-0.04l-13.75-7.3c-10.61-5.67-23.5-4.88-33.35,2.02l-1.56-7.4
			c-0.28-1.35-1.61-2.21-2.96-1.94c0,0-0.01,0-0.01,0L1.97,89.98c-1.34,0.29-2.2,1.61-1.92,2.96l11.29,53.78
			c0.24,1.16,1.26,2,2.44,2c0.18,0,0.35-0.02,0.52-0.05l19.4-4.18c1.34-0.29,2.2-1.61,1.92-2.96l-1-4.82l6.63-1.42
			c1.93-0.41,3.92-0.49,5.88-0.22l31.17,3.42c6.47,0.86,13.03-0.68,18.45-4.33l49.93-33.5C150.08,98.35,151.02,93.76,148.8,90.31
			L148.8,90.31z M15.72,143.23L5.45,94.34l14.5-3.12l10.27,48.88L15.72,143.23z M143.9,96.51l-49.93,33.5
			c-4.43,2.97-9.79,4.21-15.07,3.5l-31.17-3.42c-2.51-0.34-5.06-0.24-7.53,0.3l-6.61,1.42L27,100.45l1.71-1.19
			c8.31-5.84,19.21-6.52,28.19-1.73l13.75,7.3c3.57,1.9,7.83,1.93,11.42,0.08l20.18-10.36c4.19-2.14,9.32-0.63,11.68,3.45
			c0.69,1.19,0.3,2.72-0.89,3.43l-27.82,16.5c-4.86,2.91-10.66,3.82-16.18,2.56l-25.09-6l-1.16,4.86l25.12,6
			c6.78,1.55,13.9,0.43,19.87-3.12l27.81-16.5c2.32-1.39,3.71-3.92,3.64-6.63l16.53-8.46c3.1-1.57,6.88-0.57,8.8,2.32l0.03,0.05
			C145.33,94.17,145.03,95.71,143.9,96.51L143.9,96.51z"/>
	</g>
	<g>
		<path class="st1" d="M47.5,63.7c-1.38,0-2.5,1.12-2.5,2.5v15c0,1.38,1.12,2.5,2.5,2.5h10c1.38,0,2.5-1.12,2.5-2.5v-15
			c0-1.38-1.12-2.5-2.5-2.5H47.5z M55,78.7h-5v-10h5V78.7z"/>
	</g>
	<g>
		<path class="st1" d="M70,46.21c-1.38,0-2.5,1.11-2.5,2.5v32.5c0,1.38,1.12,2.5,2.5,2.5h10c1.38,0,2.5-1.12,2.5-2.5V48.7
			c0-1.38-1.12-2.5-2.5-2.5H70z M77.5,78.7h-5V51.2h5V78.7z"/>
	</g>
	<g>
		<path class="st1" d="M92.5,53.7c-1.38,0-2.5,1.12-2.5,2.5v25c0,1.38,1.12,2.5,2.5,2.5h10c1.38,0,2.5-1.12,2.5-2.5v-25
			c0-1.38-1.12-2.5-2.5-2.5H92.5z M100,78.7h-5v-20h5V78.7z"/>
	</g>
	<g>
		<path class="st1" d="M115,41.2c-1.38,0-2.5,1.11-2.5,2.5v37.51c0,1.38,1.12,2.5,2.5,2.5h10c1.38,0,2.5-1.12,2.5-2.5V43.7
			c0-1.38-1.12-2.5-2.5-2.5H115z M122.5,78.7h-5v-32.5h5V78.7z"/>
	</g>
	<path class="st1" d="M37.18,27.31l15.73,15.74c0.97,0.97,2.56,0.97,3.54,0l28.23-28.24l20.73,20.74c0.98,0.98,2.56,0.98,3.54,0
		l25.73-25.74v6.47h5V3.78c0-1.38-1.12-2.5-2.5-2.5h-12.5v5h6.46l-23.97,23.97L86.45,9.51c-0.98-0.98-2.56-0.98-3.53,0L54.68,37.75
		L38.95,22.01c-0.98-0.98-2.56-0.98-3.53,0l-35,35l3.54,3.54L37.18,27.31z"/>
</g>
</svg>
