<?xml version="1.0" encoding="utf-8"?>
<!-- Generator: Adobe Illustrator 25.3.1, SVG Export Plug-In . SVG Version: 6.00 Build 0)  -->
<svg version="1.1" id="Layer_1" xmlns="http://www.w3.org/2000/svg" xmlns:xlink="http://www.w3.org/1999/xlink" x="0px" y="0px"
	 viewBox="0 0 150 150" style="enable-background:new 0 0 150 150;" xml:space="preserve">
<style type="text/css">
	.st0{fill:#F2F5F7;}
	.st1{fill:#212121;}
	.st2{fill:#BCD5C5;}
	.st3{fill:#FFFFFF;}
	.st4{fill:#E9EDF2;}
	.st5{font-family:'Impact';}
	.st6{font-size:32.2853px;}
	.st7{opacity:0.4;fill:#A8C4E5;}
	.st8{fill:#D6E3FF;}
	.st9{fill:#223A6B;}
	.st10{fill:#221473;}
	.st11{fill:#27427A;}
	.st12{fill:#94B7E0;}
	.st13{opacity:0.2;fill:#FFFFFF;}
	.st14{opacity:0.2;fill:#628FC4;}
	.st15{fill:#4D7CF0;}
	.st16{fill:#446DD4;}
	.st17{fill:#97CBFF;}
	.st18{fill:#DB9833;}
	.st19{fill:#F5BC51;}
	.st20{fill:#F7C750;}
	.st21{fill:#C7DCFF;}
	.st22{opacity:0.15;}
	.st23{fill:#F29700;}
	.st24{fill:#FFA208;}
	.st25{fill:#FFAD24;}
	.st26{fill:#FFC31B;}
	.st27{fill:#FFE7A6;}
	.st28{fill:#FF9F00;}
	.st29{fill:#FFDC7D;}
	.st30{fill:#FFF6DB;}
	.st31{fill:#D98800;}
	.st32{fill:url(#SVGID_1_);}
	.st33{fill:url(#SVGID_2_);}
	.st34{fill:url(#SVGID_3_);}
	.st35{fill:#5CA7FF;}
	.st36{fill:#BAD0FF;}
	.st37{fill:#E6EEFF;}
	.st38{fill:#F1F5FE;}
	.st39{fill:#BEDBFA;}
	.st40{fill:#BF6B6B;}
	.st41{fill:#EA8A6C;}
	.st42{fill:#6F7996;}
	.st43{fill:#628FC4;}
	.st44{fill:#A64C4B;}
	.st45{fill:#FFB49E;}
	.st46{fill:#FFC2B0;}
	.st47{fill:#F5D6CE;}
	.st48{fill:#4F94E3;}
	.st49{fill:#DFEAF4;}
	.st50{fill:#F5A086;}
	.st51{fill:#C9DFF2;}
	.st52{fill:#A8C8E3;}
	.st53{fill:#95C1F5;}
	.st54{fill:#2F4C9C;}
	.st55{fill:#B25D5D;}
	.st56{fill:#5A97DB;}
	.st57{fill:#A3BDFF;}
	.st58{fill:#2C4482;}
	.st59{fill:#FFCCBD;}
	.st60{fill:#B3D1F5;}
	.st61{fill:#7090E0;}
	.st62{fill:#213696;}
	.st63{fill:#1B3A91;}
	.st64{fill:#163078;}
	.st65{fill:url(#SVGID_4_);}
	.st66{fill:#EBF5FF;}
	.st67{fill:#F5FAFF;}
	.st68{fill:#CEDBED;}
	.st69{fill:#B3CCF2;}
	.st70{fill:#CFE5FF;}
	.st71{fill:#3E68DE;}
	.st72{fill:#D9E8FF;}
	.st73{fill:#96B5EB;}
	.st74{fill:#353559;}
	.st75{opacity:0.71;fill:#FFFFFF;}
	.st76{fill:#C2E0FF;}
	.st77{opacity:0.47;fill:#BADDFF;}
	.st78{fill:#BADDFF;}
	.st79{opacity:0.61;fill:#FFFFFF;}
	.st80{fill:#2A66F7;}
	.st81{fill:#5986FF;}
	.st82{fill:#29479C;}
	.st83{fill:#EA986C;}
	.st84{fill:#E69F35;}
	.st85{fill:#D47D62;}
	.st86{fill:#3C61C7;}
	.st87{fill:#363656;}
	.st88{fill:#EDF4FF;}
	.st89{fill:url(#SVGID_5_);}
	.st90{fill:#ABCFFF;}
	.st91{fill:url(#SVGID_6_);}
	.st92{fill:none;stroke:#FFFFFF;stroke-width:2.5103;stroke-miterlimit:10;}
	.st93{fill:none;stroke:#FFFFFF;stroke-width:2.6407;stroke-miterlimit:10;}
	.st94{fill:none;stroke:#FFFFFF;stroke-width:2.5677;stroke-miterlimit:10;}
	.st95{fill:#A8ACBA;}
	.st96{fill:none;stroke:#FFFFFF;stroke-width:2.9223;stroke-linecap:round;stroke-linejoin:round;stroke-miterlimit:10;}
	.st97{fill:none;stroke:#FFFFFF;stroke-width:2.9311;stroke-linecap:round;stroke-linejoin:round;stroke-miterlimit:10;}
	.st98{fill:#ED5353;}
	.st99{fill:none;stroke:#27427A;stroke-width:5.3333;stroke-linecap:round;stroke-linejoin:round;stroke-miterlimit:10;}
</style>
<g>
	<path class="st2" d="M116.19,120.39v21.03c0,3.52-2.86,6.37-6.37,6.37H94.32c-2.59,0-4.94-1.57-5.91-3.98l-1.39-3.42l-8.1-20
		H116.19z"/>
	<path class="st2" d="M71.08,120.39l-8.11,20l-1.39,3.42c-0.97,2.41-3.31,3.98-5.91,3.98H40.19c-3.52,0-6.37-2.85-6.37-6.37v-21.03
		H71.08z"/>
	<g>
		<path class="st0" d="M131.78,86.84c-0.02,4.63-0.12,9.26-0.31,13.89c-0.75,19.03-16.06,34.29-35.09,35.03
			c-14.26,0.56-28.51,0.56-42.77,0c-19.03-0.74-34.34-15.99-35.09-35.03c-0.18-4.63-0.29-9.26-0.31-13.89
			c-0.13-28.1,21.77-51.2,49.49-52.87v10c0,2.3,1.86,4.16,4.16,4.16h6.25c2.29,0,4.15-1.86,4.15-4.16v-10
			C110.01,35.65,131.91,58.75,131.78,86.84L131.78,86.84z"/>
	</g>
	<path class="st0" d="M26.21,91.02c0,0-7.27-11.05-8.31-29.31c-0.28-4.92,3.97-8.87,8.86-8.22c7.14,0.95,17.78,3.68,28.87,11.19
		c0,0-14.77-1.35-14.77,14.77"/>
	<path class="st0" d="M123.79,91.02c0,0,7.27-11.05,8.31-29.31c0.28-4.92-3.97-8.87-8.86-8.22c-7.14,0.95-17.78,3.68-28.87,11.19"/>
	<path class="st2" d="M82.54,88.69c-5.02-0.17-10.05-0.17-15.08,0c-7.36,0.24-13.2,6.2-13.39,13.55c-0.04,1.86-0.04,3.71,0,5.57
		c0.19,7.35,6.03,13.31,13.39,13.55c5.02,0.16,10.05,0.16,15.08,0c7.35-0.24,13.2-6.2,13.38-13.55c0.05-1.86,0.05-3.71,0-5.57
		C95.74,94.88,89.89,88.92,82.54,88.69z"/>
	<path class="st2" d="M50.32,2.19c11.99,0,21.72,9.72,21.72,21.72c0,12-9.73,21.72-21.72,21.72c-12,0-21.72-9.72-21.72-21.72
		C28.6,11.92,38.32,2.19,50.32,2.19z"/>
	<g>
		<path class="st1" d="M131.09,53.9c-2.2-2.04-5.17-2.98-8.15-2.59c-0.52,0.07-1.06,0.15-1.61,0.23
			c-9.69-11.67-23.79-18.85-38.92-19.76c-0.61-0.04-1.2,0.18-1.64,0.59c-0.44,0.42-0.69,1-0.69,1.6v9.99c0,1.08-0.88,1.96-1.96,1.96
			h-6.25c-1.08,0-1.96-0.88-1.96-1.96V37.6c2.72-3.89,4.32-8.6,4.32-13.69C74.23,10.72,63.5,0,50.31,0
			C37.12,0,26.4,10.72,26.4,23.91c0,1.2,0.09,2.39,0.26,3.54c0.18,1.2,1.3,2.03,2.5,1.85c1.2-0.18,2.02-1.3,1.84-2.5
			c-0.14-0.94-0.21-1.91-0.21-2.89c0-10.76,8.75-19.52,19.52-19.52c10.77,0,19.52,8.76,19.52,19.52c0,10.77-8.76,19.53-19.52,19.53
			c-6.85,0-13.08-3.49-16.66-9.34c-0.63-1.04-1.98-1.36-3.02-0.72c-1.04,0.63-1.36,1.99-0.72,3.02c1.79,2.93,4.13,5.38,6.83,7.24
			c-2.95,2.36-5.66,5-8.08,7.92c-0.55-0.09-1.1-0.17-1.62-0.24c-2.98-0.4-5.95,0.54-8.15,2.59c-2.21,2.04-3.37,4.94-3.2,7.94
			c0.26,4.59,0.9,8.73,1.72,12.39c-0.95,4.12-1.43,8.36-1.41,12.62c0.02,4.61,0.12,9.31,0.31,13.97
			c0.38,9.76,4.41,18.93,11.33,25.84c1.24,1.24,2.57,2.39,3.95,3.44v11.33c0,4.72,3.84,8.57,8.57,8.57h15.49
			c3.51,0,6.63-2.1,7.94-5.36l2.57-6.34c2.93,0.05,5.87,0.07,8.81,0.07c2.94,0,5.87-0.02,8.81-0.07l2.57,6.34
			c1.32,3.25,4.43,5.36,7.95,5.36h15.49c4.72,0,8.57-3.85,8.57-8.57v-11.31c1.88-1.44,3.65-3.06,5.28-4.85
			c0.82-0.9,0.75-2.29-0.15-3.1c-0.9-0.82-2.29-0.75-3.1,0.15c-6.25,6.89-14.82,10.89-24.11,11.25c-14.13,0.56-28.46,0.56-42.6,0
			c-8.65-0.34-16.8-3.9-22.93-10.02c-6.14-6.12-9.71-14.26-10.05-22.89c-0.18-4.62-0.28-9.27-0.3-13.82c0-0.86,0.02-1.73,0.06-2.59
			c1.93,4.95,3.74,7.76,3.89,7.99c0.42,0.64,1.12,1,1.84,1c0.41,0,0.84-0.12,1.21-0.36c1.01-0.67,1.29-2.03,0.63-3.04
			c-0.07-0.11-6.96-10.85-7.95-28.23c-0.1-1.69,0.56-3.32,1.79-4.47c1.24-1.15,2.91-1.68,4.58-1.45c6.79,0.9,17.14,3.52,27.93,10.84
			c1,0.68,2.37,0.41,3.05-0.59c0.68-1,0.42-2.37-0.58-3.05c-8.43-5.72-16.62-8.74-23.25-10.32c2.22-2.43,4.68-4.64,7.33-6.6
			c2.9,1.23,6.07,1.89,9.36,1.89c5.77,0,11.07-2.05,15.2-5.47v1.61c0,3.5,2.85,6.36,6.36,6.36h6.25c3.5,0,6.35-2.85,6.35-6.36v-7.61
			c12.22,1.31,23.58,7.08,31.89,16.18c-6.63,1.59-14.81,4.61-23.24,10.32c-1,0.68-1.27,2.05-0.59,3.05c0.68,1,2.05,1.27,3.05,0.59
			c10.79-7.32,21.15-9.94,27.93-10.84c1.67-0.22,3.34,0.31,4.58,1.45c1.24,1.14,1.89,2.77,1.8,4.47
			c-0.99,17.37-7.88,28.11-7.95,28.23c-0.67,1.01-0.39,2.37,0.62,3.04c0.38,0.25,0.8,0.36,1.21,0.36c0.72,0,1.42-0.35,1.84-1
			c0.15-0.22,1.96-3.03,3.9-7.99c0.04,0.86,0.06,1.73,0.06,2.59c-0.02,4.56-0.12,9.2-0.3,13.82c-0.21,5.28-1.58,10.31-4.1,14.94
			c-0.58,1.07-0.18,2.4,0.88,2.98c0.34,0.18,0.69,0.27,1.04,0.27c0.78,0,1.54-0.41,1.93-1.15c2.84-5.23,4.39-10.91,4.63-16.87
			c0.18-4.67,0.29-9.36,0.3-13.97c0.02-4.26-0.45-8.5-1.4-12.62c0.82-3.65,1.46-7.79,1.72-12.39
			C134.46,58.84,133.3,55.95,131.09,53.9L131.09,53.9z M96.47,137.96c6.26-0.25,12.23-1.95,17.52-4.94v8.41
			c0,2.3-1.88,4.18-4.18,4.18H94.32c-1.71,0-3.23-1.02-3.87-2.61l-1.94-4.8C91.17,138.14,93.82,138.06,96.47,137.96L96.47,137.96z
			 M61.49,138.2l-1.94,4.8c-0.64,1.59-2.16,2.61-3.87,2.61H40.19c-2.3,0-4.17-1.88-4.17-4.18v-8.44c5.31,3,11.29,4.72,17.51,4.96
			C56.18,138.06,58.83,138.14,61.49,138.2L61.49,138.2z"/>
	</g>
	<path d="M29.58,66.23c2.01,0.27,5.08,1.04,8.28,3.22c1,0.68,2.37,0.42,3.05-0.59c0.68-1,0.42-2.37-0.59-3.05
		c-3.92-2.66-7.69-3.6-10.17-3.93c-1.39-0.19-2.78,0.25-3.81,1.21c-1.03,0.95-1.58,2.31-1.5,3.72c0.36,6.35,2.9,10.28,3.01,10.44
		c0.42,0.64,1.12,0.99,1.84,0.99c0.41,0,0.83-0.12,1.2-0.36c1.02-0.67,1.29-2.03,0.63-3.04c-0.02-0.03-2.01-3.18-2.3-8.27
		c0-0.1,0.03-0.18,0.1-0.24C29.4,66.25,29.49,66.22,29.58,66.23z"/>
	<path d="M82.61,86.49c-5.05-0.17-10.17-0.17-15.22,0c-8.48,0.27-15.29,7.17-15.51,15.69c-0.05,1.89-0.05,3.8,0,5.68
		c0.22,8.53,7.03,15.42,15.51,15.7c2.52,0.09,5.07,0.13,7.61,0.13c2.54,0,5.09-0.04,7.61-0.13c8.48-0.27,15.3-7.17,15.51-15.7
		c0.05-1.88,0.05-3.79,0-5.68C97.91,93.66,91.1,86.76,82.61,86.49z M93.72,107.75c-0.15,6.2-5.1,11.21-11.26,11.41
		c-4.95,0.16-9.98,0.16-14.94,0c-6.16-0.2-11.11-5.21-11.26-11.41c-0.04-1.81-0.04-3.64,0-5.45c0.16-6.2,5.1-11.22,11.26-11.41
		c2.48-0.08,4.97-0.12,7.47-0.12s4.99,0.04,7.47,0.12c6.16,0.2,11.1,5.22,11.26,11.41C93.77,104.1,93.77,105.94,93.72,107.75z"/>
	<path d="M69.48,100.71c-1.21,0-2.2,0.99-2.2,2.2v4.67c0,1.21,0.98,2.2,2.2,2.2c1.21,0,2.2-0.99,2.2-2.2v-4.67
		C71.68,101.7,70.69,100.71,69.48,100.71z"/>
	<path d="M80.52,100.71c-1.21,0-2.2,0.99-2.2,2.2v4.67c0,1.21,0.99,2.2,2.2,2.2s2.2-0.99,2.2-2.2v-4.67
		C82.72,101.7,81.73,100.71,80.52,100.71z"/>
	<path d="M44.56,101.78c2.06,0,3.73-2.78,3.73-6.2c0-3.41-1.68-6.19-3.73-6.19c-2.05,0-3.73,2.77-3.73,6.19
		C40.83,99,42.5,101.78,44.56,101.78z"/>
	<path d="M109.51,98.75c2.06,0,3.73-2.77,3.73-6.19c0-3.41-1.67-6.19-3.73-6.19c-2.06,0-3.73,2.78-3.73,6.19
		C105.78,95.97,107.45,98.75,109.51,98.75z"/>
	<text transform="matrix(1 0 0 1 41.374 36.177)" class="st1 st5 st6">0</text>
</g>
</svg>
