<?xml version="1.0" encoding="utf-8"?>
<!-- Generator: Adobe Illustrator 25.3.1, SVG Export Plug-In . SVG Version: 6.00 Build 0)  -->
<svg version="1.1" id="Layer_1" xmlns="http://www.w3.org/2000/svg" xmlns:xlink="http://www.w3.org/1999/xlink" x="0px" y="0px"
	 viewBox="0 0 150 150" style="enable-background:new 0 0 150 150;" xml:space="preserve">
<style type="text/css">
	.st0{fill:#F2F5F7;}
	.st1{fill:#212121;}
	.st2{fill:#BCD5C5;}
	.st3{fill:#FFFFFF;}
	.st4{fill:#E9EDF2;}
	.st5{opacity:0.4;fill:#A8C4E5;}
	.st6{fill:#D6E3FF;}
	.st7{fill:#223A6B;}
	.st8{fill:#221473;}
	.st9{fill:#27427A;}
	.st10{fill:#94B7E0;}
	.st11{opacity:0.2;fill:#FFFFFF;}
	.st12{opacity:0.2;fill:#628FC4;}
	.st13{fill:#4D7CF0;}
	.st14{fill:#446DD4;}
	.st15{fill:#97CBFF;}
	.st16{fill:#DB9833;}
	.st17{fill:#F5BC51;}
	.st18{fill:#F7C750;}
	.st19{fill:#C7DCFF;}
	.st20{opacity:0.15;}
	.st21{fill:#F29700;}
	.st22{fill:#FFA208;}
	.st23{fill:#FFAD24;}
	.st24{fill:#FFC31B;}
	.st25{fill:#FFE7A6;}
	.st26{fill:#FF9F00;}
	.st27{fill:#FFDC7D;}
	.st28{fill:#FFF6DB;}
	.st29{fill:#D98800;}
	.st30{fill:url(#SVGID_1_);}
	.st31{fill:url(#SVGID_2_);}
	.st32{fill:url(#SVGID_3_);}
	.st33{fill:#5CA7FF;}
	.st34{fill:#BAD0FF;}
	.st35{fill:#E6EEFF;}
	.st36{fill:#F1F5FE;}
	.st37{fill:#BEDBFA;}
	.st38{fill:#BF6B6B;}
	.st39{fill:#EA8A6C;}
	.st40{fill:#6F7996;}
	.st41{fill:#628FC4;}
	.st42{fill:#A64C4B;}
	.st43{fill:#FFB49E;}
	.st44{fill:#FFC2B0;}
	.st45{fill:#F5D6CE;}
	.st46{fill:#4F94E3;}
	.st47{fill:#DFEAF4;}
	.st48{fill:#F5A086;}
	.st49{fill:#C9DFF2;}
	.st50{fill:#A8C8E3;}
	.st51{fill:#95C1F5;}
	.st52{fill:#2F4C9C;}
	.st53{fill:#B25D5D;}
	.st54{fill:#5A97DB;}
	.st55{fill:#A3BDFF;}
	.st56{fill:#2C4482;}
	.st57{fill:#FFCCBD;}
	.st58{fill:#B3D1F5;}
	.st59{fill:#7090E0;}
	.st60{fill:#213696;}
	.st61{fill:#1B3A91;}
	.st62{fill:#163078;}
	.st63{fill:url(#SVGID_4_);}
	.st64{fill:#EBF5FF;}
	.st65{fill:#F5FAFF;}
	.st66{fill:#CEDBED;}
	.st67{fill:#B3CCF2;}
	.st68{fill:#CFE5FF;}
	.st69{fill:#3E68DE;}
	.st70{fill:#D9E8FF;}
	.st71{fill:#96B5EB;}
	.st72{fill:#353559;}
	.st73{opacity:0.71;fill:#FFFFFF;}
	.st74{fill:#C2E0FF;}
	.st75{opacity:0.47;fill:#BADDFF;}
	.st76{fill:#BADDFF;}
	.st77{opacity:0.61;fill:#FFFFFF;}
	.st78{fill:#2A66F7;}
	.st79{fill:#5986FF;}
	.st80{fill:#29479C;}
	.st81{fill:#EA986C;}
	.st82{fill:#E69F35;}
	.st83{fill:#D47D62;}
	.st84{fill:#3C61C7;}
	.st85{fill:#363656;}
	.st86{fill:#EDF4FF;}
	.st87{fill:url(#SVGID_5_);}
	.st88{fill:#ABCFFF;}
	.st89{fill:url(#SVGID_6_);}
	.st90{fill:none;stroke:#FFFFFF;stroke-width:2.5103;stroke-miterlimit:10;}
	.st91{fill:none;stroke:#FFFFFF;stroke-width:2.6407;stroke-miterlimit:10;}
	.st92{fill:none;stroke:#FFFFFF;stroke-width:2.5677;stroke-miterlimit:10;}
	.st93{fill:#A8ACBA;}
	.st94{fill:none;stroke:#FFFFFF;stroke-width:2.9223;stroke-linecap:round;stroke-linejoin:round;stroke-miterlimit:10;}
	.st95{fill:none;stroke:#FFFFFF;stroke-width:2.9311;stroke-linecap:round;stroke-linejoin:round;stroke-miterlimit:10;}
	.st96{fill:#ED5353;}
	.st97{fill:none;stroke:#27427A;stroke-width:5.3333;stroke-linecap:round;stroke-linejoin:round;stroke-miterlimit:10;}
</style>
<g>
	<path d="M146.51,109.17c-1.71,1.71-4.5,1.71-6.22,0l-28.79-28.8l6.22-6.21l28.79,28.8C148.23,104.67,148.23,107.46,146.51,109.17z"
		/>
	<path class="st0" d="M2.2,18.31h92.29V147.8H2.2V18.31z"/>
	<path class="st2" d="M11.72,90.15H29.3v47.47H11.72V90.15z"/>
	<path class="st2" d="M39.26,72.58h17.58v65.04H39.26V72.58z"/>
	<path class="st2" d="M67.38,79.02h17.58v58.6H67.38V79.02z"/>
	<path class="st2" d="M119.63,15.85c-18.19-18.2-47.68-18.2-65.87,0c-18.19,18.19-18.19,47.68,0,65.87
		c18.19,18.19,47.68,18.19,65.87,0C137.82,63.53,137.82,34.03,119.63,15.85z"/>
	<path class="st4" d="M113.42,75.49c-14.73,14.74-38.71,14.74-53.45,0c-14.74-14.73-14.74-38.71,0-53.44
		c14.73-14.74,38.71-14.74,53.45,0C128.15,36.78,128.15,60.76,113.42,75.49z"/>
	<path d="M148.08,100.83l-22.54-22.55c5.45-7.17,8.84-15.78,9.72-24.79c1.07-11.07-1.69-22.25-7.76-31.49
		c-0.67-1.02-2.03-1.29-3.04-0.63c-1.01,0.67-1.29,2.03-0.62,3.05c11.49,17.48,9.08,40.92-5.74,55.75
		c-17.31,17.3-45.46,17.3-62.77,0C38,62.84,38,34.68,55.31,17.38c17.31-17.31,45.46-17.31,62.77,0l0.12,0.12
		c0.85,0.86,2.24,0.87,3.11,0.01c0.86-0.86,0.87-2.25,0.01-3.11l-0.13-0.13c-19.02-19.02-49.96-19.02-68.99,0
		c-0.59,0.6-1.17,1.2-1.73,1.83H2.2c-1.21,0-2.2,0.98-2.2,2.2v9.71c0,1.22,0.98,2.2,2.2,2.2c1.22,0,2.2-0.98,2.2-2.2v-7.52h42.55
		c-1.68,2.36-3.12,4.84-4.34,7.39H15.24c-1.22,0-2.2,0.99-2.2,2.2c0,1.21,0.98,2.19,2.2,2.19h25.56c-0.63,1.77-1.16,3.56-1.58,5.37
		H15.24c-1.22,0-2.2,0.98-2.2,2.2c0,1.21,0.98,2.2,2.2,2.2H38.4c-0.25,1.78-0.4,3.57-0.44,5.37H15.24c-1.22,0-2.2,0.99-2.2,2.2
		c0,1.21,0.98,2.2,2.2,2.2h22.8c0.39,6.38,2.03,12.7,4.92,18.56h-3.7c-1.22,0-2.2,0.98-2.2,2.2v65.05c0,1.21,0.98,2.19,2.2,2.19
		h17.58c1.22,0,2.19-0.98,2.19-2.19V88.95c1.98,1.36,4.04,2.56,6.15,3.61v45.06c0,1.21,0.98,2.19,2.2,2.19h17.58
		c1.21,0,2.2-0.98,2.2-2.19v-40.1c1.71-0.02,3.42-0.12,5.13-0.32v33.94c0,1.22,0.98,2.2,2.2,2.2c1.21,0,2.2-0.98,2.2-2.2V96.5
		c6.95-1.44,13.63-4.41,19.53-8.89l22.54,22.54c1.25,1.25,2.9,1.93,4.67,1.93c1.76,0,3.42-0.69,4.66-1.93
		C150.64,107.58,150.64,103.4,148.08,100.83z M54.64,135.42H41.46V74.76h3.96c1.9,3.02,4.16,5.87,6.78,8.5
		c0.8,0.79,1.61,1.55,2.44,2.27V135.42z M69.58,135.42V94.44c4.26,1.59,8.7,2.56,13.19,2.92v38.05H69.58z M144.97,107.04
		c-0.42,0.42-0.97,0.64-1.56,0.64c-0.59,0-1.14-0.23-1.55-0.64L119.6,84.78c0.54-0.49,1.07-1,1.59-1.52
		c0.52-0.52,1.03-1.05,1.52-1.59l22.26,22.26C145.82,104.79,145.82,106.18,144.97,107.04z"/>
	<path d="M94.48,138.43c-1.21,0-2.2,0.98-2.2,2.2v4.98H4.39V37.53c0-1.21-0.98-2.2-2.2-2.2c-1.21,0-2.2,0.98-2.2,2.2V147.8
		c0,1.21,0.98,2.2,2.2,2.2h92.29c1.22,0,2.2-0.98,2.2-2.2v-7.18C96.68,139.41,95.7,138.43,94.48,138.43z"/>
	<path d="M9.52,90.14v47.47c0,1.2,0.98,2.19,2.2,2.19H29.3c1.21,0,2.2-0.99,2.2-2.19V90.14c0-1.21-0.98-2.2-2.2-2.2H11.72
		C10.51,87.95,9.52,88.93,9.52,90.14z M13.92,92.35H27.1v43.07H13.92V92.35z"/>
	<path d="M31.66,61.58c1.22,0,2.2-0.98,2.2-2.2c0-1.21-0.98-2.2-2.2-2.2H15.24c-1.22,0-2.2,0.98-2.2,2.2c0,1.21,0.98,2.2,2.2,2.2
		H31.66z"/>
	<path d="M86.7,8.79c-10.69,0-20.74,4.15-28.28,11.69c-7.54,7.55-11.7,17.59-11.7,28.29s4.16,20.74,11.7,28.28
		C65.96,84.59,76,88.74,86.7,88.74c10.69,0,20.73-4.15,28.28-11.69c7.54-7.54,11.69-17.59,11.69-28.28s-4.15-20.74-11.69-28.29
		C107.43,12.94,97.39,8.79,86.7,8.79z M111.86,73.94c-6.71,6.71-15.65,10.41-25.17,10.41c-9.52,0-18.46-3.7-25.17-10.41
		c-6.71-6.71-10.41-15.65-10.41-25.17s3.7-18.46,10.41-25.18c6.94-6.93,16.05-10.41,25.17-10.41c9.11,0,18.23,3.47,25.17,10.41
		c6.71,6.72,10.41,15.66,10.41,25.18S118.58,67.22,111.86,73.94z"/>
</g>
</svg>
