<?xml version="1.0" encoding="utf-8"?>
<!-- Generator: Adobe Illustrator 25.3.1, SVG Export Plug-In . SVG Version: 6.00 Build 0)  -->
<svg version="1.1" id="Layer_1" xmlns="http://www.w3.org/2000/svg" xmlns:xlink="http://www.w3.org/1999/xlink" x="0px" y="0px"
	 viewBox="0 0 150 150" style="enable-background:new 0 0 150 150;" xml:space="preserve">
<style type="text/css">
	.st0{fill:#F2F5F7;}
	.st1{fill:#212121;}
	.st2{fill:#BCD5C5;}
	.st3{fill:#FFFFFF;}
	.st4{fill:#E9EDF2;}
	.st5{opacity:0.4;fill:#A8C4E5;}
	.st6{fill:#D6E3FF;}
	.st7{fill:#223A6B;}
	.st8{fill:#221473;}
	.st9{fill:#27427A;}
	.st10{fill:#94B7E0;}
	.st11{opacity:0.2;fill:#FFFFFF;}
	.st12{opacity:0.2;fill:#628FC4;}
	.st13{fill:#4D7CF0;}
	.st14{fill:#446DD4;}
	.st15{fill:#97CBFF;}
	.st16{fill:#DB9833;}
	.st17{fill:#F5BC51;}
	.st18{fill:#F7C750;}
	.st19{fill:#C7DCFF;}
	.st20{opacity:0.15;}
	.st21{fill:#F29700;}
	.st22{fill:#FFA208;}
	.st23{fill:#FFAD24;}
	.st24{fill:#FFC31B;}
	.st25{fill:#FFE7A6;}
	.st26{fill:#FF9F00;}
	.st27{fill:#FFDC7D;}
	.st28{fill:#FFF6DB;}
	.st29{fill:#D98800;}
	.st30{fill:url(#SVGID_1_);}
	.st31{fill:url(#SVGID_2_);}
	.st32{fill:url(#SVGID_3_);}
	.st33{fill:#5CA7FF;}
	.st34{fill:#BAD0FF;}
	.st35{fill:#E6EEFF;}
	.st36{fill:#F1F5FE;}
	.st37{fill:#BEDBFA;}
	.st38{fill:#BF6B6B;}
	.st39{fill:#EA8A6C;}
	.st40{fill:#6F7996;}
	.st41{fill:#628FC4;}
	.st42{fill:#A64C4B;}
	.st43{fill:#FFB49E;}
	.st44{fill:#FFC2B0;}
	.st45{fill:#F5D6CE;}
	.st46{fill:#4F94E3;}
	.st47{fill:#DFEAF4;}
	.st48{fill:#F5A086;}
	.st49{fill:#C9DFF2;}
	.st50{fill:#A8C8E3;}
	.st51{fill:#95C1F5;}
	.st52{fill:#2F4C9C;}
	.st53{fill:#B25D5D;}
	.st54{fill:#5A97DB;}
	.st55{fill:#A3BDFF;}
	.st56{fill:#2C4482;}
	.st57{fill:#FFCCBD;}
	.st58{fill:#B3D1F5;}
	.st59{fill:#7090E0;}
	.st60{fill:#213696;}
	.st61{fill:#1B3A91;}
	.st62{fill:#163078;}
	.st63{fill:url(#SVGID_4_);}
	.st64{fill:#EBF5FF;}
	.st65{fill:#F5FAFF;}
	.st66{fill:#CEDBED;}
	.st67{fill:#B3CCF2;}
	.st68{fill:#CFE5FF;}
	.st69{fill:#3E68DE;}
	.st70{fill:#D9E8FF;}
	.st71{fill:#96B5EB;}
	.st72{fill:#353559;}
	.st73{opacity:0.71;fill:#FFFFFF;}
	.st74{fill:#C2E0FF;}
	.st75{opacity:0.47;fill:#BADDFF;}
	.st76{fill:#BADDFF;}
	.st77{opacity:0.61;fill:#FFFFFF;}
	.st78{fill:#2A66F7;}
	.st79{fill:#5986FF;}
	.st80{fill:#29479C;}
	.st81{fill:#EA986C;}
	.st82{fill:#E69F35;}
	.st83{fill:#D47D62;}
	.st84{fill:#3C61C7;}
	.st85{fill:#363656;}
	.st86{fill:#EDF4FF;}
	.st87{fill:url(#SVGID_5_);}
	.st88{fill:#ABCFFF;}
	.st89{fill:url(#SVGID_6_);}
	.st90{fill:none;stroke:#FFFFFF;stroke-width:2.5103;stroke-miterlimit:10;}
	.st91{fill:none;stroke:#FFFFFF;stroke-width:2.6407;stroke-miterlimit:10;}
	.st92{fill:none;stroke:#FFFFFF;stroke-width:2.5677;stroke-miterlimit:10;}
	.st93{fill:#A8ACBA;}
	.st94{fill:none;stroke:#FFFFFF;stroke-width:2.9223;stroke-linecap:round;stroke-linejoin:round;stroke-miterlimit:10;}
	.st95{fill:none;stroke:#FFFFFF;stroke-width:2.9311;stroke-linecap:round;stroke-linejoin:round;stroke-miterlimit:10;}
	.st96{fill:#ED5353;}
	.st97{fill:none;stroke:#27427A;stroke-width:5.3333;stroke-linecap:round;stroke-linejoin:round;stroke-miterlimit:10;}
</style>
<g>
	<g>
		<circle class="st1" cx="64.45" cy="39.74" r="35.67"/>
	</g>
	<g>
		<path class="st1" d="M97.31,69.97c-8.16,8.87-19.86,14.42-32.86,14.42s-24.7-5.56-32.86-14.42C12.75,80.47,0,100.59,0,123.69v0
			h128.9v0C128.9,100.59,116.15,80.47,97.31,69.97z"/>
	</g>
	<circle class="st2" cx="117.89" cy="113.82" r="29.11"/>
	<path class="st3" d="M117.89,145.93c-8.58,0-16.64-3.34-22.71-9.4c-6.06-6.06-9.4-14.13-9.4-22.71c0-8.58,3.34-16.64,9.4-22.71
		c6.06-6.06,14.13-9.4,22.71-9.4s16.64,3.34,22.71,9.4c6.06,6.06,9.4,14.13,9.4,22.71c0,8.58-3.34,16.64-9.4,22.71
		C134.53,142.59,126.47,145.93,117.89,145.93z M117.89,87.71c-6.97,0-13.53,2.72-18.46,7.65s-7.65,11.49-7.65,18.46
		s2.72,13.53,7.65,18.46c4.93,4.93,11.49,7.65,18.46,7.65s13.53-2.72,18.46-7.65c4.93-4.93,7.65-11.49,7.65-18.46
		s-2.72-13.53-7.65-18.46S124.86,87.71,117.89,87.71z"/>
	<g>
		<path class="st3" d="M132.54,104.34c-0.24-0.85-0.9-1.78-1.69-2.2c-0.86-0.45-1.89-0.68-2.84-0.37c-0.96,0.31-1.62,0.87-2.2,1.69
			c-1.48,2.07-2.97,4.14-4.45,6.22c-1.76,2.46-3.52,4.92-5.28,7.37c-1.15-1.82-2.29-3.64-3.44-5.46c-0.3-0.48-0.61-0.96-0.91-1.45
			c-0.5-0.8-1.28-1.44-2.2-1.69c-0.88-0.24-2.06-0.13-2.84,0.37c-0.79,0.51-1.48,1.26-1.69,2.2c-0.22,0.95-0.16,1.99,0.37,2.84
			c2.14,3.4,4.28,6.79,6.42,10.19c0.3,0.48,0.61,0.96,0.91,1.45c0.7,1.11,1.85,1.82,3.18,1.82c1.39,0,2.41-0.74,3.18-1.82
			c1.48-2.07,2.97-4.14,4.45-6.22c2.34-3.28,4.69-6.55,7.03-9.83c0.54-0.76,1.08-1.52,1.63-2.27
			C132.69,106.44,132.77,105.18,132.54,104.34z"/>
	</g>
</g>
</svg>
