<?xml version="1.0" encoding="utf-8"?>
<!-- Generator: Adobe Illustrator 25.3.1, SVG Export Plug-In . SVG Version: 6.00 Build 0)  -->
<svg version="1.1" id="Layer_1" xmlns="http://www.w3.org/2000/svg" xmlns:xlink="http://www.w3.org/1999/xlink" x="0px" y="0px"
	 viewBox="0 0 150 150" style="enable-background:new 0 0 150 150;" xml:space="preserve">
<style type="text/css">
	.st0{fill:#F2F5F7;}
	.st1{fill:#212121;}
	.st2{fill:#BCD5C5;}
	.st3{fill:#FFFFFF;}
	.st4{fill:#E9EDF2;}
	.st5{opacity:0.4;fill:#A8C4E5;}
	.st6{fill:#D6E3FF;}
	.st7{fill:#223A6B;}
	.st8{fill:#221473;}
	.st9{fill:#27427A;}
	.st10{fill:#94B7E0;}
	.st11{opacity:0.2;fill:#FFFFFF;}
	.st12{opacity:0.2;fill:#628FC4;}
	.st13{fill:#4D7CF0;}
	.st14{fill:#446DD4;}
	.st15{fill:#97CBFF;}
	.st16{fill:#DB9833;}
	.st17{fill:#F5BC51;}
	.st18{fill:#F7C750;}
	.st19{fill:#C7DCFF;}
	.st20{opacity:0.15;}
	.st21{fill:#F29700;}
	.st22{fill:#FFA208;}
	.st23{fill:#FFAD24;}
	.st24{fill:#FFC31B;}
	.st25{fill:#FFE7A6;}
	.st26{fill:#FF9F00;}
	.st27{fill:#FFDC7D;}
	.st28{fill:#FFF6DB;}
	.st29{fill:#D98800;}
	.st30{fill:url(#SVGID_1_);}
	.st31{fill:url(#SVGID_2_);}
	.st32{fill:url(#SVGID_3_);}
	.st33{fill:#5CA7FF;}
	.st34{fill:#BAD0FF;}
	.st35{fill:#E6EEFF;}
	.st36{fill:#F1F5FE;}
	.st37{fill:#BEDBFA;}
	.st38{fill:#BF6B6B;}
	.st39{fill:#EA8A6C;}
	.st40{fill:#6F7996;}
	.st41{fill:#628FC4;}
	.st42{fill:#A64C4B;}
	.st43{fill:#FFB49E;}
	.st44{fill:#FFC2B0;}
	.st45{fill:#F5D6CE;}
	.st46{fill:#4F94E3;}
	.st47{fill:#DFEAF4;}
	.st48{fill:#F5A086;}
	.st49{fill:#C9DFF2;}
	.st50{fill:#A8C8E3;}
	.st51{fill:#95C1F5;}
	.st52{fill:#2F4C9C;}
	.st53{fill:#B25D5D;}
	.st54{fill:#5A97DB;}
	.st55{fill:#A3BDFF;}
	.st56{fill:#2C4482;}
	.st57{fill:#FFCCBD;}
	.st58{fill:#B3D1F5;}
	.st59{fill:#7090E0;}
	.st60{fill:#213696;}
	.st61{fill:#1B3A91;}
	.st62{fill:#163078;}
	.st63{fill:url(#SVGID_4_);}
	.st64{fill:#EBF5FF;}
	.st65{fill:#F5FAFF;}
	.st66{fill:#CEDBED;}
	.st67{fill:#B3CCF2;}
	.st68{fill:#CFE5FF;}
	.st69{fill:#3E68DE;}
	.st70{fill:#D9E8FF;}
	.st71{fill:#96B5EB;}
	.st72{fill:#353559;}
	.st73{opacity:0.71;fill:#FFFFFF;}
	.st74{fill:#C2E0FF;}
	.st75{opacity:0.47;fill:#BADDFF;}
	.st76{fill:#BADDFF;}
	.st77{opacity:0.61;fill:#FFFFFF;}
	.st78{fill:#2A66F7;}
	.st79{fill:#5986FF;}
	.st80{fill:#29479C;}
	.st81{fill:#EA986C;}
	.st82{fill:#E69F35;}
	.st83{fill:#D47D62;}
	.st84{fill:#3C61C7;}
	.st85{fill:#363656;}
	.st86{fill:#EDF4FF;}
	.st87{fill:url(#SVGID_5_);}
	.st88{fill:#ABCFFF;}
	.st89{fill:url(#SVGID_6_);}
	.st90{fill:none;stroke:#FFFFFF;stroke-width:2.5103;stroke-miterlimit:10;}
	.st91{fill:none;stroke:#FFFFFF;stroke-width:2.6407;stroke-miterlimit:10;}
	.st92{fill:none;stroke:#FFFFFF;stroke-width:2.5677;stroke-miterlimit:10;}
	.st93{fill:#A8ACBA;}
	.st94{fill:none;stroke:#FFFFFF;stroke-width:2.9223;stroke-linecap:round;stroke-linejoin:round;stroke-miterlimit:10;}
	.st95{fill:none;stroke:#FFFFFF;stroke-width:2.9311;stroke-linecap:round;stroke-linejoin:round;stroke-miterlimit:10;}
	.st96{fill:#ED5353;}
	.st97{fill:none;stroke:#27427A;stroke-width:5.3333;stroke-linecap:round;stroke-linejoin:round;stroke-miterlimit:10;}
</style>
<g>
	<polygon class="st2" points="119.8,140.49 28.39,133.46 19.61,75.45 137.38,73.7 	"/>
	<g>
		<path class="st1" d="M98.74,123.28c0.24,0.04,0.49,0.06,0.73,0.06c2.11,0,3.97-1.52,4.33-3.67l4.39-26.37
			c0.4-2.39-1.22-4.66-3.61-5.06c-2.39-0.4-4.66,1.22-5.06,3.61l-4.39,26.37C94.73,120.62,96.35,122.88,98.74,123.28L98.74,123.28z"
			/>
		<path class="st1" d="M46.5,119.67c0.36,2.15,2.22,3.67,4.33,3.67c0.24,0,0.48-0.02,0.73-0.06c2.39-0.4,4.01-2.66,3.61-5.06
			l-4.39-26.37c-0.4-2.39-2.66-4.01-5.06-3.61c-2.39,0.4-4.01,2.66-3.61,5.06L46.5,119.67z"/>
		<path class="st1" d="M145.61,53.03h-15.47L96.3,10.73c-1.52-1.89-4.28-2.2-6.18-0.69c-1.9,1.52-2.2,4.28-0.69,6.18l29.44,36.81
			H31.12l29.44-36.81c1.52-1.9,1.21-4.66-0.69-6.18c-1.9-1.52-4.66-1.21-6.18,0.69l-33.84,42.3H4.39C1.97,53.03,0,54.99,0,57.42V75
			c0,2.43,1.97,4.39,4.39,4.39h5.47l16.67,58.34c0.54,1.89,2.26,3.19,4.23,3.19h88.48c1.96,0,3.69-1.3,4.23-3.19l16.67-58.34h5.47
			c2.43,0,4.39-1.97,4.39-4.39V57.42C150,54.99,148.03,53.03,145.61,53.03L145.61,53.03z M115.92,132.13H34.08L19.01,79.39h111.98
			L115.92,132.13z"/>
		<path class="st1" d="M75,123.34c2.43,0,4.39-1.97,4.39-4.39V92.58c0-2.43-1.97-4.39-4.39-4.39c-2.43,0-4.39,1.97-4.39,4.39v26.37
			C70.61,121.37,72.57,123.34,75,123.34z"/>
	</g>
	<path class="st3" d="M138.58,68.42H11.38c-1.28,0-2.32-1.04-2.32-2.32v-4.15c0-1.28,1.04-2.32,2.32-2.32h127.2
		c1.28,0,2.32,1.04,2.32,2.32v4.15C140.89,67.38,139.85,68.42,138.58,68.42z"/>
</g>
</svg>
