<?xml version="1.0" encoding="utf-8"?>
<!-- Generator: Adobe Illustrator 25.3.1, SVG Export Plug-In . SVG Version: 6.00 Build 0)  -->
<svg version="1.1" id="Layer_1" xmlns="http://www.w3.org/2000/svg" xmlns:xlink="http://www.w3.org/1999/xlink" x="0px" y="0px"
	 viewBox="0 0 150 150" style="enable-background:new 0 0 150 150;" xml:space="preserve">
<style type="text/css">
	.st0{fill:#F2F5F7;}
	.st1{fill:#212121;}
	.st2{fill:#BCD5C5;}
	.st3{fill:#FFFFFF;}
	.st4{fill:#E9EDF2;}
	.st5{opacity:0.4;fill:#A8C4E5;}
	.st6{fill:#D6E3FF;}
	.st7{fill:#223A6B;}
	.st8{fill:#221473;}
	.st9{fill:#27427A;}
	.st10{fill:#94B7E0;}
	.st11{opacity:0.2;fill:#FFFFFF;}
	.st12{opacity:0.2;fill:#628FC4;}
	.st13{fill:#4D7CF0;}
	.st14{fill:#446DD4;}
	.st15{fill:#97CBFF;}
	.st16{fill:#DB9833;}
	.st17{fill:#F5BC51;}
	.st18{fill:#F7C750;}
	.st19{fill:#C7DCFF;}
	.st20{opacity:0.15;}
	.st21{fill:#F29700;}
	.st22{fill:#FFA208;}
	.st23{fill:#FFAD24;}
	.st24{fill:#FFC31B;}
	.st25{fill:#FFE7A6;}
	.st26{fill:#FF9F00;}
	.st27{fill:#FFDC7D;}
	.st28{fill:#FFF6DB;}
	.st29{fill:#D98800;}
	.st30{fill:url(#SVGID_1_);}
	.st31{fill:url(#SVGID_2_);}
	.st32{fill:url(#SVGID_3_);}
	.st33{fill:#5CA7FF;}
	.st34{fill:#BAD0FF;}
	.st35{fill:#E6EEFF;}
	.st36{fill:#F1F5FE;}
	.st37{fill:#BEDBFA;}
	.st38{fill:#BF6B6B;}
	.st39{fill:#EA8A6C;}
	.st40{fill:#6F7996;}
	.st41{fill:#628FC4;}
	.st42{fill:#A64C4B;}
	.st43{fill:#FFB49E;}
	.st44{fill:#FFC2B0;}
	.st45{fill:#F5D6CE;}
	.st46{fill:#4F94E3;}
	.st47{fill:#DFEAF4;}
	.st48{fill:#F5A086;}
	.st49{fill:#C9DFF2;}
	.st50{fill:#A8C8E3;}
	.st51{fill:#95C1F5;}
	.st52{fill:#2F4C9C;}
	.st53{fill:#B25D5D;}
	.st54{fill:#5A97DB;}
	.st55{fill:#A3BDFF;}
	.st56{fill:#2C4482;}
	.st57{fill:#FFCCBD;}
	.st58{fill:#B3D1F5;}
	.st59{fill:#7090E0;}
	.st60{fill:#213696;}
	.st61{fill:#1B3A91;}
	.st62{fill:#163078;}
	.st63{fill:url(#SVGID_4_);}
	.st64{fill:#EBF5FF;}
	.st65{fill:#F5FAFF;}
	.st66{fill:#CEDBED;}
	.st67{fill:#B3CCF2;}
	.st68{fill:#CFE5FF;}
	.st69{fill:#3E68DE;}
	.st70{fill:#D9E8FF;}
	.st71{fill:#96B5EB;}
	.st72{fill:#353559;}
	.st73{opacity:0.71;fill:#FFFFFF;}
	.st74{fill:#C2E0FF;}
	.st75{opacity:0.47;fill:#BADDFF;}
	.st76{fill:#BADDFF;}
	.st77{opacity:0.61;fill:#FFFFFF;}
	.st78{fill:#2A66F7;}
	.st79{fill:#5986FF;}
	.st80{fill:#29479C;}
	.st81{fill:#EA986C;}
	.st82{fill:#E69F35;}
	.st83{fill:#D47D62;}
	.st84{fill:#3C61C7;}
	.st85{fill:#363656;}
	.st86{fill:#EDF4FF;}
	.st87{fill:url(#SVGID_5_);}
	.st88{fill:#ABCFFF;}
	.st89{fill:url(#SVGID_6_);}
	.st90{fill:none;stroke:#FFFFFF;stroke-width:2.5103;stroke-miterlimit:10;}
	.st91{fill:none;stroke:#FFFFFF;stroke-width:2.6407;stroke-miterlimit:10;}
	.st92{fill:none;stroke:#FFFFFF;stroke-width:2.5677;stroke-miterlimit:10;}
	.st93{fill:#A8ACBA;}
	.st94{fill:none;stroke:#FFFFFF;stroke-width:2.9223;stroke-linecap:round;stroke-linejoin:round;stroke-miterlimit:10;}
	.st95{fill:none;stroke:#FFFFFF;stroke-width:2.9311;stroke-linecap:round;stroke-linejoin:round;stroke-miterlimit:10;}
	.st96{fill:#ED5353;}
	.st97{fill:none;stroke:#27427A;stroke-width:5.3333;stroke-linecap:round;stroke-linejoin:round;stroke-miterlimit:10;}
</style>
<g>
	<path class="st1" d="M132.08,124.16c-11.27-2.33-22.3-5.06-31.77-12.41c-4.71,5.87-15.05,8.79-25.31,8.78
		c-10.26,0.01-20.6-2.91-25.31-8.78c-9.47,7.35-20.5,10.08-31.77,12.41C5.1,126.82-0.96,135.38,0.12,148.6c24.93,0,49.86,0,74.82,0
		c0.03,0,0.07,0,0.1,0c24.96,0,49.89,0,74.82,0C150.96,135.38,144.9,126.82,132.08,124.16z"/>
	<g>
		<path class="st2" d="M29.26,80.31c4.63,0,8.39-3.76,8.39-8.39V55.18c0-3.59-2.25-6.64-5.41-7.84C34.49,25.74,52.75,8.9,74.95,8.9
			c22.2,0,40.47,16.85,42.72,38.46c-3.14,1.21-5.37,4.26-5.37,7.83v16.73c0,2.81,1.38,5.29,3.5,6.81c-2.54,4.39-6.2,7.45-10.92,9.15
			l0,0c-0.72,0.26-1.47,0.49-2.24,0.68c-0.01,0-0.03,0.01-0.04,0.01c-0.23,0.06-0.46,0.11-0.69,0.16c-0.06,0.01-0.11,0.02-0.17,0.04
			c-0.19,0.04-0.39,0.08-0.58,0.12c-0.07,0.01-0.15,0.03-0.22,0.04c-0.18,0.03-0.36,0.07-0.55,0.1c-0.08,0.01-0.16,0.03-0.25,0.04
			c-0.19,0.03-0.37,0.06-0.56,0.08c-0.08,0.01-0.15,0.02-0.23,0.03c-0.26,0.03-0.53,0.07-0.8,0.09c-0.19,0.02-0.38,0.04-0.57,0.05
			c-0.05,0-0.1,0.01-0.16,0.01c-0.15,0.01-0.3,0.02-0.45,0.03c-0.04,0-0.08,0.01-0.12,0.01c-0.19,0.01-0.37,0.02-0.55,0.03
			c-0.04,0-0.08,0-0.13,0.01c-0.15,0.01-0.3,0.01-0.44,0.02c-0.05,0-0.1,0-0.15,0c-0.18,0-0.36,0.01-0.54,0.01
			c-0.01,0-0.02,0-0.03,0c-0.17,0-0.35,0-0.52,0c-0.04,0-0.08,0-0.12,0c-0.18,0-0.35,0-0.52-0.01c-0.01,0-0.01,0-0.02,0
			c-0.17,0-0.34-0.01-0.5-0.01c-0.04,0-0.07,0-0.11,0c-0.17-0.01-0.34-0.01-0.5-0.02c-0.02,0-0.04,0-0.06,0
			c-0.15-0.01-0.3-0.02-0.45-0.03c-0.03,0-0.06,0-0.1-0.01c-0.16-0.01-0.32-0.02-0.48-0.03c-0.03,0-0.06,0-0.08-0.01
			c-0.14-0.01-0.28-0.02-0.42-0.04c-0.02,0-0.05,0-0.07-0.01c-0.15-0.01-0.3-0.03-0.45-0.04c-0.03,0-0.06-0.01-0.09-0.01
			c-0.14-0.01-0.27-0.03-0.41-0.05c-0.01,0-0.03,0-0.04-0.01c-0.14-0.02-0.29-0.03-0.43-0.05c-0.03,0-0.06-0.01-0.09-0.01
			c-0.14-0.02-0.28-0.04-0.41-0.06c-0.02-0.44-0.08-0.86-0.18-1.27c-0.67-2.77-3.09-4.85-6.02-4.99c-0.11-0.01-0.22-0.01-0.33-0.01
			c-3.61,0-6.54,2.93-6.54,6.54c0,3.61,2.93,6.54,6.54,6.54c1.65,0,3.16-0.61,4.31-1.63c0.11,0.02,0.23,0.04,0.34,0.06
			c0.03,0.01,0.06,0.01,0.09,0.02c0.1,0.02,0.2,0.03,0.3,0.05c0.02,0,0.04,0.01,0.07,0.01c0.12,0.02,0.24,0.04,0.37,0.06
			c0.03,0,0.05,0.01,0.08,0.01c0.1,0.01,0.21,0.03,0.31,0.04c0.03,0,0.06,0.01,0.09,0.01c0.13,0.02,0.26,0.04,0.4,0.05
			c0.01,0,0.03,0,0.04,0.01c0.12,0.02,0.24,0.03,0.37,0.04c0.04,0,0.07,0.01,0.11,0.01c0.13,0.01,0.25,0.03,0.38,0.04
			c0.01,0,0.03,0,0.04,0c0.14,0.02,0.28,0.03,0.43,0.04c0.04,0,0.07,0.01,0.11,0.01c0.12,0.01,0.24,0.02,0.36,0.03
			c0.03,0,0.07,0.01,0.1,0.01c0.15,0.01,0.3,0.02,0.45,0.04c0.03,0,0.05,0,0.08,0.01c0.13,0.01,0.26,0.02,0.39,0.03
			c0.04,0,0.08,0.01,0.12,0.01c0.31,0.02,0.63,0.03,0.95,0.05c0.04,0,0.09,0,0.13,0c0.13,0,0.27,0.01,0.4,0.01c0.03,0,0.06,0,0.1,0
			c0.16,0,0.32,0.01,0.49,0.01c0.04,0,0.08,0,0.12,0c0.13,0,0.27,0,0.4,0c0.03,0,0.05,0,0.08,0c0.02,0,0.04,0,0.06,0
			c0.1,0,0.2,0,0.3,0c0.05,0,0.09,0,0.14,0c0.15,0,0.29,0,0.44-0.01c0,0,0,0,0.01,0c0.15,0,0.29-0.01,0.44-0.01
			c0.05,0,0.1,0,0.15-0.01c0.1,0,0.2-0.01,0.3-0.01c0.06,0,0.12-0.01,0.18-0.01c0.09,0,0.19-0.01,0.28-0.01
			c0.06,0,0.12-0.01,0.18-0.01c0.09-0.01,0.19-0.01,0.28-0.02c0.06,0,0.12-0.01,0.18-0.01c0.1-0.01,0.2-0.02,0.31-0.02
			c0.05,0,0.1-0.01,0.16-0.01c0.15-0.01,0.31-0.03,0.46-0.04c0.03,0,0.05-0.01,0.08-0.01c0,0,0,0,0,0c0.26-0.03,0.52-0.06,0.78-0.09
			c0.12-0.01,0.24-0.03,0.35-0.04c0.1-0.01,0.21-0.03,0.31-0.04c9.47-1.33,16.59-6.22,20.77-14.26c4.42-0.24,7.92-3.9,7.92-8.38
			V55.18c0-2.95-1.52-5.53-3.82-7.03c-0.4-5.5-1.68-10.85-3.83-15.94c-2.54-6.01-6.18-11.4-10.81-16.03
			c-4.63-4.63-10.02-8.27-16.03-10.81C88.36,2.74,81.76,1.4,74.95,1.4c-6.81,0-13.41,1.33-19.64,3.97
			c-6.01,2.54-11.4,6.18-16.03,10.81c-4.63,4.63-8.27,10.02-10.81,16.03c-2.16,5.1-3.44,10.46-3.84,15.97
			c-2.27,1.5-3.77,4.08-3.77,7v16.73C20.87,76.55,24.62,80.31,29.26,80.31z"/>
	</g>
	<path class="st1" d="M43.05,77.75c-0.23,0.54-0.48,1.05-0.77,1.55c0.09,0.42,0.19,0.83,0.29,1.26
		c6.29,26.94,30.72,29.75,30.72,29.75h3.23c0,0,9.8-1.13,18.58-8.8c-0.04,0-0.08,0-0.11,0c-2.06,0-4.14-0.13-6.23-0.38
		c-1.78,0.88-3.76,1.34-5.78,1.34c-3.51,0-6.8-1.37-9.28-3.84c-2.48-2.48-3.84-5.77-3.84-9.28c0-3.51,1.37-6.8,3.84-9.28
		c2.48-2.48,5.77-3.84,9.28-3.84c3.41,0,6.64,1.3,9.1,3.67c0.92,0.89,1.7,1.9,2.32,2.98c0.21,0,0.41,0.01,0.61,0.01
		c0.98,0,1.93-0.05,2.85-0.14c2.94-0.31,5.45-1.09,7.48-2.34c0.74-0.46,1.43-0.97,2.06-1.56c-1.11-2.12-1.7-4.52-1.7-6.92V55.18
		c0-3.08,0.93-6.05,2.69-8.57c0.49-0.7,1.03-1.35,1.62-1.95c-0.38-2.22-0.96-4.38-1.73-6.44c-0.76-2.35-1.68-4.35-2.73-6
		c-0.04-0.07-0.09-0.14-0.13-0.21c-0.06-0.1-0.13-0.2-0.2-0.3c-0.01-0.02-0.02-0.03-0.03-0.05c-0.4-0.58-0.81-1.11-1.23-1.59
		c-0.63-0.89-1.3-1.75-2.01-2.57c-0.82-0.91-1.68-1.77-2.59-2.6c-6.7-6.07-15.37-9.42-24.42-9.42c-9.05,0-17.72,3.34-24.41,9.41
		c-0.88,0.8-1.72,1.64-2.52,2.52c-0.61,0.71-1.2,1.45-1.76,2.2c0,0-0.01,0.01-0.01,0.01c-0.18,0.19-0.36,0.39-0.54,0.6
		c-0.98,1.32-1.87,2.71-2.66,4.14c-0.79,1.62-1.48,3.49-2.05,5.6c-0.48,1.51-0.85,3.07-1.13,4.66c0.6,0.6,1.14,1.25,1.64,1.95
		c1.78,2.53,2.72,5.51,2.72,8.6v16.73C44.23,73.94,43.84,75.9,43.05,77.75z"/>
</g>
</svg>
