<?xml version="1.0" encoding="utf-8"?>
<!-- Generator: Adobe Illustrator 25.3.1, SVG Export Plug-In . SVG Version: 6.00 Build 0)  -->
<svg version="1.1" id="Layer_1" xmlns="http://www.w3.org/2000/svg" xmlns:xlink="http://www.w3.org/1999/xlink" x="0px" y="0px"
	 viewBox="0 0 150 150" style="enable-background:new 0 0 150 150;" xml:space="preserve">
<style type="text/css">
	.st0{fill:#F2F5F7;}
	.st1{fill:#212121;}
	.st2{fill:#BCD5C5;}
	.st3{fill:#FFFFFF;}
	.st4{fill:#E9EDF2;}
	.st5{opacity:0.4;fill:#A8C4E5;}
	.st6{fill:#D6E3FF;}
	.st7{fill:#223A6B;}
	.st8{fill:#221473;}
	.st9{fill:#27427A;}
	.st10{fill:#94B7E0;}
	.st11{opacity:0.2;fill:#FFFFFF;}
	.st12{opacity:0.2;fill:#628FC4;}
	.st13{fill:#4D7CF0;}
	.st14{fill:#446DD4;}
	.st15{fill:#97CBFF;}
	.st16{fill:#DB9833;}
	.st17{fill:#F5BC51;}
	.st18{fill:#F7C750;}
	.st19{fill:#C7DCFF;}
	.st20{opacity:0.15;}
	.st21{fill:#F29700;}
	.st22{fill:#FFA208;}
	.st23{fill:#FFAD24;}
	.st24{fill:#FFC31B;}
	.st25{fill:#FFE7A6;}
	.st26{fill:#FF9F00;}
	.st27{fill:#FFDC7D;}
	.st28{fill:#FFF6DB;}
	.st29{fill:#D98800;}
	.st30{fill:url(#SVGID_1_);}
	.st31{fill:url(#SVGID_2_);}
	.st32{fill:url(#SVGID_3_);}
	.st33{fill:#5CA7FF;}
	.st34{fill:#BAD0FF;}
	.st35{fill:#E6EEFF;}
	.st36{fill:#F1F5FE;}
	.st37{fill:#BEDBFA;}
	.st38{fill:#BF6B6B;}
	.st39{fill:#EA8A6C;}
	.st40{fill:#6F7996;}
	.st41{fill:#628FC4;}
	.st42{fill:#A64C4B;}
	.st43{fill:#FFB49E;}
	.st44{fill:#FFC2B0;}
	.st45{fill:#F5D6CE;}
	.st46{fill:#4F94E3;}
	.st47{fill:#DFEAF4;}
	.st48{fill:#F5A086;}
	.st49{fill:#C9DFF2;}
	.st50{fill:#A8C8E3;}
	.st51{fill:#95C1F5;}
	.st52{fill:#2F4C9C;}
	.st53{fill:#B25D5D;}
	.st54{fill:#5A97DB;}
	.st55{fill:#A3BDFF;}
	.st56{fill:#2C4482;}
	.st57{fill:#FFCCBD;}
	.st58{fill:#B3D1F5;}
	.st59{fill:#7090E0;}
	.st60{fill:#213696;}
	.st61{fill:#1B3A91;}
	.st62{fill:#163078;}
	.st63{fill:url(#SVGID_4_);}
	.st64{fill:#EBF5FF;}
	.st65{fill:#F5FAFF;}
	.st66{fill:#CEDBED;}
	.st67{fill:#B3CCF2;}
	.st68{fill:#CFE5FF;}
	.st69{fill:#3E68DE;}
	.st70{fill:#D9E8FF;}
	.st71{fill:#96B5EB;}
	.st72{fill:#353559;}
	.st73{opacity:0.71;fill:#FFFFFF;}
	.st74{fill:#C2E0FF;}
	.st75{opacity:0.47;fill:#BADDFF;}
	.st76{fill:#BADDFF;}
	.st77{opacity:0.61;fill:#FFFFFF;}
	.st78{fill:#2A66F7;}
	.st79{fill:#5986FF;}
	.st80{fill:#29479C;}
	.st81{fill:#EA986C;}
	.st82{fill:#E69F35;}
	.st83{fill:#D47D62;}
	.st84{fill:#3C61C7;}
	.st85{fill:#363656;}
	.st86{fill:#EDF4FF;}
	.st87{fill:url(#SVGID_5_);}
	.st88{fill:#ABCFFF;}
	.st89{fill:url(#SVGID_6_);}
	.st90{fill:none;stroke:#FFFFFF;stroke-width:2.5103;stroke-miterlimit:10;}
	.st91{fill:none;stroke:#FFFFFF;stroke-width:2.6407;stroke-miterlimit:10;}
	.st92{fill:none;stroke:#FFFFFF;stroke-width:2.5677;stroke-miterlimit:10;}
	.st93{fill:#A8ACBA;}
	.st94{fill:none;stroke:#FFFFFF;stroke-width:2.9223;stroke-linecap:round;stroke-linejoin:round;stroke-miterlimit:10;}
	.st95{fill:none;stroke:#FFFFFF;stroke-width:2.9311;stroke-linecap:round;stroke-linejoin:round;stroke-miterlimit:10;}
	.st96{fill:#ED5353;}
	.st97{fill:none;stroke:#27427A;stroke-width:5.3333;stroke-linecap:round;stroke-linejoin:round;stroke-miterlimit:10;}
</style>
<g>
	<g>
		<g>
			<g>
				<path class="st1" d="M143.75,122.3c-4.25-4.37-8.62-8.78-12.83-13.04c-1.83-1.84-3.65-3.69-5.47-5.53
					c-1.62-1.62-3.24-3.27-4.87-4.92c-1.32-1.35-2.65-2.69-3.98-4.03l-1.4-1.42l1.2-1.59c5.75-7.6,9.2-16.45,10.11-25.84
					c-3.04-1.03-6.76-2.29-10.67-3.59c0,0.09-0.01,0.19-0.01,0.28c-1.09,21.77-19.22,38.83-41.28,38.83c-0.54,0-1.09-0.01-1.64-0.03
					c-19.04-1.18-34.38-15.41-37.52-33.63c-0.39-2.25-0.59-4.56-0.59-6.91c0-5.82,1.23-11.36,3.45-16.37
					c6.31-14.27,20.6-24.26,37.18-24.26c14.74,0,27.94,7.82,35.09,20.14c2.74,0.92,5.65,1.9,8.52,2.86l0.15,0.05
					c1.7,0.57,3.41,1.14,5.05,1.69C117.44,24.1,97.91,9.58,75.4,9.58c-6.06,0-11.99,1.05-17.62,3.12
					C45.6,17.16,35.84,26,30.02,37.02c-3.32,6.27-5.35,13.26-5.84,20.54c-0.07,1.11-0.11,2.22-0.11,3.34
					c0,25.16,17.99,46.44,42.79,50.61l3.52,0.59c0.81,0.07,1.63,0.12,2.46,0.15c2.13,0.08,4.32,0.02,6.48-0.17l0.84-0.07
					c7.1-0.66,13.86-2.75,20.09-6.21l1.71-0.95l1.21,1.55c5.01,6.43,10.06,12.87,15.11,19.32c2.97,3.79,5.94,7.58,8.9,11.37
					c1.62,2.1,3.69,3.15,6.52,3.31c0.23,0.02,0.4,0.03,0.58,0.03c1.7,0,3.42-0.68,4.97-1.97c1.15-0.97,2.33-2.02,3.47-3.04
					l0.66-0.58c1.88-1.69,2.96-3.86,3.04-6.12C146.5,126.43,145.55,124.15,143.75,122.3z"/>
			</g>
		</g>
		<g>
			<g>
				<path class="st2" d="M148.89,56.72c-1.6-2.84-4.38-4.53-7.41-4.53c-0.51,0-1.02,0.05-1.53,0.14c-1.63,0.3-3.2,1.06-4.59,2.22
					l-2.29-0.8c-3.23-1.11-9.26-3.13-15.64-5.26c-3.77-1.26-7.6-2.55-11.03-3.7c-3.64-1.23-6.84-2.32-9.06-3.09
					c-0.58-3.25-3.08-6.1-6.32-7.1c-1.34-0.41-2.72-0.49-4.03-0.25c-2.09,0.38-3.92,1.54-5.28,3.33c-2.26,2.98-2.56,6.43-0.86,9.39
					c-0.9,1.31-1.27,1.94-1.62,2.56c-0.37,0.64-0.76,1.31-1.81,2.84l-4.52,6.55c-2.81,4.08-5.8,8.41-8.72,12.6
					c-1.38-0.16-2.71-0.01-3.98,0.44L41.09,54.55c-0.39,2.08-0.58,4.2-0.58,6.35c0,1.51,0.1,3.02,0.29,4.5l13.93,12.76
					c-0.18,0.99-0.36,2.1-0.28,3.26c0.26,3.47,3.03,6.53,6.74,7.46c0.71,0.18,1.43,0.27,2.13,0.27c0.49,0,0.99-0.05,1.47-0.14
					c2.14-0.39,4-1.61,5.38-3.53c2.13-2.95,2.37-6.26,0.71-9.19c2.75-3.97,5.49-7.93,8.23-11.9l1.89-2.73
					c1.66-2.4,2.59-3.85,3.49-5.26c0.85-1.34,1.67-2.61,3.07-4.65c2.6,0.34,4.96-0.45,6.96-2.33l2.19,0.76
					c2.84,0.98,7.86,2.67,13.37,4.52c0.7,0.23,1.4,0.46,2.12,0.71c7.82,2.61,15.9,5.32,20.24,6.84c0.03,0.18,0.07,0.36,0.11,0.53
					c0.73,2.96,3,5.48,5.98,6.49c0.91,0.3,1.84,0.46,2.77,0.46h0.01c0.49,0,0.99-0.05,1.47-0.13c1.97-0.37,3.7-1.4,5.02-3.01
					C150.28,63.58,150.69,59.89,148.89,56.72z M64.07,84.96c-0.35,0.07-0.7,0.1-1.04,0.1c-2.25,0-4-1.47-4.47-3.74
					c-0.27-1.31-0.04-2.6,0.65-3.62c0.69-1.02,1.78-1.72,3.09-1.95c2.63-0.49,4.98,1.2,5.45,3.75
					C68.26,82.19,66.75,84.43,64.07,84.96z M89.38,47.65c-0.27,0.05-0.55,0.07-0.82,0.07c-2.29,0-4.17-1.6-4.57-3.91
					c-0.46-2.68,1.09-4.9,3.77-5.39c0.33-0.06,0.65-0.09,0.97-0.09c2.33,0,4.14,1.6,4.52,3.98C93.66,44.95,92.04,47.2,89.38,47.65z
					 M142.08,65.52c-0.35,0.06-0.7,0.1-1.04,0.1c-2.32,0-4.08-1.54-4.49-3.93c-0.46-2.66,1.14-4.92,3.81-5.38
					c0.32-0.06,0.63-0.09,0.94-0.09c2.29,0,4.05,1.51,4.48,3.85C146.28,62.75,144.76,64.99,142.08,65.52z M13.46,23.32
					c-1.9-1.23-4.16-1.7-6.27-1.31c-1.77,0.33-3.39,1.22-4.67,2.6c-2.94,3.16-3.34,7.54-1,10.92c2.1,3.03,5.23,4.33,8.83,3.66
					c0.42-0.08,0.85-0.18,1.29-0.31l8.56,7.65c0.75-2.87,1.74-5.69,2.94-8.43l-5.95-5.26C18.16,28.81,16.88,25.53,13.46,23.32z
					 M9.8,35.25c-0.38,0.08-0.76,0.12-1.13,0.12c-2.25,0-4.06-1.54-4.49-3.83c-0.51-2.69,1-4.94,3.68-5.47
					c0.35-0.07,0.7-0.11,1.04-0.11c2.25,0,4,1.47,4.47,3.73C13.91,32.31,12.38,34.7,9.8,35.25z"/>
			</g>
		</g>
	</g>
</g>
</svg>
