<?xml version="1.0" encoding="utf-8"?>
<!-- Generator: Adobe Illustrator 25.3.1, SVG Export Plug-In . SVG Version: 6.00 Build 0)  -->
<svg version="1.1" id="Layer_1" xmlns="http://www.w3.org/2000/svg" xmlns:xlink="http://www.w3.org/1999/xlink" x="0px" y="0px"
	 viewBox="0 0 150 150" style="enable-background:new 0 0 150 150;" xml:space="preserve">
<style type="text/css">
	.st0{fill:#F2F5F7;}
	.st1{fill:#212121;}
	.st2{fill:#BCD5C5;}
	.st3{fill:#FFFFFF;}
	.st4{fill:#E9EDF2;}
	.st5{opacity:0.4;fill:#A8C4E5;}
	.st6{fill:#D6E3FF;}
	.st7{fill:#223A6B;}
	.st8{fill:#221473;}
	.st9{fill:#27427A;}
	.st10{fill:#94B7E0;}
	.st11{opacity:0.2;fill:#FFFFFF;}
	.st12{opacity:0.2;fill:#628FC4;}
	.st13{fill:#4D7CF0;}
	.st14{fill:#446DD4;}
	.st15{fill:#97CBFF;}
	.st16{fill:#DB9833;}
	.st17{fill:#F5BC51;}
	.st18{fill:#F7C750;}
	.st19{fill:#C7DCFF;}
	.st20{opacity:0.15;}
	.st21{fill:#F29700;}
	.st22{fill:#FFA208;}
	.st23{fill:#FFAD24;}
	.st24{fill:#FFC31B;}
	.st25{fill:#FFE7A6;}
	.st26{fill:#FF9F00;}
	.st27{fill:#FFDC7D;}
	.st28{fill:#FFF6DB;}
	.st29{fill:#D98800;}
	.st30{fill:url(#SVGID_1_);}
	.st31{fill:url(#SVGID_2_);}
	.st32{fill:url(#SVGID_3_);}
	.st33{fill:#5CA7FF;}
	.st34{fill:#BAD0FF;}
	.st35{fill:#E6EEFF;}
	.st36{fill:#F1F5FE;}
	.st37{fill:#BEDBFA;}
	.st38{fill:#BF6B6B;}
	.st39{fill:#EA8A6C;}
	.st40{fill:#6F7996;}
	.st41{fill:#628FC4;}
	.st42{fill:#A64C4B;}
	.st43{fill:#FFB49E;}
	.st44{fill:#FFC2B0;}
	.st45{fill:#F5D6CE;}
	.st46{fill:#4F94E3;}
	.st47{fill:#DFEAF4;}
	.st48{fill:#F5A086;}
	.st49{fill:#C9DFF2;}
	.st50{fill:#A8C8E3;}
	.st51{fill:#95C1F5;}
	.st52{fill:#2F4C9C;}
	.st53{fill:#B25D5D;}
	.st54{fill:#5A97DB;}
	.st55{fill:#A3BDFF;}
	.st56{fill:#2C4482;}
	.st57{fill:#FFCCBD;}
	.st58{fill:#B3D1F5;}
	.st59{fill:#7090E0;}
	.st60{fill:#213696;}
	.st61{fill:#1B3A91;}
	.st62{fill:#163078;}
	.st63{fill:url(#SVGID_4_);}
	.st64{fill:#EBF5FF;}
	.st65{fill:#F5FAFF;}
	.st66{fill:#CEDBED;}
	.st67{fill:#B3CCF2;}
	.st68{fill:#CFE5FF;}
	.st69{fill:#3E68DE;}
	.st70{fill:#D9E8FF;}
	.st71{fill:#96B5EB;}
	.st72{fill:#353559;}
	.st73{opacity:0.71;fill:#FFFFFF;}
	.st74{fill:#C2E0FF;}
	.st75{opacity:0.47;fill:#BADDFF;}
	.st76{fill:#BADDFF;}
	.st77{opacity:0.61;fill:#FFFFFF;}
	.st78{fill:#2A66F7;}
	.st79{fill:#5986FF;}
	.st80{fill:#29479C;}
	.st81{fill:#EA986C;}
	.st82{fill:#E69F35;}
	.st83{fill:#D47D62;}
	.st84{fill:#3C61C7;}
	.st85{fill:#363656;}
	.st86{fill:#EDF4FF;}
	.st87{fill:url(#SVGID_5_);}
	.st88{fill:#ABCFFF;}
	.st89{fill:url(#SVGID_6_);}
	.st90{fill:none;stroke:#FFFFFF;stroke-width:2.5103;stroke-miterlimit:10;}
	.st91{fill:none;stroke:#FFFFFF;stroke-width:2.6407;stroke-miterlimit:10;}
	.st92{fill:none;stroke:#FFFFFF;stroke-width:2.5677;stroke-miterlimit:10;}
	.st93{fill:#A8ACBA;}
	.st94{fill:none;stroke:#FFFFFF;stroke-width:2.9223;stroke-linecap:round;stroke-linejoin:round;stroke-miterlimit:10;}
	.st95{fill:none;stroke:#FFFFFF;stroke-width:2.9311;stroke-linecap:round;stroke-linejoin:round;stroke-miterlimit:10;}
	.st96{fill:#ED5353;}
	.st97{fill:none;stroke:#27427A;stroke-width:5.3333;stroke-linecap:round;stroke-linejoin:round;stroke-miterlimit:10;}
</style>
<g>
	<g>
		<path class="st2" d="M36.77,124.77c-5.32-5.88-7.98-13.77-7.98-23.66V49.73c0-10.36,2.59-18.5,7.77-24.43
			c5.18-5.93,12.9-8.89,23.17-8.89c10.27,0,17.97,2.96,23.1,8.89c5.13,5.93,7.7,14.07,7.7,24.43v51.38c0,9.8-2.68,17.66-8.05,23.59
			c-5.37,5.93-12.95,8.89-22.75,8.89C49.74,133.59,42.09,130.65,36.77,124.77z M65.4,109.09c0.89-2.43,1.33-5.27,1.33-8.54V50.29
			c0-3.73-0.4-6.84-1.19-9.31c-0.79-2.47-2.73-3.71-5.81-3.71s-5.02,1.21-5.81,3.64c-0.79,2.43-1.19,5.55-1.19,9.38v50.26
			c0,8.12,2.33,12.18,7,12.18C62.62,112.73,64.51,111.52,65.4,109.09z"/>
		<path class="st2" d="M116.84,41.19c-1.03,0.56-3.73,1.77-8.12,3.64c-0.75,0.28-1.91,0.75-3.5,1.4c-1.59,0.65-2.89,1.26-3.92,1.82
			V30.69c11.2-5.79,18.06-9.99,20.58-12.6h18.34v113.4h-23.38V41.19z"/>
	</g>
	<g>
		<path class="st1" d="M12.63,96.36c-1.67-1.95-2.62-4.64-2.85-8.08l3.35-1c0.3,2.87,0.94,5.07,1.93,6.6
			c0.98,1.53,2.61,2.3,4.88,2.3c3.8,0,5.7-1.95,5.7-5.85c0-1.67-0.39-3.13-1.17-4.4c-0.78-1.27-2.04-2.72-3.77-4.35l-7.15-6.85
			c-1.3-1.2-2.24-2.46-2.82-3.78c-0.58-1.32-0.88-2.77-0.88-4.38c0-2.77,0.82-4.91,2.48-6.42c1.65-1.52,3.88-2.28,6.67-2.28
			c3,0,5.3,0.8,6.9,2.4s2.53,4.22,2.8,7.85l-3.25,0.85c-0.2-2.73-0.78-4.77-1.73-6.1c-0.95-1.33-2.52-2-4.73-2
			c-1.73,0-3.12,0.45-4.15,1.35c-1.03,0.9-1.55,2.23-1.55,4c0,1.13,0.22,2.15,0.65,3.05c0.43,0.9,1.17,1.85,2.2,2.85l7.15,6.75
			c1.83,1.73,3.28,3.51,4.33,5.33c1.05,1.82,1.58,3.78,1.58,5.88c0,2.93-0.85,5.2-2.55,6.8c-1.7,1.6-3.95,2.4-6.75,2.4
			C16.71,99.28,14.29,98.31,12.63,96.36z"/>
		<path class="st1" d="M43.03,61.23h-7.65v-2.95h18.9v2.95h-7.45v37.55h-3.8V61.23z"/>
		<path class="st1" d="M62.43,58.28h14.65v2.95h-10.8v15.2h8.8v2.8h-8.8v16.7h10.9v2.85H62.43V58.28z"/>
		<path class="st1" d="M86.12,58.28h9.7c3.43,0,5.89,0.93,7.38,2.8c1.48,1.87,2.23,4.52,2.23,7.95c0,3.13-0.78,5.68-2.33,7.65
			s-3.96,2.95-7.23,2.95h-5.95v19.15h-3.8V58.28z M94.77,76.78c2.5,0,4.28-0.58,5.33-1.72c1.05-1.15,1.58-3.16,1.58-6.03
			c0-2.1-0.2-3.71-0.6-4.83c-0.4-1.12-1.08-1.91-2.05-2.38c-0.97-0.47-2.37-0.7-4.2-0.7h-4.9v15.65H94.77z"/>
	</g>
</g>
</svg>
