<?xml version="1.0" encoding="utf-8"?>
<!-- Generator: Adobe Illustrator 25.3.1, SVG Export Plug-In . SVG Version: 6.00 Build 0)  -->
<svg version="1.1" id="Layer_1" xmlns="http://www.w3.org/2000/svg" xmlns:xlink="http://www.w3.org/1999/xlink" x="0px" y="0px"
	 viewBox="0 0 150 150" style="enable-background:new 0 0 150 150;" xml:space="preserve">
<style type="text/css">
	.st0{fill:#F2F5F7;}
	.st1{fill:#212121;}
	.st2{fill:#BCD5C5;}
	.st3{fill:#FFFFFF;}
	.st4{fill:#E9EDF2;}
	.st5{opacity:0.4;fill:#A8C4E5;}
	.st6{fill:#D6E3FF;}
	.st7{fill:#223A6B;}
	.st8{fill:#221473;}
	.st9{fill:#27427A;}
	.st10{fill:#94B7E0;}
	.st11{opacity:0.2;fill:#FFFFFF;}
	.st12{opacity:0.2;fill:#628FC4;}
	.st13{fill:#4D7CF0;}
	.st14{fill:#446DD4;}
	.st15{fill:#97CBFF;}
	.st16{fill:#DB9833;}
	.st17{fill:#F5BC51;}
	.st18{fill:#F7C750;}
	.st19{fill:#C7DCFF;}
	.st20{opacity:0.15;}
	.st21{fill:#F29700;}
	.st22{fill:#FFA208;}
	.st23{fill:#FFAD24;}
	.st24{fill:#FFC31B;}
	.st25{fill:#FFE7A6;}
	.st26{fill:#FF9F00;}
	.st27{fill:#FFDC7D;}
	.st28{fill:#FFF6DB;}
	.st29{fill:#D98800;}
	.st30{fill:url(#SVGID_1_);}
	.st31{fill:url(#SVGID_2_);}
	.st32{fill:url(#SVGID_3_);}
	.st33{fill:#5CA7FF;}
	.st34{fill:#BAD0FF;}
	.st35{fill:#E6EEFF;}
	.st36{fill:#F1F5FE;}
	.st37{fill:#BEDBFA;}
	.st38{fill:#BF6B6B;}
	.st39{fill:#EA8A6C;}
	.st40{fill:#6F7996;}
	.st41{fill:#628FC4;}
	.st42{fill:#A64C4B;}
	.st43{fill:#FFB49E;}
	.st44{fill:#FFC2B0;}
	.st45{fill:#F5D6CE;}
	.st46{fill:#4F94E3;}
	.st47{fill:#DFEAF4;}
	.st48{fill:#F5A086;}
	.st49{fill:#C9DFF2;}
	.st50{fill:#A8C8E3;}
	.st51{fill:#95C1F5;}
	.st52{fill:#2F4C9C;}
	.st53{fill:#B25D5D;}
	.st54{fill:#5A97DB;}
	.st55{fill:#A3BDFF;}
	.st56{fill:#2C4482;}
	.st57{fill:#FFCCBD;}
	.st58{fill:#B3D1F5;}
	.st59{fill:#7090E0;}
	.st60{fill:#213696;}
	.st61{fill:#1B3A91;}
	.st62{fill:#163078;}
	.st63{fill:url(#SVGID_4_);}
	.st64{fill:#EBF5FF;}
	.st65{fill:#F5FAFF;}
	.st66{fill:#CEDBED;}
	.st67{fill:#B3CCF2;}
	.st68{fill:#CFE5FF;}
	.st69{fill:#3E68DE;}
	.st70{fill:#D9E8FF;}
	.st71{fill:#96B5EB;}
	.st72{fill:#353559;}
	.st73{opacity:0.71;fill:#FFFFFF;}
	.st74{fill:#C2E0FF;}
	.st75{opacity:0.47;fill:#BADDFF;}
	.st76{fill:#BADDFF;}
	.st77{opacity:0.61;fill:#FFFFFF;}
	.st78{fill:#2A66F7;}
	.st79{fill:#5986FF;}
	.st80{fill:#29479C;}
	.st81{fill:#EA986C;}
	.st82{fill:#E69F35;}
	.st83{fill:#D47D62;}
	.st84{fill:#3C61C7;}
	.st85{fill:#363656;}
	.st86{fill:#EDF4FF;}
	.st87{fill:url(#SVGID_5_);}
	.st88{fill:#ABCFFF;}
	.st89{fill:url(#SVGID_6_);}
	.st90{fill:none;stroke:#FFFFFF;stroke-width:2.5103;stroke-miterlimit:10;}
	.st91{fill:none;stroke:#FFFFFF;stroke-width:2.6407;stroke-miterlimit:10;}
	.st92{fill:none;stroke:#FFFFFF;stroke-width:2.5677;stroke-miterlimit:10;}
	.st93{fill:#A8ACBA;}
	.st94{fill:none;stroke:#FFFFFF;stroke-width:2.9223;stroke-linecap:round;stroke-linejoin:round;stroke-miterlimit:10;}
	.st95{fill:none;stroke:#FFFFFF;stroke-width:2.9311;stroke-linecap:round;stroke-linejoin:round;stroke-miterlimit:10;}
	.st96{fill:#ED5353;}
	.st97{fill:none;stroke:#27427A;stroke-width:5.3333;stroke-linecap:round;stroke-linejoin:round;stroke-miterlimit:10;}
</style>
<g>
	<g>
		<path class="st2" d="M7.19,119.82C2.4,114.52,0,107.42,0,98.51V52.25c0-9.33,2.33-16.66,7-22c4.66-5.34,11.62-8,20.86-8
			c9.24,0,16.18,2.67,20.8,8c4.62,5.34,6.93,12.67,6.93,22v46.26c0,8.82-2.42,15.91-7.25,21.24c-4.83,5.34-11.66,8-20.49,8
			C18.87,127.76,11.98,125.11,7.19,119.82z M32.97,105.7c0.8-2.18,1.2-4.75,1.2-7.69V52.75c0-3.36-0.36-6.16-1.07-8.38
			c-0.71-2.23-2.46-3.34-5.23-3.34s-4.52,1.09-5.23,3.28c-0.71,2.19-1.07,5-1.07,8.45v45.26c0,7.31,2.1,10.97,6.3,10.97
			C30.46,108.97,32.17,107.88,32.97,105.7z"/>
		<path class="st2" d="M67.69,110.99l24.46-37.57l1.51-2.27c3.19-4.79,5.55-8.8,7.06-12.04c1.51-3.23,2.27-6.62,2.27-10.15
			c0-2.86-0.57-5.02-1.7-6.49c-1.13-1.47-2.75-2.21-4.85-2.21c-3.2,0-5.42,1.24-6.68,3.72c-1.26,2.48-1.89,5.9-1.89,10.27v5.04
			H67.44v-5.42c0-9.58,2.33-17.23,7-22.94c4.66-5.71,11.87-8.57,21.62-8.57c8.99,0,15.86,2.35,20.61,7.06
			c4.75,4.71,7.12,11.35,7.12,19.92c0,3.87-0.61,7.52-1.83,10.97c-1.22,3.45-2.67,6.56-4.35,9.33c-1.68,2.77-4.29,6.73-7.82,11.85
			l-18.66,27.86h29.88v16.51H67.69V110.99z"/>
	</g>
	<g>
		<path class="st1" d="M66.44,97.4c-1.5-1.76-2.36-4.18-2.57-7.27l3.02-0.9c0.27,2.58,0.85,4.56,1.73,5.94
			c0.88,1.38,2.35,2.07,4.39,2.07c3.42,0,5.13-1.76,5.13-5.27c0-1.5-0.35-2.82-1.06-3.96c-0.71-1.14-1.84-2.45-3.4-3.92l-6.44-6.17
			c-1.17-1.08-2.02-2.21-2.54-3.4c-0.53-1.19-0.79-2.5-0.79-3.94c0-2.49,0.74-4.42,2.23-5.79c1.49-1.37,3.49-2.05,6.01-2.05
			c2.7,0,4.77,0.72,6.21,2.16c1.44,1.44,2.28,3.8,2.52,7.07l-2.93,0.77c-0.18-2.46-0.7-4.29-1.55-5.49c-0.86-1.2-2.27-1.8-4.26-1.8
			c-1.56,0-2.81,0.41-3.74,1.22c-0.93,0.81-1.4,2.01-1.4,3.6c0,1.02,0.2,1.94,0.59,2.75c0.39,0.81,1.05,1.67,1.98,2.57l6.44,6.08
			c1.65,1.56,2.95,3.16,3.89,4.8c0.95,1.64,1.42,3.4,1.42,5.29c0,2.64-0.77,4.68-2.3,6.12c-1.53,1.44-3.56,2.16-6.08,2.16
			C70.12,100.04,67.94,99.16,66.44,97.4z"/>
		<path class="st1" d="M93.81,65.78h-6.89v-2.66h17.02v2.66h-6.71v33.81h-3.42V65.78z"/>
		<path class="st1" d="M111.28,63.12h13.19v2.66h-9.72v13.69h7.92v2.52h-7.92v15.04h9.81v2.57h-13.28V63.12z"/>
		<path class="st1" d="M132.62,63.12h8.73c3.09,0,5.31,0.84,6.64,2.52c1.33,1.68,2,4.07,2,7.16c0,2.82-0.7,5.12-2.09,6.89
			c-1.4,1.77-3.56,2.66-6.51,2.66h-5.36v17.24h-3.42V63.12z M140.41,79.78c2.25,0,3.85-0.52,4.8-1.55c0.95-1.04,1.42-2.84,1.42-5.43
			c0-1.89-0.18-3.34-0.54-4.34c-0.36-1.01-0.98-1.72-1.85-2.14c-0.87-0.42-2.13-0.63-3.78-0.63h-4.41v14.09H140.41z"/>
	</g>
</g>
</svg>
