<?xml version="1.0" encoding="utf-8"?>
<!-- Generator: Adobe Illustrator 25.3.1, SVG Export Plug-In . SVG Version: 6.00 Build 0)  -->
<svg version="1.1" id="Layer_1" xmlns="http://www.w3.org/2000/svg" xmlns:xlink="http://www.w3.org/1999/xlink" x="0px" y="0px"
	 viewBox="0 0 150 150" style="enable-background:new 0 0 150 150;" xml:space="preserve">
<style type="text/css">
	.st0{fill:#F2F5F7;}
	.st1{fill:#212121;}
	.st2{fill:#BCD5C5;}
	.st3{fill:#FFFFFF;}
	.st4{fill:#E9EDF2;}
	.st5{opacity:0.4;fill:#A8C4E5;}
	.st6{fill:#D6E3FF;}
	.st7{fill:#223A6B;}
	.st8{fill:#221473;}
	.st9{fill:#27427A;}
	.st10{fill:#94B7E0;}
	.st11{opacity:0.2;fill:#FFFFFF;}
	.st12{opacity:0.2;fill:#628FC4;}
	.st13{fill:#4D7CF0;}
	.st14{fill:#446DD4;}
	.st15{fill:#97CBFF;}
	.st16{fill:#DB9833;}
	.st17{fill:#F5BC51;}
	.st18{fill:#F7C750;}
	.st19{fill:#C7DCFF;}
	.st20{opacity:0.15;}
	.st21{fill:#F29700;}
	.st22{fill:#FFA208;}
	.st23{fill:#FFAD24;}
	.st24{fill:#FFC31B;}
	.st25{fill:#FFE7A6;}
	.st26{fill:#FF9F00;}
	.st27{fill:#FFDC7D;}
	.st28{fill:#FFF6DB;}
	.st29{fill:#D98800;}
	.st30{fill:url(#SVGID_1_);}
	.st31{fill:url(#SVGID_2_);}
	.st32{fill:url(#SVGID_3_);}
	.st33{fill:#5CA7FF;}
	.st34{fill:#BAD0FF;}
	.st35{fill:#E6EEFF;}
	.st36{fill:#F1F5FE;}
	.st37{fill:#BEDBFA;}
	.st38{fill:#BF6B6B;}
	.st39{fill:#EA8A6C;}
	.st40{fill:#6F7996;}
	.st41{fill:#628FC4;}
	.st42{fill:#A64C4B;}
	.st43{fill:#FFB49E;}
	.st44{fill:#FFC2B0;}
	.st45{fill:#F5D6CE;}
	.st46{fill:#4F94E3;}
	.st47{fill:#DFEAF4;}
	.st48{fill:#F5A086;}
	.st49{fill:#C9DFF2;}
	.st50{fill:#A8C8E3;}
	.st51{fill:#95C1F5;}
	.st52{fill:#2F4C9C;}
	.st53{fill:#B25D5D;}
	.st54{fill:#5A97DB;}
	.st55{fill:#A3BDFF;}
	.st56{fill:#2C4482;}
	.st57{fill:#FFCCBD;}
	.st58{fill:#B3D1F5;}
	.st59{fill:#7090E0;}
	.st60{fill:#213696;}
	.st61{fill:#1B3A91;}
	.st62{fill:#163078;}
	.st63{fill:url(#SVGID_4_);}
	.st64{fill:#EBF5FF;}
	.st65{fill:#F5FAFF;}
	.st66{fill:#CEDBED;}
	.st67{fill:#B3CCF2;}
	.st68{fill:#CFE5FF;}
	.st69{fill:#3E68DE;}
	.st70{fill:#D9E8FF;}
	.st71{fill:#96B5EB;}
	.st72{fill:#353559;}
	.st73{opacity:0.71;fill:#FFFFFF;}
	.st74{fill:#C2E0FF;}
	.st75{opacity:0.47;fill:#BADDFF;}
	.st76{fill:#BADDFF;}
	.st77{opacity:0.61;fill:#FFFFFF;}
	.st78{fill:#2A66F7;}
	.st79{fill:#5986FF;}
	.st80{fill:#29479C;}
	.st81{fill:#EA986C;}
	.st82{fill:#E69F35;}
	.st83{fill:#D47D62;}
	.st84{fill:#3C61C7;}
	.st85{fill:#363656;}
	.st86{fill:#EDF4FF;}
	.st87{fill:url(#SVGID_5_);}
	.st88{fill:#ABCFFF;}
	.st89{fill:url(#SVGID_6_);}
	.st90{fill:none;stroke:#FFFFFF;stroke-width:2.5103;stroke-miterlimit:10;}
	.st91{fill:none;stroke:#FFFFFF;stroke-width:2.6407;stroke-miterlimit:10;}
	.st92{fill:none;stroke:#FFFFFF;stroke-width:2.5677;stroke-miterlimit:10;}
	.st93{fill:#A8ACBA;}
	.st94{fill:none;stroke:#FFFFFF;stroke-width:2.9223;stroke-linecap:round;stroke-linejoin:round;stroke-miterlimit:10;}
	.st95{fill:none;stroke:#FFFFFF;stroke-width:2.9311;stroke-linecap:round;stroke-linejoin:round;stroke-miterlimit:10;}
	.st96{fill:#ED5353;}
	.st97{fill:none;stroke:#27427A;stroke-width:5.3333;stroke-linecap:round;stroke-linejoin:round;stroke-miterlimit:10;}
</style>
<g>
	<g>
		<path class="st2" d="M25.94,122.84c-5.11-5.65-7.67-13.23-7.67-22.74V50.71c0-9.96,2.49-17.78,7.47-23.48
			c4.98-5.7,12.4-8.54,22.27-8.54c9.87,0,17.27,2.85,22.2,8.54c4.93,5.7,7.4,13.52,7.4,23.48v49.38c0,9.42-2.58,16.98-7.74,22.67
			c-5.16,5.7-12.45,8.54-21.87,8.54C38.41,131.31,31.05,128.49,25.94,122.84z M53.46,107.76c0.85-2.33,1.28-5.07,1.28-8.21V51.25
			c0-3.59-0.38-6.57-1.14-8.95c-0.76-2.38-2.62-3.57-5.58-3.57s-4.82,1.17-5.58,3.5c-0.76,2.33-1.14,5.34-1.14,9.02v48.31
			c0,7.8,2.24,11.71,6.73,11.71C50.79,111.26,52.6,110.1,53.46,107.76z"/>
		<path class="st2" d="M96.98,122.43c-4.57-5.92-6.86-14.35-6.86-25.3v-3.9h22.47v3.9c0,5.56,0.56,9.49,1.68,11.77
			c1.12,2.29,3.21,3.43,6.26,3.43c2.87,0,4.8-1.12,5.79-3.36c0.99-2.24,1.48-5.96,1.48-11.17c0-5.74-0.81-9.93-2.42-12.58
			c-1.61-2.64-4.62-4.01-9.02-4.1h-4.17V65.65h3.63c4.57,0,7.71-1.23,9.42-3.7c1.7-2.47,2.56-6.57,2.56-12.31
			c0-4.39-0.58-7.67-1.75-9.82c-1.17-2.15-3.23-3.23-6.19-3.23c-2.78,0-4.69,1.14-5.72,3.43c-1.03,2.29-1.55,5.63-1.55,10.02v5.65
			H90.12V49.1c0-9.78,2.62-17.29,7.87-22.54c5.25-5.25,12.53-7.87,21.87-7.87c9.51,0,16.91,2.51,22.2,7.54
			c5.29,5.03,7.94,12.33,7.94,21.93c0,6.19-1.26,11.46-3.77,15.81c-2.51,4.35-5.7,7.06-9.55,8.14c4.13,1.53,7.38,4.26,9.76,8.21
			c2.38,3.95,3.57,9.6,3.57,16.95c0,10.59-2.38,18.91-7.13,24.96c-4.76,6.05-12.33,9.08-22.74,9.08
			C109.27,131.31,101.56,128.35,96.98,122.43z"/>
	</g>
	<g>
		<path class="st1" d="M2.74,93.77C1.14,91.9,0.22,89.31,0,86.01l3.22-0.96c0.29,2.76,0.9,4.87,1.85,6.34
			c0.94,1.47,2.51,2.21,4.69,2.21c3.65,0,5.48-1.87,5.48-5.62c0-1.6-0.38-3.01-1.13-4.23c-0.75-1.22-1.96-2.61-3.63-4.18L3.6,72.99
			c-1.25-1.15-2.16-2.36-2.72-3.63c-0.56-1.27-0.84-2.67-0.84-4.2c0-2.66,0.79-4.72,2.38-6.17c1.59-1.46,3.72-2.19,6.42-2.19
			c2.88,0,5.09,0.77,6.63,2.31c1.54,1.54,2.43,4.05,2.69,7.54l-3.12,0.82c-0.19-2.63-0.75-4.58-1.66-5.86
			c-0.91-1.28-2.43-1.92-4.54-1.92c-1.67,0-3,0.43-3.99,1.3c-0.99,0.86-1.49,2.15-1.49,3.84c0,1.09,0.21,2.07,0.63,2.93
			c0.42,0.87,1.12,1.78,2.11,2.74l6.87,6.49c1.76,1.67,3.15,3.37,4.16,5.12c1.01,1.75,1.51,3.63,1.51,5.65c0,2.82-0.82,5-2.45,6.54
			c-1.63,1.54-3.8,2.31-6.49,2.31C6.66,96.58,4.34,95.64,2.74,93.77z"/>
		<path class="st1" d="M31.96,60.01H24.6v-2.84h18.16v2.84h-7.16V96.1h-3.65V60.01z"/>
		<path class="st1" d="M50.6,57.18h14.08v2.84H54.3v14.61h8.46v2.69H54.3v16.05h10.48v2.74H50.6V57.18z"/>
		<path class="st1" d="M73.38,57.18h9.32c3.3,0,5.66,0.9,7.09,2.69c1.42,1.79,2.14,4.34,2.14,7.64c0,3.01-0.74,5.46-2.23,7.35
			c-1.49,1.89-3.8,2.83-6.94,2.83h-5.72V96.1h-3.65V57.18z M81.69,74.96c2.4,0,4.11-0.55,5.12-1.66c1.01-1.11,1.51-3.04,1.51-5.79
			c0-2.02-0.19-3.56-0.58-4.64c-0.38-1.07-1.04-1.83-1.97-2.28c-0.93-0.45-2.28-0.67-4.04-0.67h-4.71v15.04H81.69z"/>
	</g>
</g>
</svg>
