<?xml version="1.0" encoding="utf-8"?>
<!-- Generator: Adobe Illustrator 25.3.1, SVG Export Plug-In . SVG Version: 6.00 Build 0)  -->
<svg version="1.1" id="Layer_1" xmlns="http://www.w3.org/2000/svg" xmlns:xlink="http://www.w3.org/1999/xlink" x="0px" y="0px"
	 viewBox="0 0 150 150" style="enable-background:new 0 0 150 150;" xml:space="preserve">
<style type="text/css">
	.st0{fill:#F2F5F7;}
	.st1{fill:#212121;}
	.st2{fill:#BCD5C5;}
	.st3{fill:#FFFFFF;}
	.st4{fill:#E9EDF2;}
	.st5{opacity:0.4;fill:#A8C4E5;}
	.st6{fill:#D6E3FF;}
	.st7{fill:#223A6B;}
	.st8{fill:#221473;}
	.st9{fill:#27427A;}
	.st10{fill:#94B7E0;}
	.st11{opacity:0.2;fill:#FFFFFF;}
	.st12{opacity:0.2;fill:#628FC4;}
	.st13{fill:#4D7CF0;}
	.st14{fill:#446DD4;}
	.st15{fill:#97CBFF;}
	.st16{fill:#DB9833;}
	.st17{fill:#F5BC51;}
	.st18{fill:#F7C750;}
	.st19{fill:#C7DCFF;}
	.st20{opacity:0.15;}
	.st21{fill:#F29700;}
	.st22{fill:#FFA208;}
	.st23{fill:#FFAD24;}
	.st24{fill:#FFC31B;}
	.st25{fill:#FFE7A6;}
	.st26{fill:#FF9F00;}
	.st27{fill:#FFDC7D;}
	.st28{fill:#FFF6DB;}
	.st29{fill:#D98800;}
	.st30{fill:url(#SVGID_1_);}
	.st31{fill:url(#SVGID_2_);}
	.st32{fill:url(#SVGID_3_);}
	.st33{fill:#5CA7FF;}
	.st34{fill:#BAD0FF;}
	.st35{fill:#E6EEFF;}
	.st36{fill:#F1F5FE;}
	.st37{fill:#BEDBFA;}
	.st38{fill:#BF6B6B;}
	.st39{fill:#EA8A6C;}
	.st40{fill:#6F7996;}
	.st41{fill:#628FC4;}
	.st42{fill:#A64C4B;}
	.st43{fill:#FFB49E;}
	.st44{fill:#FFC2B0;}
	.st45{fill:#F5D6CE;}
	.st46{fill:#4F94E3;}
	.st47{fill:#DFEAF4;}
	.st48{fill:#F5A086;}
	.st49{fill:#C9DFF2;}
	.st50{fill:#A8C8E3;}
	.st51{fill:#95C1F5;}
	.st52{fill:#2F4C9C;}
	.st53{fill:#B25D5D;}
	.st54{fill:#5A97DB;}
	.st55{fill:#A3BDFF;}
	.st56{fill:#2C4482;}
	.st57{fill:#FFCCBD;}
	.st58{fill:#B3D1F5;}
	.st59{fill:#7090E0;}
	.st60{fill:#213696;}
	.st61{fill:#1B3A91;}
	.st62{fill:#163078;}
	.st63{fill:url(#SVGID_4_);}
	.st64{fill:#EBF5FF;}
	.st65{fill:#F5FAFF;}
	.st66{fill:#CEDBED;}
	.st67{fill:#B3CCF2;}
	.st68{fill:#CFE5FF;}
	.st69{fill:#3E68DE;}
	.st70{fill:#D9E8FF;}
	.st71{fill:#96B5EB;}
	.st72{fill:#353559;}
	.st73{opacity:0.71;fill:#FFFFFF;}
	.st74{fill:#C2E0FF;}
	.st75{opacity:0.47;fill:#BADDFF;}
	.st76{fill:#BADDFF;}
	.st77{opacity:0.61;fill:#FFFFFF;}
	.st78{fill:#2A66F7;}
	.st79{fill:#5986FF;}
	.st80{fill:#29479C;}
	.st81{fill:#EA986C;}
	.st82{fill:#E69F35;}
	.st83{fill:#D47D62;}
	.st84{fill:#3C61C7;}
	.st85{fill:#363656;}
	.st86{fill:#EDF4FF;}
	.st87{fill:url(#SVGID_5_);}
	.st88{fill:#ABCFFF;}
	.st89{fill:url(#SVGID_6_);}
	.st90{fill:none;stroke:#FFFFFF;stroke-width:2.5103;stroke-miterlimit:10;}
	.st91{fill:none;stroke:#FFFFFF;stroke-width:2.6407;stroke-miterlimit:10;}
	.st92{fill:none;stroke:#FFFFFF;stroke-width:2.5677;stroke-miterlimit:10;}
	.st93{fill:#A8ACBA;}
	.st94{fill:none;stroke:#FFFFFF;stroke-width:2.9223;stroke-linecap:round;stroke-linejoin:round;stroke-miterlimit:10;}
	.st95{fill:none;stroke:#FFFFFF;stroke-width:2.9311;stroke-linecap:round;stroke-linejoin:round;stroke-miterlimit:10;}
	.st96{fill:#ED5353;}
	.st97{fill:none;stroke:#27427A;stroke-width:5.3333;stroke-linecap:round;stroke-linejoin:round;stroke-miterlimit:10;}
</style>
<g>
	<path class="st5" d="M8.38,104.1c0,0-1.5,0.98-1.5,1.55c0,0.57,0.62,1.13,1.5,1.72c0.88,0.59,37.34,22.51,38.97,22.9
		c1.63,0.39,3.6,0.67,6.01-1.09c2.42-1.77,76.21-44.2,77.41-45.63c1.2-1.43-0.26-2.85-1.52-3.8C128,78.79,8.38,104.1,8.38,104.1z"/>
	<g>
		<path class="st6" d="M123.64,77.64c0.53,0.31,0.54,0.81,0.01,1.11l-71.82,41.73c-0.53,0.31-1.39,0.31-1.92,0L12.25,98.75
			c-0.53-0.31-0.54-0.81-0.01-1.11L84.06,55.9c0.53-0.31,1.39-0.31,1.92,0L123.64,77.64z"/>
	</g>
	<g>
		<g>
			<path class="st7" d="M127.94,78.5l-76.53,44.48c-1.88,1.09-4.93,1.09-6.82,0L7.98,101.84c-0.95-0.55-1.43-1.27-1.42-1.99
				l-0.01,3.36c0,0.72,0.47,1.44,1.42,1.99l36.61,21.14c1.89,1.09,4.94,1.09,6.82,0l76.53-44.48c0.93-0.54,1.4-1.25,1.4-1.96
				l0.01-3.36C129.34,77.25,128.88,77.96,127.94,78.5z"/>
		</g>
	</g>
	<g>
		<path class="st8" d="M108.2,64.52c0.62,0.36,0.62,0.94,0.01,1.29c-0.61,0.36-1.61,0.36-2.23,0c-0.62-0.36-0.62-0.94-0.01-1.29
			C106.58,64.16,107.58,64.16,108.2,64.52z M106.01,65.79c0.6,0.35,1.57,0.35,2.16,0c0.59-0.35,0.59-0.91-0.01-1.25
			c-0.6-0.35-1.57-0.35-2.16,0C105.41,64.88,105.41,65.44,106.01,65.79L106.01,65.79z"/>
	</g>
	<g>
		<g>
			<path class="st9" d="M127.92,74.55c1.89,1.09,1.9,2.86,0.02,3.95l-76.53,44.48c-1.88,1.09-4.93,1.09-6.82,0L7.97,101.84
				c-1.89-1.09-1.9-2.86-0.02-3.95l76.53-44.48c1.88-1.09,4.93-1.09,6.82,0L127.92,74.55z M84.2,101.69l39.45-22.93
				c0.53-0.31,0.53-0.81-0.01-1.12L85.98,55.9c-0.53-0.31-1.39-0.31-1.93,0L12.24,97.64c-0.53,0.31-0.53,0.81,0.01,1.11l37.66,21.74
				c0.53,0.31,1.4,0.31,1.92,0L84.2,101.69L84.2,101.69z M108.2,64.52c-0.62-0.36-1.62-0.36-2.23,0c-0.61,0.36-0.61,0.94,0.01,1.29
				c0.62,0.36,1.62,0.36,2.23,0C108.82,65.45,108.82,64.87,108.2,64.52L108.2,64.52z"/>
		</g>
	</g>
	<g>
		<path class="st10" d="M123.64,76.82L85.98,55.08c-0.53-0.31-1.39-0.31-1.93,0L12.24,96.81c-0.45,0.26-0.51,0.66-0.19,0.97
			c0.05-0.05,0.12-0.1,0.19-0.14L84.06,55.9c0.53-0.31,1.39-0.31,1.93,0l37.66,21.74c0.08,0.05,0.14,0.1,0.2,0.15
			C124.17,77.49,124.1,77.08,123.64,76.82z"/>
		<path class="st10" d="M127.94,77.68l-76.53,44.48c-1.88,1.09-4.93,1.09-6.82,0L7.97,101.02c-0.77-0.44-1.22-1-1.37-1.57
			c-0.22,0.85,0.24,1.74,1.37,2.39l36.61,21.14c1.89,1.09,4.94,1.09,6.82,0l76.53-44.48c1.12-0.65,1.56-1.54,1.35-2.38
			C129.14,76.69,128.69,77.24,127.94,77.68z"/>
	</g>
	<polygon class="st11" points="30.88,115.07 96.93,96.52 124.3,80.62 19.55,108.52 	"/>
	<path class="st11" d="M129.28,76.08c-0.16-0.56-0.61-1.1-1.36-1.53l-1.62-0.94L12.22,100.75l-2.83,1.42
		c-0.15,0.08-0.3,0.16-0.43,0.24l8.22,4.75L129.28,76.08z"/>
	<g>
		<path class="st10" d="M108.16,64.54c0.6,0.35,0.6,0.91,0.01,1.25c-0.59,0.35-1.56,0.35-2.16,0c-0.6-0.35-0.6-0.91-0.01-1.25
			C106.6,64.19,107.57,64.19,108.16,64.54z"/>
	</g>
	<g>
		<path class="st12" d="M86.6,89.88c-0.72,0-1.42-0.17-1.97-0.49l-10.84-6.26c-0.74-0.43-1.16-1.09-1.16-1.82
			c0-0.73,0.42-1.39,1.15-1.81l10.77-6.26c0.54-0.32,1.24-0.49,1.97-0.49c0.72,0,1.42,0.17,1.97,0.49l10.84,6.26
			c0.74,0.43,1.16,1.09,1.16,1.82c0,0.73-0.42,1.39-1.15,1.81l-10.77,6.26C88.03,89.71,87.33,89.88,86.6,89.88z"/>
	</g>
	<g>
		<path class="st13" d="M99.32,30.97l-0.07,50.28c0,0.29-0.19,0.58-0.57,0.79l0.07-50.28C99.13,31.54,99.32,31.26,99.32,30.97z"/>
	</g>
	<g>
		<path class="st14" d="M73.73,81.24l0.07-50.28c0,0.29,0.19,0.58,0.58,0.81l-0.07,50.28C73.93,81.82,73.73,81.53,73.73,81.24z"/>
	</g>
	<g>
		<polygon class="st13" points="98.75,31.76 98.68,82.05 87.91,88.3 87.98,38.02 		"/>
	</g>
	<g>
		<polygon class="st14" points="85.22,38.02 85.15,88.3 74.31,82.05 74.38,31.76 		"/>
	</g>
	<g>
		<path class="st15" d="M98.74,30.16c0.77,0.44,0.77,1.16,0.01,1.6l-10.77,6.26c-0.76,0.44-2,0.44-2.76,0l-10.84-6.26
			c-0.77-0.44-0.77-1.16-0.01-1.6l10.77-6.26c0.76-0.44,2-0.44,2.76,0L98.74,30.16z"/>
	</g>
	<path class="st15" d="M98.75,31.18l-10.77,6.26c-0.76,0.44-2,0.44-2.76,0l-10.84-6.26c-0.25-0.15-0.42-0.32-0.51-0.51
		c-0.18,0.38-0.01,0.8,0.51,1.1l10.84,6.26c0.77,0.44,2,0.44,2.76,0l10.77-6.26c0.51-0.3,0.67-0.71,0.5-1.09
		C99.16,30.86,99,31.03,98.75,31.18z"/>
	<g>
		<path class="st14" d="M87.98,38.02L87.91,88.3c-0.76,0.44-2,0.44-2.76,0l0.07-50.28C85.98,38.46,87.22,38.46,87.98,38.02z"/>
	</g>
	<g>
		<path class="st12" d="M70.5,99.14c-0.72,0-1.42-0.17-1.97-0.49L57.7,92.39c-0.74-0.43-1.16-1.09-1.16-1.82
			c0-0.73,0.42-1.39,1.15-1.81l10.77-6.26c0.54-0.32,1.24-0.49,1.97-0.49c0.72,0,1.42,0.17,1.97,0.49l10.84,6.26
			c0.74,0.43,1.16,1.09,1.16,1.82c0,0.73-0.42,1.39-1.15,1.81l-10.77,6.26C71.93,98.97,71.23,99.14,70.5,99.14z"/>
	</g>
	<g>
		<path class="st16" d="M83.22,53.91l-0.07,36.6c0,0.29-0.19,0.58-0.57,0.79l0.07-36.6C83.03,54.48,83.22,54.2,83.22,53.91z"/>
	</g>
	<g>
		<path class="st17" d="M57.64,90.5l0.07-36.6c0,0.29,0.19,0.58,0.58,0.81l-0.07,36.6C57.83,91.08,57.64,90.79,57.64,90.5z"/>
	</g>
	<g>
		<polygon class="st16" points="82.65,54.7 82.58,91.3 71.82,97.56 71.88,60.96 		"/>
	</g>
	<g>
		<polygon class="st17" points="69.12,60.96 69.05,97.56 58.21,91.3 58.28,54.7 		"/>
	</g>
	<g>
		<path class="st18" d="M82.64,53.1c0.77,0.44,0.77,1.16,0.01,1.6l-10.77,6.26c-0.76,0.44-2,0.44-2.76,0L58.28,54.7
			c-0.77-0.44-0.77-1.16-0.01-1.6l10.77-6.26c0.76-0.44,2-0.44,2.76,0L82.64,53.1z"/>
	</g>
	<g>
		<path class="st17" d="M71.88,60.96l-0.07,36.6c-0.76,0.44-2,0.44-2.76,0l0.07-36.6C69.89,61.4,71.12,61.4,71.88,60.96z"/>
	</g>
	<g>
		<path class="st12" d="M54.78,108.38c-0.72,0-1.42-0.17-1.97-0.49l-10.84-6.26c-0.74-0.43-1.16-1.09-1.16-1.82
			c0-0.73,0.42-1.39,1.15-1.81l10.77-6.26c0.54-0.32,1.24-0.49,1.97-0.49c0.72,0,1.42,0.17,1.97,0.49l10.84,6.26
			c0.74,0.43,1.16,1.09,1.16,1.82c0,0.73-0.42,1.39-1.15,1.81l-10.77,6.26C56.21,108.21,55.51,108.38,54.78,108.38z"/>
	</g>
	<g>
		<path class="st15" d="M67.5,75.86l-0.07,23.9c0,0.29-0.19,0.58-0.57,0.79l0.07-23.9C67.31,76.43,67.5,76.14,67.5,75.86z"/>
	</g>
	<g>
		<path class="st3" d="M41.91,99.74l0.07-23.9c0,0.29,0.19,0.58,0.58,0.81l-0.07,23.9C42.1,100.33,41.91,100.03,41.91,99.74z"/>
	</g>
	<g>
		<g>
			<polygon class="st15" points="66.93,76.65 66.86,100.55 56.09,106.81 56.16,82.91 			"/>
		</g>
	</g>
	<g>
		<polygon class="st3" points="53.4,82.91 53.33,106.81 42.49,100.55 42.56,76.65 		"/>
	</g>
	<g>
		<path class="st19" d="M66.92,75.05c0.77,0.44,0.77,1.16,0.01,1.6l-10.77,6.26c-0.76,0.44-2,0.44-2.76,0l-10.84-6.26
			c-0.77-0.44-0.77-1.16-0.01-1.6l10.77-6.26c0.76-0.44,2-0.44,2.76,0L66.92,75.05z"/>
	</g>
	<g>
		<path class="st3" d="M56.16,82.91l-0.07,23.9c-0.76,0.44-2,0.44-2.76,0l0.07-23.9C54.16,83.35,55.4,83.35,56.16,82.91z"/>
	</g>
	<g>
		<path class="st20" d="M55.17,128.22c-1.85,0.95-3.15,1.82-2.2,2.54c0.95,0.72,3.37,0.1,4.51-0.8c1.14-0.9,1.65-1.53,0.69-1.85
			C57.2,127.78,56.18,127.7,55.17,128.22z"/>
		<path class="st20" d="M43.22,133c0,0-1.52,0.28-1.01,1.42c0.52,1.14,2.33,3.3,6.3,3.27c3.97-0.02,6.33-2.45,6.34-3.45
			c0-1-1.38-1.21-1.38-1.21L43.22,133z"/>
		<path class="st20" d="M33.88,129.62c0,0-1.52,0.28-1.01,1.42c0.52,1.14,2.33,3.3,6.3,3.27s6.33-2.45,6.34-3.45
			c0-1-1.38-1.21-1.38-1.21L33.88,129.62z"/>
		<g>
			<g>
				<g>
					<path class="st21" d="M43.03,126.11c-1.12-0.65-1.69-1.5-1.68-2.35l0,1.33c0,0.85,0.56,1.7,1.68,2.35
						c0.02,0.01,0.04,0.02,0.07,0.04c0-0.44,0-0.89,0-1.33C43.07,126.13,43.05,126.12,43.03,126.11z"/>
					<path class="st22" d="M43.91,126.53c-0.29-0.11-0.56-0.24-0.82-0.38c0,0.44,0,0.89,0,1.33c0.25,0.14,0.52,0.27,0.81,0.38
						C43.89,127.41,43.91,126.97,43.91,126.53z"/>
					<path class="st23" d="M43.91,126.53c0,0.44-0.02,0.89-0.01,1.33c1.81,0.7,4.15,0.74,6.01,0.11c0-0.44,0-0.88,0-1.33
						C48.05,127.26,45.71,127.22,43.91,126.53z"/>
					<path class="st22" d="M51.14,126.08c-0.02,0.01-0.03,0.02-0.05,0.03c-0.36,0.21-0.76,0.39-1.19,0.53c0,0.45,0,0.89,0,1.33
						c0.42-0.14,0.82-0.32,1.18-0.53c0.03-0.02,0.05-0.03,0.08-0.05C51.14,126.95,51.13,126.52,51.14,126.08z"/>
					<path class="st21" d="M51.14,126.08c0,0.44,0,0.87,0.03,1.31c1.05-0.63,1.58-1.45,1.58-2.27l0-1.33
						C52.74,124.62,52.21,125.44,51.14,126.08z"/>
				</g>
				<g>
					<path class="st24" d="M51.06,121.44c2.23,1.29,2.25,3.38,0.03,4.67c-2.22,1.29-5.83,1.29-8.06,0
						c-2.23-1.29-2.25-3.38-0.03-4.67C45.22,120.15,48.83,120.15,51.06,121.44z"/>
				</g>
				<path class="st25" d="M43,121.77c2.22-1.29,5.83-1.29,8.06,0c1.05,0.61,1.61,1.39,1.68,2.18c0.08-0.9-0.48-1.82-1.68-2.51
					c-2.23-1.29-5.84-1.29-8.06,0c-1.18,0.68-1.73,1.59-1.65,2.49C41.41,123.14,41.96,122.37,43,121.77z"/>
				<path class="st26" d="M51.09,125.82c-2.22,1.29-5.83,1.29-8.06,0c-1.06-0.61-1.62-1.4-1.68-2.2c-0.07,0.9,0.49,1.81,1.68,2.49
					c2.23,1.29,5.84,1.29,8.06,0c1.17-0.68,1.72-1.58,1.65-2.47C52.68,124.43,52.13,125.21,51.09,125.82z"/>
				<g>
					<path class="st23" d="M50.14,121.89c1.72,0.99,1.73,2.6,0.02,3.6c-1.71,0.99-4.49,0.99-6.21,0c-1.72-0.99-1.73-2.6-0.02-3.6
						C45.64,120.89,48.42,120.89,50.14,121.89z"/>
				</g>
				<path class="st26" d="M43.93,122.21c1.71-0.99,4.49-0.99,6.21,0c0.79,0.46,1.22,1.05,1.29,1.64c0.08-0.71-0.35-1.43-1.29-1.97
					c-1.72-0.99-4.5-0.99-6.21,0c-0.92,0.54-1.34,1.25-1.27,1.95C42.73,123.25,43.15,122.67,43.93,122.21z"/>
			</g>
			<g>
				<g>
					<path class="st21" d="M43.03,124.13c-1.12-0.65-1.69-1.5-1.68-2.35l0,1.33c0,0.85,0.56,1.7,1.68,2.35
						c0.02,0.01,0.04,0.02,0.07,0.04c0-0.44,0-0.89,0-1.33C43.07,124.15,43.05,124.14,43.03,124.13z"/>
					<path class="st22" d="M43.91,124.54c-0.29-0.11-0.56-0.24-0.82-0.38c0,0.44,0,0.89,0,1.33c0.25,0.14,0.52,0.27,0.81,0.38
						C43.89,125.43,43.91,124.99,43.91,124.54z"/>
					<path class="st23" d="M43.91,124.54c0,0.44-0.02,0.89-0.01,1.33c1.81,0.7,4.15,0.74,6.01,0.11c0-0.44,0-0.88,0-1.33
						C48.05,125.27,45.71,125.24,43.91,124.54z"/>
					<path class="st22" d="M51.14,124.1c-0.02,0.01-0.03,0.02-0.05,0.03c-0.36,0.21-0.76,0.39-1.19,0.53c0,0.45,0,0.89,0,1.33
						c0.42-0.14,0.82-0.32,1.18-0.53c0.03-0.02,0.05-0.03,0.08-0.05C51.14,124.97,51.13,124.54,51.14,124.1z"/>
					<path class="st21" d="M51.14,124.1c0,0.44,0,0.87,0.03,1.31c1.05-0.63,1.58-1.45,1.58-2.27l0-1.33
						C52.74,122.63,52.21,123.46,51.14,124.1z"/>
				</g>
				<g>
					<path class="st24" d="M51.06,119.46c2.23,1.29,2.25,3.38,0.03,4.67c-2.22,1.29-5.83,1.29-8.06,0
						c-2.23-1.29-2.25-3.38-0.03-4.67C45.22,118.17,48.83,118.17,51.06,119.46z"/>
				</g>
				<path class="st25" d="M43,119.78c2.22-1.29,5.83-1.29,8.06,0c1.05,0.61,1.61,1.39,1.68,2.18c0.08-0.9-0.48-1.82-1.68-2.51
					c-2.23-1.29-5.84-1.29-8.06,0c-1.18,0.68-1.73,1.59-1.65,2.49C41.41,121.16,41.96,120.38,43,119.78z"/>
				<path class="st26" d="M51.09,123.83c-2.22,1.29-5.83,1.29-8.06,0c-1.06-0.61-1.62-1.4-1.68-2.2c-0.07,0.9,0.49,1.81,1.68,2.49
					c2.23,1.29,5.84,1.29,8.06,0c1.17-0.68,1.72-1.58,1.65-2.47C52.68,122.45,52.13,123.23,51.09,123.83z"/>
				<g>
					<path class="st23" d="M50.14,119.9c1.72,0.99,1.73,2.6,0.02,3.6c-1.71,0.99-4.49,0.99-6.21,0c-1.72-0.99-1.73-2.6-0.02-3.6
						C45.64,118.91,48.42,118.91,50.14,119.9z"/>
				</g>
				<path class="st26" d="M43.93,120.23c1.71-0.99,4.49-0.99,6.21,0c0.79,0.46,1.22,1.05,1.29,1.64c0.08-0.71-0.35-1.43-1.29-1.97
					c-1.72-0.99-4.5-0.99-6.21,0c-0.92,0.54-1.34,1.25-1.27,1.95C42.73,121.26,43.15,120.68,43.93,120.23z"/>
			</g>
			<g>
				<g>
					<path class="st21" d="M43.03,122.11c-1.12-0.65-1.69-1.5-1.68-2.35l0,1.33c0,0.85,0.56,1.7,1.68,2.35
						c0.02,0.01,0.04,0.02,0.07,0.04c0-0.44,0-0.89,0-1.33C43.07,122.13,43.05,122.12,43.03,122.11z"/>
					<path class="st22" d="M43.91,122.53c-0.29-0.11-0.56-0.24-0.82-0.38c0,0.44,0,0.89,0,1.33c0.25,0.14,0.52,0.27,0.81,0.38
						C43.89,123.41,43.91,122.97,43.91,122.53z"/>
					<path class="st23" d="M43.91,122.53c0,0.44-0.02,0.89-0.01,1.33c1.81,0.7,4.15,0.74,6.01,0.11c0-0.44,0-0.88,0-1.33
						C48.05,123.26,45.71,123.22,43.91,122.53z"/>
					<path class="st22" d="M51.14,122.08c-0.02,0.01-0.03,0.02-0.05,0.03c-0.36,0.21-0.76,0.39-1.19,0.53c0,0.45,0,0.89,0,1.33
						c0.42-0.14,0.82-0.32,1.18-0.53c0.03-0.02,0.05-0.03,0.08-0.05C51.14,122.95,51.13,122.52,51.14,122.08z"/>
					<path class="st21" d="M51.14,122.08c0,0.44,0,0.87,0.03,1.31c1.05-0.63,1.58-1.45,1.58-2.27l0-1.33
						C52.74,120.62,52.21,121.44,51.14,122.08z"/>
				</g>
				<g>
					<path class="st24" d="M51.06,117.44c2.23,1.29,2.25,3.38,0.03,4.67c-2.22,1.29-5.83,1.29-8.06,0
						c-2.23-1.29-2.25-3.38-0.03-4.67C45.22,116.15,48.83,116.15,51.06,117.44z"/>
				</g>
				<path class="st25" d="M43,117.77c2.22-1.29,5.83-1.29,8.06,0c1.05,0.61,1.61,1.39,1.68,2.18c0.08-0.9-0.48-1.82-1.68-2.51
					c-2.23-1.29-5.84-1.29-8.06,0c-1.18,0.68-1.73,1.59-1.65,2.49C41.41,119.14,41.96,118.37,43,117.77z"/>
				<path class="st26" d="M51.09,121.82c-2.22,1.29-5.83,1.29-8.06,0c-1.06-0.61-1.62-1.4-1.68-2.2c-0.07,0.9,0.49,1.81,1.68,2.49
					c2.23,1.29,5.84,1.29,8.06,0c1.17-0.68,1.72-1.58,1.65-2.47C52.68,120.43,52.13,121.21,51.09,121.82z"/>
				<g>
					<path class="st23" d="M50.14,117.89c1.72,0.99,1.73,2.6,0.02,3.6c-1.71,0.99-4.49,0.99-6.21,0c-1.72-0.99-1.73-2.6-0.02-3.6
						C45.64,116.89,48.42,116.89,50.14,117.89z"/>
				</g>
				<path class="st26" d="M43.93,118.21c1.71-0.99,4.49-0.99,6.21,0c0.79,0.46,1.22,1.05,1.29,1.64c0.08-0.71-0.35-1.43-1.29-1.97
					c-1.72-0.99-4.5-0.99-6.21,0c-0.92,0.54-1.34,1.25-1.27,1.95C42.73,119.25,43.15,118.67,43.93,118.21z"/>
			</g>
			<g>
				<g>
					<path class="st21" d="M43.03,120.13c-1.12-0.65-1.69-1.5-1.68-2.35l0,1.33c0,0.85,0.56,1.7,1.68,2.35
						c0.02,0.01,0.04,0.02,0.07,0.04c0-0.44,0-0.89,0-1.33C43.07,120.15,43.05,120.14,43.03,120.13z"/>
					<path class="st22" d="M43.91,120.54c-0.29-0.11-0.56-0.24-0.82-0.38c0,0.44,0,0.89,0,1.33c0.25,0.14,0.52,0.27,0.81,0.38
						C43.89,121.43,43.91,120.99,43.91,120.54z"/>
					<path class="st23" d="M43.91,120.54c0,0.44-0.02,0.89-0.01,1.33c1.81,0.7,4.15,0.74,6.01,0.11c0-0.44,0-0.88,0-1.33
						C48.05,121.27,45.71,121.24,43.91,120.54z"/>
					<path class="st22" d="M51.14,120.1c-0.02,0.01-0.03,0.02-0.05,0.03c-0.36,0.21-0.76,0.39-1.19,0.53c0,0.45,0,0.89,0,1.33
						c0.42-0.14,0.82-0.32,1.18-0.53c0.03-0.02,0.05-0.03,0.08-0.05C51.14,120.97,51.13,120.54,51.14,120.1z"/>
					<path class="st21" d="M51.14,120.1c0,0.44,0,0.87,0.03,1.31c1.05-0.63,1.58-1.45,1.58-2.27l0-1.33
						C52.74,118.63,52.21,119.46,51.14,120.1z"/>
				</g>
				<g>
					<path class="st24" d="M51.06,115.46c2.23,1.29,2.25,3.38,0.03,4.67c-2.22,1.29-5.83,1.29-8.06,0
						c-2.23-1.29-2.25-3.38-0.03-4.67C45.22,114.17,48.83,114.17,51.06,115.46z"/>
				</g>
				<path class="st25" d="M43,115.78c2.22-1.29,5.83-1.29,8.06,0c1.05,0.61,1.61,1.39,1.68,2.18c0.08-0.9-0.48-1.82-1.68-2.51
					c-2.23-1.29-5.84-1.29-8.06,0c-1.18,0.68-1.73,1.59-1.65,2.49C41.41,117.16,41.96,116.38,43,115.78z"/>
				<path class="st26" d="M51.09,119.83c-2.22,1.29-5.83,1.29-8.06,0c-1.06-0.61-1.62-1.4-1.68-2.2c-0.07,0.9,0.49,1.81,1.68,2.49
					c2.23,1.29,5.84,1.29,8.06,0c1.17-0.68,1.72-1.58,1.65-2.47C52.68,118.45,52.13,119.23,51.09,119.83z"/>
				<g>
					<path class="st23" d="M50.14,115.9c1.72,0.99,1.73,2.6,0.02,3.6c-1.71,0.99-4.49,0.99-6.21,0c-1.72-0.99-1.73-2.6-0.02-3.6
						C45.64,114.91,48.42,114.91,50.14,115.9z"/>
				</g>
				<path class="st26" d="M43.93,116.23c1.71-0.99,4.49-0.99,6.21,0c0.79,0.46,1.22,1.05,1.29,1.64c0.08-0.71-0.35-1.43-1.29-1.97
					c-1.72-0.99-4.5-0.99-6.21,0c-0.92,0.54-1.34,1.25-1.27,1.95C42.73,117.26,43.15,116.68,43.93,116.23z"/>
			</g>
			<g>
				<g>
					<path class="st21" d="M43.03,118.27c-1.12-0.65-1.69-1.5-1.68-2.35l0,1.33c0,0.85,0.56,1.7,1.68,2.35
						c0.02,0.01,0.04,0.02,0.07,0.04c0-0.44,0-0.89,0-1.33C43.07,118.3,43.05,118.28,43.03,118.27z"/>
					<path class="st22" d="M43.91,118.69c-0.29-0.11-0.56-0.24-0.82-0.38c0,0.44,0,0.89,0,1.33c0.25,0.14,0.52,0.27,0.81,0.38
						C43.89,119.57,43.91,119.13,43.91,118.69z"/>
					<path class="st23" d="M43.91,118.69c0,0.44-0.02,0.89-0.01,1.33c1.81,0.7,4.15,0.74,6.01,0.11c0-0.44,0-0.88,0-1.33
						C48.05,119.42,45.71,119.38,43.91,118.69z"/>
					<path class="st22" d="M51.14,118.24c-0.02,0.01-0.03,0.02-0.05,0.03c-0.36,0.21-0.76,0.39-1.19,0.53c0,0.45,0,0.89,0,1.33
						c0.42-0.14,0.82-0.32,1.18-0.53c0.03-0.02,0.05-0.03,0.08-0.05C51.14,119.12,51.13,118.68,51.14,118.24z"/>
					<path class="st21" d="M51.14,118.24c0,0.44,0,0.87,0.03,1.31c1.05-0.63,1.58-1.45,1.58-2.27l0-1.33
						C52.74,116.78,52.21,117.61,51.14,118.24z"/>
				</g>
				<g>
					<path class="st24" d="M51.06,113.6c2.23,1.29,2.25,3.38,0.03,4.67c-2.22,1.29-5.83,1.29-8.06,0c-2.23-1.29-2.25-3.38-0.03-4.67
						C45.22,112.31,48.83,112.31,51.06,113.6z"/>
				</g>
				<path class="st25" d="M43,113.93c2.22-1.29,5.83-1.29,8.06,0c1.05,0.61,1.61,1.39,1.68,2.18c0.08-0.9-0.48-1.82-1.68-2.51
					c-2.23-1.29-5.84-1.29-8.06,0c-1.18,0.68-1.73,1.59-1.65,2.49C41.41,115.3,41.96,114.53,43,113.93z"/>
				<path class="st26" d="M51.09,117.98c-2.22,1.29-5.83,1.29-8.06,0c-1.06-0.61-1.62-1.4-1.68-2.2c-0.07,0.9,0.49,1.81,1.68,2.49
					c2.23,1.29,5.84,1.29,8.06,0c1.17-0.68,1.72-1.58,1.65-2.47C52.68,116.59,52.13,117.37,51.09,117.98z"/>
				<g>
					<path class="st23" d="M50.14,114.05c1.72,0.99,1.73,2.6,0.02,3.6c-1.71,0.99-4.49,0.99-6.21,0c-1.72-0.99-1.73-2.6-0.02-3.6
						C45.64,113.06,48.42,113.06,50.14,114.05z"/>
				</g>
				<path class="st26" d="M43.93,114.37c1.71-0.99,4.49-0.99,6.21,0c0.79,0.46,1.22,1.05,1.29,1.64c0.08-0.71-0.35-1.43-1.29-1.97
					c-1.72-0.99-4.5-0.99-6.21,0c-0.92,0.54-1.34,1.25-1.27,1.95C42.73,115.41,43.15,114.83,43.93,114.37z"/>
			</g>
			<g>
				<g>
					<path class="st21" d="M43.03,116.29c-1.12-0.65-1.69-1.5-1.68-2.35l0,1.33c0,0.85,0.56,1.7,1.68,2.35
						c0.02,0.01,0.04,0.02,0.07,0.04c0-0.44,0-0.89,0-1.33C43.07,116.31,43.05,116.3,43.03,116.29z"/>
					<path class="st22" d="M43.91,116.7c-0.29-0.11-0.56-0.24-0.82-0.38c0,0.44,0,0.89,0,1.33c0.25,0.14,0.52,0.27,0.81,0.38
						C43.89,117.59,43.91,117.15,43.91,116.7z"/>
					<path class="st23" d="M43.91,116.7c0,0.44-0.02,0.89-0.01,1.33c1.81,0.7,4.15,0.74,6.01,0.11c0-0.44,0-0.88,0-1.33
						C48.05,117.44,45.71,117.4,43.91,116.7z"/>
					<path class="st22" d="M51.14,116.26c-0.02,0.01-0.03,0.02-0.05,0.03c-0.36,0.21-0.76,0.39-1.19,0.53c0,0.45,0,0.89,0,1.33
						c0.42-0.14,0.82-0.32,1.18-0.53c0.03-0.02,0.05-0.03,0.08-0.05C51.14,117.13,51.13,116.7,51.14,116.26z"/>
					<path class="st21" d="M51.14,116.26c0,0.44,0,0.87,0.03,1.31c1.05-0.63,1.58-1.45,1.58-2.27l0-1.33
						C52.74,114.8,52.21,115.62,51.14,116.26z"/>
				</g>
				<g>
					<path class="st24" d="M51.06,111.62c2.23,1.29,2.25,3.38,0.03,4.67c-2.22,1.29-5.83,1.29-8.06,0
						c-2.23-1.29-2.25-3.38-0.03-4.67C45.22,110.33,48.83,110.33,51.06,111.62z"/>
				</g>
				<path class="st25" d="M43,111.94c2.22-1.29,5.83-1.29,8.06,0c1.05,0.61,1.61,1.39,1.68,2.18c0.08-0.9-0.48-1.82-1.68-2.51
					c-2.23-1.29-5.84-1.29-8.06,0c-1.18,0.68-1.73,1.59-1.65,2.49C41.41,113.32,41.96,112.54,43,111.94z"/>
				<path class="st26" d="M51.09,115.99c-2.22,1.29-5.83,1.29-8.06,0c-1.06-0.61-1.62-1.4-1.68-2.2c-0.07,0.9,0.49,1.81,1.68,2.49
					c2.23,1.29,5.84,1.29,8.06,0c1.17-0.68,1.72-1.58,1.65-2.47C52.68,114.61,52.13,115.39,51.09,115.99z"/>
				<g>
					<path class="st23" d="M50.14,112.06c1.72,0.99,1.73,2.6,0.02,3.6c-1.71,0.99-4.49,0.99-6.21,0c-1.72-0.99-1.73-2.6-0.02-3.6
						C45.64,111.07,48.42,111.07,50.14,112.06z"/>
				</g>
				<path class="st26" d="M43.93,112.39c1.71-0.99,4.49-0.99,6.21,0c0.79,0.46,1.22,1.05,1.29,1.64c0.08-0.71-0.35-1.43-1.29-1.97
					c-1.72-0.99-4.5-0.99-6.21,0c-0.92,0.54-1.34,1.25-1.27,1.95C42.73,113.42,43.15,112.84,43.93,112.39z"/>
			</g>
			<g>
				<g>
					<path class="st21" d="M43.03,114.37c-1.12-0.65-1.69-1.5-1.68-2.35l0,1.33c0,0.85,0.56,1.7,1.68,2.35
						c0.02,0.01,0.04,0.02,0.07,0.04c0-0.44,0-0.89,0-1.33C43.07,114.4,43.05,114.38,43.03,114.37z"/>
					<path class="st22" d="M43.91,114.79c-0.29-0.11-0.56-0.24-0.82-0.38c0,0.44,0,0.89,0,1.33c0.25,0.14,0.52,0.27,0.81,0.38
						C43.89,115.68,43.91,115.23,43.91,114.79z"/>
					<path class="st23" d="M43.91,114.79c0,0.44-0.02,0.89-0.01,1.33c1.81,0.7,4.15,0.74,6.01,0.11c0-0.44,0-0.88,0-1.33
						C48.05,115.52,45.71,115.48,43.91,114.79z"/>
					<path class="st22" d="M51.14,114.34c-0.02,0.01-0.03,0.02-0.05,0.03c-0.36,0.21-0.76,0.39-1.19,0.53c0,0.45,0,0.89,0,1.33
						c0.42-0.14,0.82-0.32,1.18-0.53c0.03-0.02,0.05-0.03,0.08-0.05C51.14,115.22,51.13,114.78,51.14,114.34z"/>
					<path class="st21" d="M51.14,114.34c0,0.44,0,0.87,0.03,1.31c1.05-0.63,1.58-1.45,1.58-2.27l0-1.33
						C52.74,112.88,52.21,113.71,51.14,114.34z"/>
				</g>
				<g>
					<path class="st24" d="M51.06,109.7c2.23,1.29,2.25,3.38,0.03,4.67c-2.22,1.29-5.83,1.29-8.06,0c-2.23-1.29-2.25-3.38-0.03-4.67
						C45.22,108.41,48.83,108.41,51.06,109.7z"/>
				</g>
				<path class="st25" d="M43,110.03c2.22-1.29,5.83-1.29,8.06,0c1.05,0.61,1.61,1.39,1.68,2.18c0.08-0.9-0.48-1.82-1.68-2.51
					c-2.23-1.29-5.84-1.29-8.06,0c-1.18,0.68-1.73,1.59-1.65,2.49C41.41,111.4,41.96,110.63,43,110.03z"/>
				<path class="st26" d="M51.09,114.08c-2.22,1.29-5.83,1.29-8.06,0c-1.06-0.61-1.62-1.4-1.68-2.2c-0.07,0.9,0.49,1.81,1.68,2.49
					c2.23,1.29,5.84,1.29,8.06,0c1.17-0.68,1.72-1.58,1.65-2.47C52.68,112.69,52.13,113.47,51.09,114.08z"/>
				<g>
					<path class="st23" d="M50.14,110.15c1.72,0.99,1.73,2.6,0.02,3.6c-1.71,0.99-4.49,0.99-6.21,0c-1.72-0.99-1.73-2.6-0.02-3.6
						C45.64,109.16,48.42,109.16,50.14,110.15z"/>
				</g>
				<path class="st26" d="M43.93,110.47c1.71-0.99,4.49-0.99,6.21,0c0.79,0.46,1.22,1.05,1.29,1.64c0.08-0.71-0.35-1.43-1.29-1.97
					c-1.72-0.99-4.5-0.99-6.21,0c-0.92,0.54-1.34,1.25-1.27,1.95C42.73,111.51,43.15,110.93,43.93,110.47z"/>
			</g>
			<g>
				<g>
					<path class="st21" d="M43.03,112.4c-1.12-0.65-1.69-1.5-1.68-2.35l0,1.33c0,0.85,0.56,1.7,1.68,2.35
						c0.02,0.01,0.04,0.02,0.07,0.04c0-0.44,0-0.89,0-1.33C43.07,112.42,43.05,112.41,43.03,112.4z"/>
					<path class="st22" d="M43.91,112.82c-0.29-0.11-0.56-0.24-0.82-0.38c0,0.44,0,0.89,0,1.33c0.25,0.14,0.52,0.27,0.81,0.38
						C43.89,113.7,43.91,113.26,43.91,112.82z"/>
					<path class="st23" d="M43.91,112.82c0,0.44-0.02,0.89-0.01,1.33c1.81,0.7,4.15,0.74,6.01,0.11c0-0.44,0-0.88,0-1.33
						C48.05,113.55,45.71,113.51,43.91,112.82z"/>
					<path class="st22" d="M51.14,112.37c-0.02,0.01-0.03,0.02-0.05,0.03c-0.36,0.21-0.76,0.39-1.19,0.53c0,0.45,0,0.89,0,1.33
						c0.42-0.14,0.82-0.32,1.18-0.53c0.03-0.02,0.05-0.03,0.08-0.05C51.14,113.24,51.13,112.81,51.14,112.37z"/>
					<path class="st21" d="M51.14,112.37c0,0.44,0,0.87,0.03,1.31c1.05-0.63,1.58-1.45,1.58-2.27l0-1.33
						C52.74,110.91,52.21,111.73,51.14,112.37z"/>
				</g>
				<g>
					<path class="st24" d="M51.06,107.73c2.23,1.29,2.25,3.38,0.03,4.67c-2.22,1.29-5.83,1.29-8.06,0
						c-2.23-1.29-2.25-3.38-0.03-4.67C45.22,106.44,48.83,106.44,51.06,107.73z"/>
				</g>
				<path class="st25" d="M43,108.05c2.22-1.29,5.83-1.29,8.06,0c1.05,0.61,1.61,1.39,1.68,2.18c0.08-0.9-0.48-1.82-1.68-2.51
					c-2.23-1.29-5.84-1.29-8.06,0c-1.18,0.68-1.73,1.59-1.65,2.49C41.41,109.43,41.96,108.65,43,108.05z"/>
				<path class="st26" d="M51.09,112.1c-2.22,1.29-5.83,1.29-8.06,0c-1.06-0.61-1.62-1.4-1.68-2.2c-0.07,0.9,0.49,1.81,1.68,2.49
					c2.23,1.29,5.84,1.29,8.06,0c1.17-0.68,1.72-1.58,1.65-2.47C52.68,110.72,52.13,111.5,51.09,112.1z"/>
				<g>
					<path class="st23" d="M50.14,108.17c1.72,0.99,1.73,2.6,0.02,3.6c-1.71,0.99-4.49,0.99-6.21,0c-1.72-0.99-1.73-2.6-0.02-3.6
						C45.64,107.18,48.42,107.18,50.14,108.17z"/>
				</g>
				<path class="st26" d="M43.93,108.5c1.71-0.99,4.49-0.99,6.21,0c0.79,0.46,1.22,1.05,1.29,1.64c0.08-0.71-0.35-1.43-1.29-1.97
					c-1.72-0.99-4.5-0.99-6.21,0c-0.92,0.54-1.34,1.25-1.27,1.95C42.73,109.53,43.15,108.95,43.93,108.5z"/>
			</g>
		</g>
		<g>
			<path class="st27" d="M49.98,125.39c0.31,0.07,0.62,0.19,0.94,0.29c-0.05-2.94,1.76-5.85,4.11-6.64
				c-0.31-0.14-0.64-0.24-0.98-0.31C51.71,119.54,49.91,122.46,49.98,125.39z"/>
			<path class="st25" d="M55.65,118.88c-0.32-0.13-0.64-0.25-0.98-0.32c-0.13,0.02-0.27,0.05-0.41,0.09
				c-0.08,0.02-0.15,0.05-0.23,0.07c0.35,0.07,0.68,0.17,0.98,0.31c0.06-0.02,0.12-0.04,0.18-0.06
				C55.36,118.94,55.5,118.91,55.65,118.88z"/>
			<path class="st28" d="M56.33,118.68c-0.51-0.18-1.07-0.22-1.66-0.12c0.34,0.07,0.66,0.19,0.98,0.32
				c0.57-0.09,1.12-0.04,1.61,0.13L56.33,118.68z"/>
			<path class="st24" d="M50.92,125.76c0-0.02,0-0.05,0-0.07c-0.31-0.1-0.62-0.22-0.94-0.29c0,0.01,0,0.03,0,0.04
				c0.01,0.35,0.05,0.69,0.11,1.01c0.3,0.14,0.61,0.25,0.94,0.33C50.97,126.45,50.93,126.11,50.92,125.76z"/>
			<path class="st23" d="M51.03,126.78c-0.33-0.09-0.64-0.2-0.94-0.33c0.31,1.61,1.22,2.76,2.44,3.19l0.94,0.33
				C52.25,129.53,51.34,128.38,51.03,126.78z"/>
			<path class="st24" d="M59.19,126.38c0.01-0.02,0.02-0.04,0.02-0.05c0.41-0.97,0.63-2.03,0.6-3.11c0,0.08,0,0.16,0,0.24
				c0-0.02,0-0.04,0-0.06c0-0.07,0-0.13,0-0.2c-0.09-3.04-2.15-4.93-4.61-4.23c-2.46,0.7-4.37,3.74-4.29,6.77
				c0,0.06,0,0.12,0.01,0.18c0,0.02,0,0.03,0,0.05c0.12,1.93,1.04,3.36,2.36,3.9c0.01,0,0.01,0,0.02,0.01
				c0.02,0.01,0.04,0.02,0.06,0.02c0.02,0.01,0.03,0.01,0.05,0.02c0.01,0,0.02,0.01,0.03,0.01c0.63,0.23,1.34,0.25,2.09,0.04
				c1.57-0.45,2.91-1.84,3.66-3.58C59.19,126.39,59.19,126.39,59.19,126.38z"/>
			<g>
				<path class="st25" d="M59.82,123.22c0,0.05,0,0.1,0,0.16C59.82,123.33,59.82,123.27,59.82,123.22z"/>
				<path class="st25" d="M59.82,123.38c0,0.03,0,0.06,0,0.09c0-0.02,0-0.04,0-0.06c0-0.07,0-0.13,0-0.2
					c-0.09-3.04-2.15-4.93-4.61-4.23c-0.82,0.24-1.59,0.74-2.24,1.41c0.61-0.59,1.31-1.02,2.06-1.23c2.46-0.7,4.52,1.19,4.61,4.23
					c0,0.07,0,0.13,0,0.2c0,0.02,0,0.04,0,0.06c0-0.03,0-0.06,0-0.09c0-0.05,0-0.1,0-0.16c0,0.05,0,0.1,0,0.16
					c0,1.02-0.22,2.03-0.6,2.95c-0.01,0.02-0.02,0.04-0.02,0.05c0,0,0,0.01-0.01,0.01c-0.35,0.82-0.84,1.57-1.42,2.17
					c0.66-0.63,1.21-1.44,1.59-2.34c0,0,0-0.01,0.01-0.01c0.01-0.02,0.02-0.04,0.02-0.05C59.6,125.41,59.82,124.4,59.82,123.38z"/>
			</g>
			<path class="st26" d="M55.73,129.81c-0.75,0.21-1.46,0.19-2.09-0.04c-0.01,0-0.02-0.01-0.03-0.01c-0.02-0.01-0.03-0.01-0.05-0.02
				c-0.02-0.01-0.04-0.02-0.06-0.02c-0.01,0-0.01,0-0.02-0.01c-1.31-0.55-2.24-1.98-2.36-3.9c0-0.02,0-0.03,0-0.05
				c0-0.06-0.01-0.12-0.01-0.18c-0.06-2.21,0.94-4.43,2.44-5.74c-1.61,1.28-2.71,3.59-2.65,5.91c0,0.06,0,0.12,0.01,0.18
				c0,0.02,0,0.03,0,0.05c0.12,1.93,1.04,3.36,2.36,3.9c0.01,0,0.01,0,0.02,0.01c0.02,0.01,0.04,0.02,0.06,0.02
				c0.02,0.01,0.03,0.01,0.05,0.02c0.01,0,0.02,0.01,0.03,0.01c0.63,0.23,1.34,0.25,2.09,0.04c0.66-0.19,1.29-0.55,1.84-1.04
				C56.87,129.34,56.32,129.64,55.73,129.81z"/>
			<path class="st23" d="M55.39,120.25c1.89-0.54,3.48,0.91,3.55,3.25c0.07,2.34-1.41,4.68-3.3,5.22c-1.89,0.54-3.48-0.91-3.55-3.25
				C52.02,123.12,53.5,120.79,55.39,120.25z"/>
			<path class="st26" d="M58.93,123.5c-0.07-2.34-1.66-3.8-3.55-3.25c-0.64,0.18-1.24,0.58-1.74,1.11c0.46-0.44,1-0.77,1.57-0.93
				c1.89-0.54,3.48,0.91,3.55,3.25c0.04,1.54-0.58,3.08-1.56,4.11C58.28,126.76,58.98,125.13,58.93,123.5z"/>
			<g>
				<path class="st24" d="M50.92,125.98c0,0,0-0.01,0-0.01C50.92,125.97,50.92,125.98,50.92,125.98
					C50.92,125.98,50.92,125.98,50.92,125.98z"/>
			</g>
			<g>
				<path class="st24" d="M50.92,125.97c0-0.08-0.01-0.15-0.01-0.23C50.92,125.82,50.92,125.89,50.92,125.97z"/>
			</g>
		</g>
		<g>
			<g>
				<g>
					<path class="st21" d="M35.18,131.17c-1.12-0.65-1.69-1.5-1.68-2.35l0,1.33c0,0.85,0.56,1.7,1.68,2.35
						c0.02,0.01,0.04,0.02,0.07,0.04c0-0.44,0-0.89,0-1.33C35.22,131.2,35.2,131.19,35.18,131.17z"/>
					<path class="st22" d="M36.07,131.59c-0.29-0.11-0.56-0.24-0.82-0.38c0,0.44,0,0.89,0,1.33c0.25,0.14,0.52,0.27,0.81,0.38
						C36.05,132.48,36.06,132.03,36.07,131.59z"/>
					<path class="st23" d="M36.07,131.59c0,0.44-0.02,0.89-0.01,1.33c1.81,0.7,4.15,0.74,6.01,0.11c0-0.44,0-0.88,0-1.33
						C40.2,132.32,37.87,132.29,36.07,131.59z"/>
					<path class="st22" d="M43.29,131.15c-0.02,0.01-0.03,0.02-0.05,0.03c-0.36,0.21-0.76,0.39-1.19,0.53c0,0.45,0,0.89,0,1.33
						c0.42-0.14,0.82-0.32,1.18-0.53c0.03-0.02,0.05-0.03,0.08-0.05C43.29,132.02,43.29,131.58,43.29,131.15z"/>
					<path class="st21" d="M43.29,131.15c0,0.44,0,0.87,0.03,1.31c1.05-0.63,1.58-1.45,1.58-2.27l0-1.33
						C44.9,129.68,44.36,130.51,43.29,131.15z"/>
				</g>
				<g>
					<path class="st24" d="M43.22,126.5c2.23,1.29,2.25,3.38,0.03,4.67c-2.22,1.29-5.83,1.29-8.06,0s-2.25-3.38-0.03-4.67
						C37.37,125.21,40.98,125.21,43.22,126.5z"/>
				</g>
				<path class="st25" d="M35.15,126.83c2.22-1.29,5.83-1.29,8.06,0c1.05,0.61,1.61,1.39,1.68,2.18c0.08-0.9-0.48-1.82-1.68-2.51
					c-2.23-1.29-5.84-1.29-8.06,0c-1.18,0.68-1.73,1.59-1.65,2.49C33.57,128.21,34.12,127.43,35.15,126.83z"/>
				<path class="st26" d="M43.24,130.88c-2.22,1.29-5.83,1.29-8.06,0c-1.06-0.61-1.62-1.4-1.68-2.2c-0.07,0.9,0.49,1.81,1.68,2.49
					c2.23,1.29,5.84,1.29,8.06,0c1.17-0.68,1.72-1.58,1.65-2.47C44.83,129.5,44.28,130.28,43.24,130.88z"/>
				<g>
					<path class="st23" d="M42.29,126.95c1.72,0.99,1.73,2.6,0.02,3.6c-1.71,0.99-4.49,0.99-6.21,0c-1.72-0.99-1.73-2.6-0.02-3.6
						C37.79,125.96,40.57,125.96,42.29,126.95z"/>
				</g>
				<path class="st26" d="M36.08,127.28c1.71-0.99,4.49-0.99,6.21,0c0.79,0.46,1.22,1.05,1.29,1.64c0.08-0.71-0.35-1.43-1.29-1.97
					c-1.72-0.99-4.5-0.99-6.21,0c-0.92,0.54-1.34,1.25-1.27,1.95C34.88,128.31,35.31,127.73,36.08,127.28z"/>
			</g>
			<g>
				<g>
					<path class="st21" d="M35.18,129.19c-1.12-0.65-1.69-1.5-1.68-2.35l0,1.33c0,0.85,0.56,1.7,1.68,2.35
						c0.02,0.01,0.04,0.02,0.07,0.04c0-0.44,0-0.89,0-1.33C35.22,129.21,35.2,129.2,35.18,129.19z"/>
					<path class="st22" d="M36.07,129.61c-0.29-0.11-0.56-0.24-0.82-0.38c0,0.44,0,0.89,0,1.33c0.25,0.14,0.52,0.27,0.81,0.38
						C36.05,130.49,36.06,130.05,36.07,129.61z"/>
					<path class="st23" d="M36.07,129.61c0,0.44-0.02,0.89-0.01,1.33c1.81,0.7,4.15,0.74,6.01,0.11c0-0.44,0-0.88,0-1.33
						C40.2,130.34,37.87,130.3,36.07,129.61z"/>
					<path class="st22" d="M43.29,129.16c-0.02,0.01-0.03,0.02-0.05,0.03c-0.36,0.21-0.76,0.39-1.19,0.53c0,0.45,0,0.89,0,1.33
						c0.42-0.14,0.82-0.32,1.18-0.53c0.03-0.02,0.05-0.03,0.08-0.05C43.29,130.03,43.29,129.6,43.29,129.16z"/>
					<path class="st21" d="M43.29,129.16c0,0.44,0,0.87,0.03,1.31c1.05-0.63,1.58-1.45,1.58-2.27l0-1.33
						C44.9,127.7,44.36,128.52,43.29,129.16z"/>
				</g>
				<g>
					<path class="st24" d="M43.22,124.52c2.23,1.29,2.25,3.38,0.03,4.67c-2.22,1.29-5.83,1.29-8.06,0
						c-2.23-1.29-2.25-3.38-0.03-4.67C37.37,123.23,40.98,123.23,43.22,124.52z"/>
				</g>
				<path class="st25" d="M35.15,124.85c2.22-1.29,5.83-1.29,8.06,0c1.05,0.61,1.61,1.39,1.68,2.18c0.08-0.9-0.48-1.82-1.68-2.51
					c-2.23-1.29-5.84-1.29-8.06,0c-1.18,0.68-1.73,1.59-1.65,2.49C33.57,126.22,34.12,125.45,35.15,124.85z"/>
				<path class="st26" d="M43.24,128.9c-2.22,1.29-5.83,1.29-8.06,0c-1.06-0.61-1.62-1.4-1.68-2.2c-0.07,0.9,0.49,1.81,1.68,2.49
					c2.23,1.29,5.84,1.29,8.06,0c1.17-0.68,1.72-1.58,1.65-2.47C44.83,127.51,44.28,128.29,43.24,128.9z"/>
				<g>
					<path class="st23" d="M42.29,124.97c1.72,0.99,1.73,2.6,0.02,3.6c-1.71,0.99-4.49,0.99-6.21,0c-1.72-0.99-1.73-2.6-0.02-3.6
						C37.79,123.97,40.57,123.97,42.29,124.97z"/>
				</g>
				<path class="st26" d="M36.08,125.29c1.71-0.99,4.49-0.99,6.21,0c0.79,0.46,1.22,1.05,1.29,1.64c0.08-0.71-0.35-1.43-1.29-1.97
					c-1.72-0.99-4.5-0.99-6.21,0c-0.92,0.54-1.34,1.25-1.27,1.95C34.88,126.33,35.31,125.75,36.08,125.29z"/>
			</g>
			<g>
				<g>
					<path class="st21" d="M35.18,127.27c-1.12-0.65-1.69-1.5-1.68-2.35l0,1.33c0,0.85,0.56,1.7,1.68,2.35
						c0.02,0.01,0.04,0.02,0.07,0.04c0-0.44,0-0.89,0-1.33C35.22,127.3,35.2,127.29,35.18,127.27z"/>
					<path class="st22" d="M36.07,127.69c-0.29-0.11-0.56-0.24-0.82-0.38c0,0.44,0,0.89,0,1.33c0.25,0.14,0.52,0.27,0.81,0.38
						C36.05,128.58,36.06,128.14,36.07,127.69z"/>
					<path class="st23" d="M36.07,127.69c0,0.44-0.02,0.89-0.01,1.33c1.81,0.7,4.15,0.74,6.01,0.11c0-0.44,0-0.88,0-1.33
						C40.2,128.42,37.87,128.39,36.07,127.69z"/>
					<path class="st22" d="M43.29,127.25c-0.02,0.01-0.03,0.02-0.05,0.03c-0.36,0.21-0.76,0.39-1.19,0.53c0,0.45,0,0.89,0,1.33
						c0.42-0.14,0.82-0.32,1.18-0.53c0.03-0.02,0.05-0.03,0.08-0.05C43.29,128.12,43.29,127.68,43.29,127.25z"/>
					<path class="st21" d="M43.29,127.25c0,0.44,0,0.87,0.03,1.31c1.05-0.63,1.58-1.45,1.58-2.27l0-1.33
						C44.9,125.78,44.36,126.61,43.29,127.25z"/>
				</g>
				<g>
					<path class="st24" d="M43.22,122.6c2.23,1.29,2.25,3.38,0.03,4.67c-2.22,1.29-5.83,1.29-8.06,0c-2.23-1.29-2.25-3.38-0.03-4.67
						C37.37,121.31,40.98,121.31,43.22,122.6z"/>
				</g>
				<path class="st25" d="M35.15,122.93c2.22-1.29,5.83-1.29,8.06,0c1.05,0.61,1.61,1.39,1.68,2.18c0.08-0.9-0.48-1.82-1.68-2.51
					c-2.23-1.29-5.84-1.29-8.06,0c-1.18,0.68-1.73,1.59-1.65,2.49C33.57,124.31,34.12,123.53,35.15,122.93z"/>
				<path class="st26" d="M43.24,126.98c-2.22,1.29-5.83,1.29-8.06,0c-1.06-0.61-1.62-1.4-1.68-2.2c-0.07,0.9,0.49,1.81,1.68,2.49
					c2.23,1.29,5.84,1.29,8.06,0c1.17-0.68,1.72-1.58,1.65-2.47C44.83,125.6,44.28,126.38,43.24,126.98z"/>
				<g>
					<path class="st23" d="M42.29,123.05c1.72,0.99,1.73,2.6,0.02,3.6c-1.71,0.99-4.49,0.99-6.21,0c-1.72-0.99-1.73-2.6-0.02-3.6
						C37.79,122.06,40.57,122.06,42.29,123.05z"/>
				</g>
				<path class="st26" d="M36.08,123.38c1.71-0.99,4.49-0.99,6.21,0c0.79,0.46,1.22,1.05,1.29,1.64c0.08-0.71-0.35-1.43-1.29-1.97
					c-1.72-0.99-4.5-0.99-6.21,0c-0.92,0.54-1.34,1.25-1.27,1.95C34.88,124.41,35.31,123.83,36.08,123.38z"/>
			</g>
			<g>
				<g>
					<path class="st21" d="M35.18,125.3c-1.12-0.65-1.69-1.5-1.68-2.35l0,1.33c0,0.85,0.56,1.7,1.68,2.35
						c0.02,0.01,0.04,0.02,0.07,0.04c0-0.44,0-0.89,0-1.33C35.22,125.32,35.2,125.31,35.18,125.3z"/>
					<path class="st22" d="M36.07,125.72c-0.29-0.11-0.56-0.24-0.82-0.38c0,0.44,0,0.89,0,1.33c0.25,0.14,0.52,0.27,0.81,0.38
						C36.05,126.6,36.06,126.16,36.07,125.72z"/>
					<path class="st23" d="M36.07,125.72c0,0.44-0.02,0.89-0.01,1.33c1.81,0.7,4.15,0.74,6.01,0.11c0-0.44,0-0.88,0-1.33
						C40.2,126.45,37.87,126.41,36.07,125.72z"/>
					<path class="st22" d="M43.29,125.27c-0.02,0.01-0.03,0.02-0.05,0.03c-0.36,0.21-0.76,0.39-1.19,0.53c0,0.45,0,0.89,0,1.33
						c0.42-0.14,0.82-0.32,1.18-0.53c0.03-0.02,0.05-0.03,0.08-0.05C43.29,126.14,43.29,125.71,43.29,125.27z"/>
					<path class="st21" d="M43.29,125.27c0,0.44,0,0.87,0.03,1.31c1.05-0.63,1.58-1.45,1.58-2.27l0-1.33
						C44.9,123.81,44.36,124.63,43.29,125.27z"/>
				</g>
				<g>
					<path class="st24" d="M43.22,120.63c2.23,1.29,2.25,3.38,0.03,4.67c-2.22,1.29-5.83,1.29-8.06,0
						c-2.23-1.29-2.25-3.38-0.03-4.67C37.37,119.34,40.98,119.34,43.22,120.63z"/>
				</g>
				<path class="st25" d="M35.15,120.96c2.22-1.29,5.83-1.29,8.06,0c1.05,0.61,1.61,1.39,1.68,2.18c0.08-0.9-0.48-1.82-1.68-2.51
					c-2.23-1.29-5.84-1.29-8.06,0c-1.18,0.68-1.73,1.59-1.65,2.49C33.57,122.33,34.12,121.56,35.15,120.96z"/>
				<path class="st26" d="M43.24,125.01c-2.22,1.29-5.83,1.29-8.06,0c-1.06-0.61-1.62-1.4-1.68-2.2c-0.07,0.9,0.49,1.81,1.68,2.49
					c2.23,1.29,5.84,1.29,8.06,0c1.17-0.68,1.72-1.58,1.65-2.47C44.83,123.62,44.28,124.4,43.24,125.01z"/>
				<g>
					<path class="st23" d="M42.29,121.08c1.72,0.99,1.73,2.6,0.02,3.6c-1.71,0.99-4.49,0.99-6.21,0c-1.72-0.99-1.73-2.6-0.02-3.6
						C37.79,120.08,40.57,120.08,42.29,121.08z"/>
				</g>
				<path class="st26" d="M36.08,121.4c1.71-0.99,4.49-0.99,6.21,0c0.79,0.46,1.22,1.05,1.29,1.64c0.08-0.71-0.35-1.43-1.29-1.97
					c-1.72-0.99-4.5-0.99-6.21,0c-0.92,0.54-1.34,1.25-1.27,1.95C34.88,122.44,35.31,121.86,36.08,121.4z"/>
			</g>
		</g>
		<g>
			<g>
				<g>
					<path class="st21" d="M52.64,134.57c1.16-0.67,1.73-1.54,1.73-2.42l0,1.37c0,0.87-0.57,1.75-1.73,2.42
						c-0.02,0.01-0.05,0.03-0.07,0.04c0-0.46,0-0.91,0-1.37C52.6,134.59,52.62,134.58,52.64,134.57z"/>
					<path class="st22" d="M51.73,135c0.3-0.11,0.58-0.24,0.84-0.39c0,0.46,0,0.91,0,1.37c-0.26,0.15-0.54,0.27-0.83,0.39
						C51.75,135.91,51.73,135.45,51.73,135z"/>
					<path class="st23" d="M51.73,135c0,0.46,0.02,0.91,0.01,1.36c-1.86,0.72-4.26,0.76-6.17,0.12c0-0.45,0-0.91,0-1.36
						C47.48,135.75,49.88,135.71,51.73,135z"/>
					<path class="st22" d="M44.3,134.54c0.02,0.01,0.03,0.02,0.05,0.03c0.37,0.22,0.78,0.4,1.22,0.54c0,0.46,0,0.91,0,1.36
						c-0.44-0.15-0.84-0.33-1.22-0.54c-0.03-0.02-0.05-0.03-0.08-0.05C44.31,135.43,44.31,134.99,44.3,134.54z"/>
					<path class="st21" d="M44.3,134.54c0,0.45,0,0.9-0.03,1.35c-1.08-0.65-1.62-1.49-1.62-2.33l0-1.37
						C42.65,133.03,43.2,133.88,44.3,134.54z"/>
				</g>
				<g>
					<path class="st24" d="M44.38,129.77c-2.3,1.33-2.31,3.47-0.03,4.8c2.28,1.33,5.99,1.33,8.28,0c2.3-1.33,2.31-3.47,0.03-4.8
						C50.39,128.44,46.68,128.44,44.38,129.77z"/>
				</g>
				<path class="st25" d="M52.67,130.1c-2.28-1.33-5.99-1.33-8.29,0c-1.08,0.62-1.65,1.43-1.72,2.24c-0.08-0.93,0.5-1.87,1.72-2.58
					c2.3-1.33,6-1.33,8.29,0c1.21,0.7,1.77,1.64,1.69,2.56C54.29,131.52,53.73,130.72,52.67,130.1z"/>
				<path class="st26" d="M44.36,134.27c2.28,1.33,5.99,1.33,8.28,0c1.09-0.63,1.66-1.44,1.72-2.26c0.07,0.92-0.5,1.86-1.72,2.56
					c-2.3,1.33-6,1.33-8.28,0c-1.2-0.7-1.77-1.62-1.7-2.54C42.72,132.84,43.29,133.64,44.36,134.27z"/>
				<g>
					<path class="st23" d="M45.33,130.23c-1.77,1.02-1.78,2.68-0.02,3.7c1.76,1.02,4.61,1.02,6.38,0c1.77-1.02,1.78-2.68,0.02-3.7
						C49.96,129.21,47.1,129.21,45.33,130.23z"/>
				</g>
				<path class="st26" d="M51.71,130.56c-1.76-1.02-4.61-1.02-6.38,0c-0.81,0.47-1.25,1.07-1.32,1.69
					c-0.08-0.73,0.36-1.47,1.32-2.02c1.77-1.02,4.62-1.02,6.38,0c0.95,0.55,1.38,1.29,1.3,2.01
					C52.95,131.62,52.51,131.03,51.71,130.56z"/>
				<g>
					<path class="st29" d="M48.32,133.35c0.03-0.06,0.08-0.1,0.14-0.14c0.11-0.07,0.28-0.1,0.45-0.1c0.2,0.01,0.39-0.02,0.57-0.07
						l-1.03-0.6c-0.72,0.18-1.51,0.32-2.23-0.1c-0.67-0.39-0.58-0.89-0.12-1.27l-0.26-0.15c-0.14-0.08-0.14-0.22,0-0.3
						c0.14-0.08,0.38-0.08,0.52,0l0.26,0.15c0.37-0.17,0.81-0.26,1.28-0.25c0.36,0.01,0.61,0.2,0.51,0.4
						c-0.03,0.06-0.08,0.11-0.15,0.15c-0.1,0.06-0.25,0.1-0.4,0.09c-0.16,0-0.31,0.02-0.45,0.07l0.97,0.56
						c0.74-0.19,1.6-0.44,2.41,0.03c0.7,0.41,0.62,0.94,0.03,1.38l0.27,0.16c0.14,0.08,0.14,0.22,0,0.3c-0.14,0.08-0.38,0.08-0.52,0
						l-0.28-0.16c-0.48,0.21-1,0.3-1.51,0.27c-0.34-0.02-0.56-0.21-0.47-0.4L48.32,133.35z M50.02,132.75
						c0.2-0.18,0.14-0.35-0.03-0.45c-0.2-0.12-0.45-0.11-0.8-0.03L50.02,132.75L50.02,132.75z M46.91,131.54
						c-0.08,0.13-0.04,0.25,0.12,0.34c0.14,0.08,0.3,0.1,0.58,0.07L46.91,131.54L46.91,131.54z"/>
				</g>
			</g>
			<g>
				<g>
					<path class="st21" d="M52.64,132.57c1.16-0.67,1.73-1.54,1.73-2.42l0,1.37c0,0.87-0.57,1.75-1.73,2.42
						c-0.02,0.01-0.05,0.03-0.07,0.04c0-0.46,0-0.91,0-1.37C52.6,132.6,52.62,132.59,52.64,132.57z"/>
					<path class="st22" d="M51.73,133c0.3-0.11,0.58-0.24,0.84-0.39c0,0.46,0,0.91,0,1.37c-0.26,0.15-0.54,0.27-0.83,0.39
						C51.75,133.91,51.73,133.46,51.73,133z"/>
					<path class="st23" d="M51.73,133c0,0.46,0.02,0.91,0.01,1.36c-1.86,0.72-4.26,0.76-6.17,0.12c0-0.45,0-0.91,0-1.36
						C47.48,133.75,49.88,133.72,51.73,133z"/>
					<path class="st22" d="M44.3,132.54c0.02,0.01,0.03,0.02,0.05,0.03c0.37,0.22,0.78,0.4,1.22,0.54c0,0.46,0,0.91,0,1.36
						c-0.44-0.15-0.84-0.33-1.22-0.54c-0.03-0.02-0.05-0.03-0.08-0.05C44.31,133.44,44.31,132.99,44.3,132.54z"/>
					<path class="st21" d="M44.3,132.54c0,0.45,0,0.9-0.03,1.35c-1.08-0.65-1.62-1.49-1.62-2.33l0-1.37
						C42.65,131.04,43.2,131.89,44.3,132.54z"/>
				</g>
				<g>
					<path class="st24" d="M44.38,127.78c-2.3,1.33-2.31,3.47-0.03,4.8c2.28,1.33,5.99,1.33,8.28,0c2.3-1.33,2.31-3.47,0.03-4.8
						C50.39,126.45,46.68,126.45,44.38,127.78z"/>
				</g>
				<path class="st25" d="M52.67,128.11c-2.28-1.33-5.99-1.33-8.29,0c-1.08,0.62-1.65,1.43-1.72,2.24c-0.08-0.93,0.5-1.87,1.72-2.58
					c2.3-1.33,6-1.33,8.29,0c1.21,0.7,1.77,1.64,1.69,2.56C54.29,129.52,53.73,128.73,52.67,128.11z"/>
				<path class="st26" d="M44.36,132.27c2.28,1.33,5.99,1.33,8.28,0c1.09-0.63,1.66-1.44,1.72-2.26c0.07,0.92-0.5,1.86-1.72,2.56
					c-2.3,1.33-6,1.33-8.28,0c-1.2-0.7-1.77-1.62-1.7-2.54C42.72,130.85,43.29,131.65,44.36,132.27z"/>
				<g>
					<path class="st23" d="M45.33,128.23c-1.77,1.02-1.78,2.68-0.02,3.7c1.76,1.02,4.61,1.02,6.38,0c1.77-1.02,1.78-2.68,0.02-3.7
						C49.96,127.21,47.1,127.21,45.33,128.23z"/>
				</g>
				<path class="st26" d="M51.71,128.57c-1.76-1.02-4.61-1.02-6.38,0c-0.81,0.47-1.25,1.07-1.32,1.69
					c-0.08-0.73,0.36-1.47,1.32-2.02c1.77-1.02,4.62-1.02,6.38,0c0.95,0.55,1.38,1.29,1.3,2.01
					C52.95,129.63,52.51,129.03,51.71,128.57z"/>
			</g>
		</g>
	</g>
	<g>
		<g>
			<linearGradient id="SVGID_1_" gradientUnits="userSpaceOnUse" x1="84.5332" y1="53.0686" x2="102.2918" y2="53.0686">
				<stop  offset="0" style="stop-color:#4F80E3"/>
				<stop  offset="0.3079" style="stop-color:#406AC8"/>
				<stop  offset="0.7252" style="stop-color:#2F51A8"/>
				<stop  offset="0.957" style="stop-color:#29479C"/>
			</linearGradient>
			<polygon class="st30" points="87.23,67.6 84.53,66.04 99.59,38.53 102.29,40.1 			"/>
		</g>
	</g>
	<g>
		<linearGradient id="SVGID_2_" gradientUnits="userSpaceOnUse" x1="95.4464" y1="30.6221" x2="113.2209" y2="30.6221">
			<stop  offset="0" style="stop-color:#4F80E3"/>
			<stop  offset="0.3079" style="stop-color:#406AC8"/>
			<stop  offset="0.7252" style="stop-color:#2F51A8"/>
			<stop  offset="0.957" style="stop-color:#29479C"/>
		</linearGradient>
		<polygon class="st31" points="98.14,38.09 95.45,36.52 110.52,23.15 113.22,24.72 		"/>
	</g>
	<g>
		<g>
			<linearGradient id="SVGID_3_" gradientUnits="userSpaceOnUse" x1="47.8443" y1="82.4403" x2="75.7053" y2="82.4403">
				<stop  offset="0" style="stop-color:#4F80E3"/>
				<stop  offset="0.3079" style="stop-color:#406AC8"/>
				<stop  offset="0.7252" style="stop-color:#2F51A8"/>
				<stop  offset="0.957" style="stop-color:#29479C"/>
			</linearGradient>
			<path class="st32" d="M50.23,106.48l-1.94-1.13c-0.42-0.24-0.57-0.78-0.34-1.2L73.01,58.4l2.7,1.57L50.23,106.48z"/>
		</g>
	</g>
	<g>
		<path class="st33" d="M98.14,38.09l15.08-13.37l-1.54,19.93l-4.19-2.03L87.26,79.55l-11.53-7.64l-19.9,36.34
			c-0.23,0.42-0.75,0.58-1.18,0.38l-4.43-2.15l25.47-46.52l11.53,7.64l15.06-27.5L98.14,38.09z"/>
	</g>
	<g>
		<polygon class="st3" points="75.71,60.73 87.23,68.37 102.62,40.27 102.29,40.11 87.23,67.6 75.71,59.97 50.23,106.48 
			50.56,106.64 		"/>
		<polygon class="st3" points="113.16,25.54 113.22,24.72 98.14,38.09 98.7,38.36 		"/>
	</g>
	<polygon class="st3" points="95.74,36.69 110.63,24.02 113.22,24.72 110.52,23.15 95.45,36.52 	"/>
	<path class="st34" d="M52.79,14.03v33.23c0,1.87-1,3.6-2.62,4.54L5.7,77.48c-1.15,0.66-2.58-0.17-2.58-1.49l0-31.73v-1.5
		c0-1.87,1-3.6,2.62-4.54l44.47-25.67C51.36,11.88,52.79,12.7,52.79,14.03z"/>
	<path class="st35" d="M53.59,14.43v33.23c0,1.87-1,3.6-2.62,4.54L6.5,77.88c-1.15,0.66-2.58-0.17-2.58-1.49l0-31.73v-1.5
		c0-1.87,1-3.6,2.62-4.54l44.47-25.67C52.15,12.27,53.59,13.1,53.59,14.43z"/>
	<path class="st33" d="M53.59,14.43v1.54L3.92,44.65v-1.5c0-1.87,1-3.6,2.62-4.54l44.47-25.67C52.15,12.27,53.59,13.1,53.59,14.43z"
		/>
	<polygon class="st36" points="6.53,47.67 35.29,31.07 35.29,52.2 6.53,68.8 	"/>
	<g>
		<path class="st15" d="M24.23,45.38c1.67-0.54-0.28,2.83-0.65,1.12C23.58,46.09,23.87,45.59,24.23,45.38z"/>
	</g>
	<g>
		<path class="st37" d="M30.14,46.92c0.58-0.24,0.34,0.69,0,0.81c-0.17-0.07-4.27,2.9-4.1,1.96C25.83,49.02,29.8,47.26,30.14,46.92z
			"/>
	</g>
	<g>
		<path class="st37" d="M30.13,44.62c0.58-0.24,0.34,0.69,0,0.81c-0.17-0.07-4.27,2.9-4.1,1.96C25.82,46.72,29.79,44.96,30.13,44.62
			z"/>
	</g>
	<g>
		<path class="st37" d="M33.11,42.9c0.58-0.24,0.34,0.69,0,0.81c-0.22,0-2.23,1.65-2.19,0.86C30.83,43.9,32.73,43.23,33.11,42.9z"/>
	</g>
	<g>
		<path class="st37" d="M31.46,41.55c0.58-0.24,0.34,0.69,0,0.81c-0.15-0.11-5.67,3.73-5.44,2.73
			C25.7,44.47,31.18,41.86,31.46,41.55z"/>
	</g>
	<g>
		<path class="st38" d="M24.23,47.68c1.67-0.54-0.28,2.83-0.65,1.12C23.58,48.39,23.87,47.89,24.23,47.68z"/>
	</g>
	<g>
		<path class="st18" d="M24.24,49.99c1.67-0.54-0.28,2.83-0.65,1.12C23.59,50.7,23.88,50.19,24.24,49.99z"/>
	</g>
	<g>
		<path class="st38" d="M15.72,46.41c1.73-1,3.3-1.1,4.44-0.45l-4.42,7.66L15.72,46.41z"/>
	</g>
	<g>
		<path class="st18" d="M15.72,46.41l0.02,7.21l4.45,2.54C9.71,70.77,4.78,53.24,15.72,46.41z"/>
	</g>
	<g>
		<path class="st15" d="M20.17,45.96c3.07,1.95,1.8,7.25,0.03,10.2l-4.45-2.54L20.17,45.96z"/>
	</g>
	<polygon class="st37" points="37.9,29.56 43.13,26.54 43.13,32.58 37.9,35.59 	"/>
	<polygon class="st37" points="37.9,38.61 43.13,35.59 43.13,41.63 37.9,44.65 	"/>
	<polygon class="st37" points="37.9,47.67 43.13,44.65 43.13,50.69 37.9,53.71 	"/>
	<g>
		<path class="st37" d="M44.44,27.59c-0.1,0-0.2-0.05-0.25-0.15c-0.08-0.14-0.03-0.32,0.11-0.4l6.53-3.77
			c0.14-0.08,0.32-0.03,0.4,0.11c0.08,0.14,0.03,0.32-0.11,0.4l-6.53,3.77C44.54,27.58,44.49,27.59,44.44,27.59z"/>
	</g>
	<g>
		<path class="st37" d="M44.44,30.61c-0.1,0-0.2-0.05-0.25-0.15c-0.08-0.14-0.03-0.32,0.11-0.4l6.53-3.77
			c0.14-0.08,0.32-0.03,0.4,0.11c0.08,0.14,0.03,0.32-0.11,0.4l-6.53,3.77C44.54,30.6,44.49,30.61,44.44,30.61z"/>
	</g>
	<g>
		<path class="st37" d="M44.44,36.64c-0.1,0-0.2-0.05-0.25-0.15c-0.08-0.14-0.03-0.32,0.11-0.4l6.53-3.77
			c0.14-0.08,0.32-0.03,0.4,0.11c0.08,0.14,0.03,0.32-0.11,0.4l-6.53,3.77C44.54,36.63,44.49,36.64,44.44,36.64z"/>
	</g>
	<g>
		<path class="st37" d="M44.44,39.66c-0.1,0-0.2-0.05-0.25-0.15c-0.08-0.14-0.03-0.32,0.11-0.4l6.53-3.77
			c0.14-0.08,0.32-0.03,0.4,0.11c0.08,0.14,0.03,0.32-0.11,0.4l-6.53,3.77C44.54,39.65,44.49,39.66,44.44,39.66z"/>
	</g>
	<g>
		<path class="st37" d="M44.44,45.7c-0.1,0-0.2-0.05-0.25-0.15c-0.08-0.14-0.03-0.32,0.11-0.4l6.53-3.77
			c0.14-0.08,0.32-0.03,0.4,0.11c0.08,0.14,0.03,0.32-0.11,0.4l-6.53,3.77C44.54,45.69,44.49,45.7,44.44,45.7z"/>
	</g>
	<g>
		<path class="st37" d="M44.44,48.72c-0.1,0-0.2-0.05-0.25-0.15c-0.08-0.14-0.03-0.32,0.11-0.4l6.53-3.77
			c0.14-0.08,0.32-0.03,0.4,0.11c0.08,0.14,0.03,0.32-0.11,0.4l-6.53,3.77C44.54,48.71,44.49,48.72,44.44,48.72z"/>
	</g>
	<path class="st38" d="M8.61,39.89c0,0.61-0.43,1.34-0.95,1.64c-0.52,0.3-0.95,0.06-0.95-0.55s0.43-1.34,0.95-1.64
		C8.19,39.04,8.61,39.28,8.61,39.89z"/>
	<ellipse transform="matrix(0.5 -0.866 0.866 0.5 -27.0677 29.2046)" class="st15" cx="11.76" cy="38.04" rx="1.34" ry="0.78"/>
	<path class="st18" d="M16.8,35.11c0,0.61-0.43,1.34-0.95,1.64c-0.52,0.3-0.95,0.06-0.95-0.55c0-0.61,0.43-1.34,0.95-1.64
		C16.38,34.25,16.8,34.5,16.8,35.11z"/>
	<g>
		<path class="st39" d="M126.46,43.98L126.46,43.98c-0.39,0.06-0.66,0.42-0.6,0.81l0.2,1.35c0.06,0.39,0.42,0.66,0.81,0.6h0
			c0.39-0.06,0.66-0.42,0.6-0.81l-0.2-1.35C127.21,44.2,126.85,43.93,126.46,43.98z"/>
		<path class="st10" d="M137.39,54.1c0,0-5.91,1.04-6.49-0.53c-0.58-1.57-3.03-7.48-3.03-7.48l-2.02,0.48c0,0,1.78,10.24,3.46,11.11
			c1.68,0.87,7.07,0.7,7.07,0.7L137.39,54.1z"/>
		<path class="st5" d="M147.28,94.61c-1.72-0.93-4.6-1-6.53-0.17c-0.17-0.39-0.55-0.77-1.14-1.09c-1.77-0.96-4.77-1-6.7-0.1
			c-1.93,0.9-2.06,2.41-0.29,3.36c1.72,0.93,4.6,1,6.53,0.17c0.17,0.39,0.55,0.77,1.14,1.09c1.77,0.96,4.77,1,6.7,0.1
			C148.93,97.07,149.06,95.56,147.28,94.61z"/>
		<path class="st9" d="M141.32,53.87c0,0,1.41,0.39,1.41,1.11c0,0.72-0.14,1.39-0.14,1.39l-4.73-1l0.49-1.95L141.32,53.87z"/>
		<path class="st9" d="M133.91,93.5l2.62-1.79c0.39-0.13,0.86-0.15,1.4,0.01c0.24,0.07,0.29-0.11,0.27,0.12l0.23,0.96
			c0.22,0.64-0.29,1.03-1.03,1.25l-2.5,0.72c-0.52,0.17-1.25,0.07-1.62-0.21l-0.11-0.08C132.79,94.19,133.36,93.8,133.91,93.5z"/>
		<path class="st40" d="M138.18,92c-0.04,0.75-1.86,0.64-1.82-0.1l0.14-2.43l1.82,0.1L138.18,92z"/>
		<path class="st9" d="M138.48,91.08c-0.76,0.57-1.52,0.54-2.28-0.06c0,0-1.28-15-0.85-22.71l5.72-1.79
			c-0.72,4.73-2.28,12.48-2.28,12.48C140.45,82.89,138.96,87.71,138.48,91.08z"/>
		<path class="st7" d="M141.07,66.52l-1.61,0.5c-0.44,2.8-1.12,6.46-1.61,8.99c-0.32,1.65-0.29,3.34,0,5
			c0.6,3.44-0.5,7.25-0.9,10.06c-0.11,0.08-0.23,0.15-0.34,0.21c0.62,0.32,1.24,0.25,1.87-0.21c0.43-3,1.66-7.13,0.76-10.75
			c-0.27-1.08-0.27-2.2-0.05-3.29C139.69,74.43,140.58,69.76,141.07,66.52z"/>
		<path class="st40" d="M144.65,93.87c0.08,0.74-1.73,0.93-1.81,0.19l-0.25-2.42l1.81-0.19L144.65,93.87z"/>
		<path class="st9" d="M144.79,92.96c-0.78,0.64-1.54,0.75-2.27,0.26c0,0-0.65-4.98-1.67-10.29c-0.79-4.11-1.96-8.23-2.23-11.5
			l5.32-3.1c-0.05,2.91,0.17,9.3,0.27,12.05c0.02,0.64,0.18,1.27,0.47,1.84C145.89,84.73,144.79,92.96,144.79,92.96z"/>
		<path class="st10" d="M134.89,68.67c0.18-2.65,0.21-6.47,0.05-9.8c0.32-4.56,2.16-6.13,4.96-4.89l1.17,0.4
			c3.34,2.11,5.11,2.14,4.24,5.77l-0.82,8.7C144.19,73,134.33,73.52,134.89,68.67z"/>
		<path class="st41" d="M145.3,60.15l-0.82,8.7c-0.17,2.42-3.59,3.6-6.3,3.21C141.39,70.45,143.6,66.04,145.3,60.15z"/>
		<g>
			<g>
				<path class="st3" d="M142.46,55.19c0,0,0.09,1.26-1.81,2.16c-0.98,0.47-1.52,1.34-1.81,2.08c-0.17,0.43-0.41,0.19-0.42-0.28
					c-0.03-1.22-0.05-1.57-0.23-2.49c-0.3-1.48,0.5-3.58,0.58-3.58C138.85,53.07,142.46,55.19,142.46,55.19z"/>
			</g>
		</g>
		<path class="st9" d="M140.03,54.06c0,0-1.78,0.41-1.52,2.07l-0.13,1.94c0,0-1.16-2.31-0.36-4.31
			C138.83,51.76,140.03,54.06,140.03,54.06z"/>
		<path class="st42" d="M139.31,54.07c0,0,0.28,0.53,0.47,0.65c0.19,0.12,3.09-0.88,3.01-3.21c-0.05-1.47-2.84-1.34-2.84-1.34
			L139.31,54.07z"/>
		<path class="st43" d="M140.31,56.29l-0.14,0.01c-0.47,0.03-0.89-0.32-0.92-0.8l-0.19-2.66c-0.03-0.47,0.32-0.89,0.8-0.92
			l0.14-0.01c0.47-0.03,0.89,0.32,0.92,0.8l0.56,2.53C141.51,55.7,140.78,56.25,140.31,56.29z"/>
		<path class="st39" d="M139.16,54.27c0,0,1.12,0.13,1.96-0.88c0,0-0.87,1.58-1.91,1.62L139.16,54.27z"/>
		<path class="st9" d="M141.67,53.98c0,0,1.1,1.61-1.22,2.6c0,0-0.93,0.82-1.03,1.8c0,0,0.79-0.53,1.25-0.81
			C141.13,57.28,144.51,55.54,141.67,53.98z"/>
		
			<ellipse transform="matrix(0.1433 -0.9897 0.9897 0.1433 67.9559 181.8486)" class="st39" cx="139.02" cy="51.67" rx="2.59" ry="1.47"/>
		<path class="st43" d="M141.26,53.36c-0.65,1.05-2.75,1.4-3.26,0.45c-0.51-0.95,0.35-2.85,1-3.9c0.65-1.05,1.59-1.14,2.1-0.19
			C141.62,50.67,141.91,52.31,141.26,53.36z"/>
		<path class="st42" d="M140.44,50.37c0,0-0.66,2.2,1.03,3.02c0,0,2.22-0.8,1.13-3.22c-0.95-2.14-3.3-1.07-3.3-1.07L140.44,50.37z"
			/>
		<path class="st42" d="M137.58,51.41c0,0,0.41-0.92,1.66-1.11l-0.82-0.72C138.41,49.58,137.43,49.63,137.58,51.41z"/>
		<path class="st42" d="M141.14,51.86c-0.3-0.6-1.13-0.74-2.39-0.53c-0.19,0.03-0.39,0.03-0.57-0.04c-0.85-0.34-0.78-1.46-0.78-1.46
			c-0.06-0.77,0.49-1.01,1.25-1.07l1.99-0.15c1.13-0.09,2.01,0.98,2.07,1.75l0.03,0.13C142.79,51.25,141.9,51.8,141.14,51.86z"/>
		<path class="st42" d="M141.68,53.36c-0.16,0.26-0.49,0.34-0.75,0.18c-0.26-0.16-0.34-0.49-0.18-0.75
			c0.16-0.26,0.49-0.34,0.75-0.18S141.84,53.1,141.68,53.36z"/>
		<path class="st9" d="M142.83,93.96l0.13,1.54c0.02,0.18,0.19,1.14,0.27,1.3c0.22,0.48,0.59,0.67,0.95,0.69
			c0.47,0.03,1.42-0.8,1.08-1.83c-0.29-0.9-0.61-1.85-0.61-1.85C143.98,94.11,143.36,94.22,142.83,93.96z"/>
		<path class="st39" d="M142.44,74.19L142.44,74.19c0.32,0.22,0.77,0.14,1-0.18l0.78-1.13c0.22-0.32,0.14-0.77-0.18-0.99l0,0
			c-0.32-0.22-0.77-0.14-1,0.18l-0.78,1.13C142.03,73.52,142.11,73.97,142.44,74.19z"/>
		<path class="st10" d="M141.32,59.34c0,0,5.67,4.42,5.03,5.96c-0.64,1.54-3.5,6.39-3.5,6.39l1.81,1.02c0,0,5.8-6.24,5.32-8.07
			c-0.6-2.29-5-7.74-5-7.74L141.32,59.34z"/>
		<path class="st41" d="M126.36,46.45l-0.51,0.12c0,0,1.78,10.24,3.46,11.11c1.14,0.59,3.97,0.7,5.68,0.71l-0.01-1.5
			c0,0-3.62,0.13-4.88-0.41C129.01,56.02,126.76,48.1,126.36,46.45z"/>
		<g>
			<path class="st3" d="M138.59,53.75L138.59,53.75c-0.24-0.09-0.43-0.47-0.43-0.85l0.86,0.34
				C139.02,53.61,138.83,53.84,138.59,53.75z"/>
		</g>
	</g>
	<g>
		<path class="st33" d="M11.7,84.01c0,0-0.54-3.81-4.12,5.06c-0.72,1.8-4.29,11.64-4.29,11.64l1.82,1.2c0,0,4.52-9.56,5.42-11.48
			c1.3-2.77,3.7-5.06,3.7-6.12C14.25,83.24,11.7,84.01,11.7,84.01z"/>
		<path class="st5" d="M20.1,129.38c-2.84-1.06-7.67-1.1-10.78-0.08c-1.51,0.49-2.34,1.14-2.47,1.8c-0.13-0.06-0.27-0.11-0.42-0.16
			c-1.57-0.51-3.99-0.5-5.42,0.04c-1.43,0.53-1.31,1.38,0.25,1.89c1.57,0.51,3.99,0.5,5.42-0.04c0.37-0.14,0.63-0.3,0.8-0.47
			c0.32,0.25,0.77,0.49,1.34,0.7c2.84,1.06,7.67,1.1,10.78,0.08S22.94,130.44,20.1,129.38z"/>
		<path class="st43" d="M4.57,126.97c-0.14,1.24-1.73,0.08-1.73-0.86c1.98-6.38,4.1-11.54,6.56-13.67l0.6-13.54l7.55-2.13
			l-3.71,17.61L4.57,126.97z"/>
		<path class="st9" d="M16.92,129.71l1.8,0.63c1.39,0.05,2.1-0.08,2.46,0.46l0.1,0.15c0.36,0.54,0.1,0.82-0.71,1.07l-3.61,0.82
			c-1.05,0.23-1.32-0.11-1.59-0.75c0,0-0.16-0.8,0.56-1.75C16.35,129.79,16.32,129.74,16.92,129.71z"/>
		<path class="st43" d="M18.04,130.54c-0.39,1-2.12,0.78-2.1-0.04c-1.82-12.6-0.58-13.36-0.62-16.11
			c-0.05-3.07-0.65-6.38-2.83-12.21l1.96,0.31c3.12,0.5,5.42,3.18,5.45,6.34C19.97,116.67,19.59,122.86,18.04,130.54z"/>
		<path class="st9" d="M19.19,97.3l1.17,16.5c0,0-5.83,5-13.01-1.21c1.57-2.25,1.77-5.11,1.55-8.15c-0.64-2.86,0.09-5.22,0.91-7.27
			L19.19,97.3z"/>
		
			<ellipse transform="matrix(0.9474 -0.3199 0.3199 0.9474 -24.7753 8.7432)" class="st44" cx="14.22" cy="79.77" rx="2.12" ry="3.74"/>
		<path class="st43" d="M18.3,80.49c-0.15,1.79-1.84,2.76-3.12,1.87c-1.28-0.89-2.21-3.06-2.06-4.84c0.15-1.79,1.31-2.51,2.59-1.62
			C17,76.79,18.45,78.71,18.3,80.49z"/>
		<path class="st39" d="M14.35,86.26l-0.19-0.04c-0.65-0.15-1.07-0.8-0.92-1.45l0.82-3.68c0.15-0.65,0.8-1.07,1.45-0.92l0.19,0.04
			c0.65,0.15,1.07,0.8,0.92,1.45l-0.27,3.65C16.21,85.96,15,86.4,14.35,86.26z"/>
		<path class="st9" d="M12.81,81.84c0,0,0.02,1.21,2.09,0.92c1.65-0.24,0.58-3.1,2.15-3.68c1.73-0.65,1.61-2.91,0.74-3.62
			s-2.92-0.76-4.22,0.16C12.27,76.52,9.37,77.58,12.81,81.84z"/>
		<path class="st9" d="M17.21,79.97c-0.04,0.43-0.41,0.74-0.84,0.71c-0.43-0.04-0.74-0.41-0.71-0.84c0.04-0.43,0.41-0.74,0.84-0.71
			C16.93,79.17,17.24,79.55,17.21,79.97z"/>
		<path class="st33" d="M9.81,97.16c0-2.9,0.1-3.51-0.4-6.81c-0.17-1.1-0.09-1.43-0.2-2.54c-0.19-1.95,0.68-5.51,3.9-4.58l0.29,0.2
			c0.47,0.13,0.93,0.3,1.37,0.53c4.71,2.43,6.49,2.72,5.76,5.7c-0.2,2.24-2.03,2.88-1.33,7.64C18.23,100.5,10.89,99.45,9.81,97.16z"
			/>
		<path class="st45" d="M13.37,82.97c-0.39-0.09-0.75,0.25-0.68,0.64c0.07,0.44,0.34,0.96,1.14,1.24c1.11,0.38,2.33,0.17,2.92,0.03
			c0.14-0.03,0.17-0.22,0.05-0.29C16.13,84.18,14.55,83.25,13.37,82.97z"/>
		<path class="st9" d="M4.56,127.08l-0.41,1.87c0.12,1.39,0.33,2.1-0.17,2.52l-0.14,0.12c-0.5,0.43-1.02,0.17-1.16-0.58l-1.16-3.37
			c-0.14-0.74,0.27-1.38,0.88-1.72c0,0,0.53-0.31,1.41,0.26C4.4,126.54,4.45,126.48,4.56,127.08z"/>
		<path class="st9" d="M12.78,77.58c0,0-1.79-2.22-3.39,0.52c-1.6,2.75-0.71,5.99-2.99,7.58c0,0,3.99,0.05,4.43-2.48
			c0.45-2.53,0.21-4.66,1.64-4.73C13.9,78.41,12.78,77.58,12.78,77.58z"/>
		<path class="st7" d="M8.77,103.71c0,0,0.82,1.47,1.42,1.51c0,0-0.79,0.07-1.25-0.25L8.77,103.71z"/>
		<path class="st7" d="M20.36,113.8l-1.17-16.5l-2.12,1.25c0,0,1.74,14.64,0.41,16.74C17.49,115.29,18.92,114.96,20.36,113.8z"/>
		<path class="st43" d="M26.67,80.84L26.67,80.84c-0.66-0.02-1.22,0.49-1.24,1.15l-0.03,0.86c-0.03,0.66,0.49,1.22,1.15,1.24h0
			c0.66,0.02,1.22-0.49,1.24-1.15l0.03-0.86C27.84,81.42,27.32,80.86,26.67,80.84z"/>
		<path class="st46" d="M19.19,97.3c0,0-0.24-2.89,0.15-3.74c0.39-0.84,1.93-4.44,1.93-4.44L20.36,88c-1,1.75-3.08,1.88-3.3,11.08
			C17.06,99.08,18.96,98.65,19.19,97.3z"/>
		<path class="st33" d="M20.28,87.2l3.28,4.18l2.07-7.37l2.21-0.42c0,0-0.26,11.46-2.72,12.58c-2.3,1.04-6.99-5.92-6.99-5.92
			L20.28,87.2z"/>
		<path class="st43" d="M25.9,82.46L25.9,82.46c-0.23,0-0.42-0.19-0.42-0.42v-2.51c0-0.23,0.19-0.42,0.42-0.42l0,0
			c0.23,0,0.42,0.19,0.42,0.42v2.51C26.33,82.27,26.13,82.46,25.9,82.46z"/>
		<path class="st39" d="M4.92,100.3l-0.28-0.14c-0.51-0.26-1.14-0.06-1.4,0.44l-0.54,1.04c-0.26,0.51-0.06,1.14,0.44,1.4l0.28,0.14
			c0.51,0.26,1.14,0.06,1.4-0.44l0.54-1.04C5.62,101.2,5.42,100.57,4.92,100.3z"/>
	</g>
</g>
</svg>
