<?xml version="1.0" encoding="utf-8"?>
<!-- Generator: Adobe Illustrator 25.3.1, SVG Export Plug-In . SVG Version: 6.00 Build 0)  -->
<svg version="1.1" id="Layer_1" xmlns="http://www.w3.org/2000/svg" xmlns:xlink="http://www.w3.org/1999/xlink" x="0px" y="0px"
	 viewBox="0 0 150 150" style="enable-background:new 0 0 150 150;" xml:space="preserve">
<style type="text/css">
	.st0{fill:#F2F5F7;}
	.st1{fill:#212121;}
	.st2{fill:#BCD5C5;}
	.st3{fill:#FFFFFF;}
	.st4{fill:#E9EDF2;}
	.st5{opacity:0.4;fill:#A8C4E5;}
	.st6{fill:#D6E3FF;}
	.st7{fill:#223A6B;}
	.st8{fill:#221473;}
	.st9{fill:#27427A;}
	.st10{fill:#94B7E0;}
	.st11{opacity:0.2;fill:#FFFFFF;}
	.st12{opacity:0.2;fill:#628FC4;}
	.st13{fill:#4D7CF0;}
	.st14{fill:#446DD4;}
	.st15{fill:#97CBFF;}
	.st16{fill:#DB9833;}
	.st17{fill:#F5BC51;}
	.st18{fill:#F7C750;}
	.st19{fill:#C7DCFF;}
	.st20{opacity:0.15;}
	.st21{fill:#F29700;}
	.st22{fill:#FFA208;}
	.st23{fill:#FFAD24;}
	.st24{fill:#FFC31B;}
	.st25{fill:#FFE7A6;}
	.st26{fill:#FF9F00;}
	.st27{fill:#FFDC7D;}
	.st28{fill:#FFF6DB;}
	.st29{fill:#D98800;}
	.st30{fill:url(#SVGID_1_);}
	.st31{fill:url(#SVGID_2_);}
	.st32{fill:url(#SVGID_3_);}
	.st33{fill:#5CA7FF;}
	.st34{fill:#BAD0FF;}
	.st35{fill:#E6EEFF;}
	.st36{fill:#F1F5FE;}
	.st37{fill:#BEDBFA;}
	.st38{fill:#BF6B6B;}
	.st39{fill:#EA8A6C;}
	.st40{fill:#6F7996;}
	.st41{fill:#628FC4;}
	.st42{fill:#A64C4B;}
	.st43{fill:#FFB49E;}
	.st44{fill:#FFC2B0;}
	.st45{fill:#F5D6CE;}
	.st46{fill:#4F94E3;}
	.st47{fill:#DFEAF4;}
	.st48{fill:#F5A086;}
	.st49{fill:#C9DFF2;}
	.st50{fill:#A8C8E3;}
	.st51{fill:#95C1F5;}
	.st52{fill:#2F4C9C;}
	.st53{fill:#B25D5D;}
	.st54{fill:#5A97DB;}
	.st55{fill:#A3BDFF;}
	.st56{fill:#2C4482;}
	.st57{fill:#FFCCBD;}
	.st58{fill:#B3D1F5;}
	.st59{fill:#7090E0;}
	.st60{fill:#213696;}
	.st61{fill:#1B3A91;}
	.st62{fill:#163078;}
	.st63{fill:url(#SVGID_4_);}
	.st64{fill:#EBF5FF;}
	.st65{fill:#F5FAFF;}
	.st66{fill:#CEDBED;}
	.st67{fill:#B3CCF2;}
	.st68{fill:#CFE5FF;}
	.st69{fill:#3E68DE;}
	.st70{fill:#D9E8FF;}
	.st71{fill:#96B5EB;}
	.st72{fill:#353559;}
	.st73{opacity:0.71;fill:#FFFFFF;}
	.st74{fill:#C2E0FF;}
	.st75{opacity:0.47;fill:#BADDFF;}
	.st76{fill:#BADDFF;}
	.st77{opacity:0.61;fill:#FFFFFF;}
	.st78{fill:#2A66F7;}
	.st79{fill:#5986FF;}
	.st80{fill:#29479C;}
	.st81{fill:#EA986C;}
	.st82{fill:#E69F35;}
	.st83{fill:#D47D62;}
	.st84{fill:#3C61C7;}
	.st85{fill:#363656;}
	.st86{fill:#EDF4FF;}
	.st87{fill:url(#SVGID_5_);}
	.st88{fill:#ABCFFF;}
	.st89{fill:url(#SVGID_6_);}
	.st90{fill:none;stroke:#FFFFFF;stroke-width:2.5103;stroke-miterlimit:10;}
	.st91{fill:none;stroke:#FFFFFF;stroke-width:2.6407;stroke-miterlimit:10;}
	.st92{fill:none;stroke:#FFFFFF;stroke-width:2.5677;stroke-miterlimit:10;}
	.st93{fill:#A8ACBA;}
	.st94{fill:none;stroke:#FFFFFF;stroke-width:2.9223;stroke-linecap:round;stroke-linejoin:round;stroke-miterlimit:10;}
	.st95{fill:none;stroke:#FFFFFF;stroke-width:2.9311;stroke-linecap:round;stroke-linejoin:round;stroke-miterlimit:10;}
	.st96{fill:#ED5353;}
	.st97{fill:none;stroke:#27427A;stroke-width:5.3333;stroke-linecap:round;stroke-linejoin:round;stroke-miterlimit:10;}
</style>
<g>
	<path class="st47" d="M8.83,80.66c6.99-8.47,27.87-14.49,33.73-28.63s28.91-57.03,66.87-42S150,51.31,150,51.31v81.81
		c0,0-5.56,9.6-48.99,9.99C57.58,143.49-27.57,124.75,8.83,80.66z"/>
	<path class="st48" d="M70.68,62.96c-0.05,0.59-0.46,1.08-1.01,1.24c0.14,0.16,0.14,0.16,0.14,0.16c-3.02,1.21-3.4,1.76-4.64,1.86
		c-1.2,0.1-2.14-0.1-2.55-0.2c-1.19-0.25-2.92-1.16-2.92-1.16c0.06-0.22,0.18-0.37,0.34-0.46c-0.68-0.29-1.22-0.58-1.22-0.58
		c0.1-0.36,0.37-0.54,0.72-0.59c-0.92-0.39-1.6-0.8-1.6-1.18c0-1.49,3.73,0.45,3.73,0.45s3.75-0.01,3.79-0.12
		c0.02-0.04,0.36-0.16,0.36-0.42c0-0.43-0.2-0.46-0.64-0.53l-1.55-0.05c0,0-2.12,0-1.87-0.81c0.23-0.72,1.97-0.3,1.97-0.3l3.27-0.26
		l2.12,0.63c0.98,0.29,1.63,1.23,1.55,2.25L70.68,62.96z"/>
	<path class="st49" d="M8.83,80.66c18.86-23.7,136.23,33.84,136.23,33.84s-2.57,22.18-46,22.56C55.63,137.45-26.76,125.4,8.83,80.66
		z"/>
	<path class="st50" d="M9.95,117.78c0,0,12.05-21.08,53.03-9.73c27.76,7.69,45.62,14.01,54.58,19.05c3.36,1.89,2.29,6.98-1.54,7.38
		C94.92,136.74,39.27,140.12,9.95,117.78z"/>
	<ellipse class="st51" cx="66.92" cy="90.05" rx="53.32" ry="23.83"/>
	<path class="st51" d="M103.48,38.28c0,0,18.22,3.01,17.38,16.59c-0.84,13.58-4.07,34.11-4.07,34.11l-29.38-9.99l2.26-42.88
		L103.48,38.28z"/>
	<path class="st52" d="M87.02,70.24l-5.24,9.52l20.01,7.26c0,0,8.43-5.58,3.25-15.99l-7.81,1.35L87.02,70.24z"/>
	<path class="st53" d="M101.04,25.15c0,0,6.96,0.55,6.81,8.43c-0.1,5.25,9.3,8.04,7.95,12.44c-1.35,4.4,4.3,9.48-2.19,11.12
		c-6.5,1.64-13.23-2.61-14.71-10.36c-1.48-7.74-3.03-12.52-2.05-16.59L101.04,25.15z"/>
	<path class="st42" d="M91.46,42.27L112,57.5c1.62-9.29-8.42-12.25-8.21-21.59l-2.76-4.53l-8.54-2.05l-2.56,9.73
		C89.59,40.35,90.24,41.71,91.46,42.27z"/>
	<path class="st53" d="M89.83,38.56c0,0-4.15-1.67-2.38-5.58c1.1-2.43,7.12-3.64,7.12-3.64L89.83,38.56z"/>
	<path class="st42" d="M89.28,33.77c0,0-3.88,9.36,0.78,9.15l1.49,0.12c0,0-0.63-3.17,0.26-9.47L89.28,33.77z"/>
	<g>
		<path class="st48" d="M78.24,66.77c-1.01,0-2.16-0.2-3.47-0.58l-7.19-2.05c-1.09-0.31-1.72-1.44-1.41-2.53
			c0.31-1.09,1.44-1.05,2.53-0.74l7.21,1.38c1.52,0.44,2.62,0.16,3.15-0.08c0.47-0.21,0.85-0.49,1.44-1.74l6.84-14.44
			c0.48-1.02,1.71-1.46,2.73-0.98c1.02,0.48,1.46,1.71,0.98,2.73L84.2,62.18C82.71,65.33,80.95,66.77,78.24,66.77z"/>
	</g>
	<path class="st51" d="M78.66,60.9c0.98,1.37,2.66,3.85,6.06,3.14c0,0,8.6-14.88,7.49-19.64c-1.11-4.76-5.08-1.91-6.32,0.8
		c-0.98,2.15-2.55,7.58-3.6,9.24c-0.53,0.84-2.06,4.03-2.5,4.47C79.33,59.37,78.28,60.37,78.66,60.9z"/>
	<path class="st54" d="M82.15,63.94c0.73,0.23,1.58,0.3,2.57,0.09c0,0,5.26-9.1,7.02-15.34c0.31-1.09-4.19,4.92-7.19,9.71
		c-0.75,1.19-0.05,2.04-0.51,2.96C83.38,62.66,81.76,63.82,82.15,63.94z"/>
	<path class="st55" d="M88.06,46.48l0.08,13.11c0,0,0.41,9.09,0.72,10.58c0,0,3.64,7.18,14.52,0.92l5.2-17.46L88.06,46.48z"/>
	<path class="st54" d="M88.77,61.7l-2.9-5.48c0,0,2.68,10.05,2.99,11.54c0,0,3.64,7.18,14.52,0.92l-1.29-3.04L88.77,61.7z"/>
	<path class="st51" d="M108.76,56.09c0.47-0.28,0.73-0.08,0.73-0.08c0.13-2.77,1.28-6.49-1.17-8.66c-0.73-0.64-9.61-4.49-14.91-5.49
		c-2.57-0.48-4.11-1-4.97,1.22c-0.5,1.3-1.74,5.7-1.74,5.7c0.13,5.09,2.01-1.55,2.6,1.27c-0.02-0.07-0.04-0.14-0.06-0.21
		c0,0,1,4.76,1.77,8.45c0.48,2.3,0.82,3.97,0.85,4.2c0,0.01,0,0.03,0,0.03l11.63,2.31l2.09-3.44l0,0L108.76,56.09z"/>
	<path class="st43" d="M95.17,42.35c0,0-3.69,3.81-0.49,6.51c3.2,2.7,8.97-3.73,8.97-3.73C100.79,43.33,97.72,42.52,95.17,42.35z"/>
	<g>
		<path class="st56" d="M96.35,50.17c-0.36,0-0.71-0.05-1.06-0.16c-1.62-0.52-2.61-1.39-2.94-2.6c-0.69-2.53,1.92-5.51,2.03-5.64
			c0.19-0.21,0.51-0.23,0.72-0.04c0.21,0.19,0.23,0.51,0.04,0.72l0,0c-0.02,0.03-2.36,2.69-1.81,4.69c0.23,0.85,0.99,1.48,2.26,1.89
			c2.55,0.82,6.29-3.03,7.51-4.58c0.18-0.22,0.5-0.26,0.72-0.09c0.22,0.18,0.26,0.5,0.09,0.72C103.74,45.31,99.86,50.17,96.35,50.17
			z"/>
	</g>
	<path class="st43" d="M96.59,43.74l-1.88-9.58l5.79,1.82l1.82,8.5C102.33,44.48,98.07,48.62,96.59,43.74z"/>
	
		<ellipse transform="matrix(0.9732 -0.2298 0.2298 0.9732 -4.7101 23.3716)" class="st43" cx="98.01" cy="31.91" rx="6.77" ry="6.77"/>
	<path class="st43" d="M91.25,31.73c0,0,0.16,2.74-0.17,5.51c-0.17,1.41-0.04,4.89,3.25,5.71c0.39,0.1,0.82,0.13,1.29,0.08
		c4.57-0.48,6.49-4.58,6.06-9.16C101.25,29.3,91.25,31.73,91.25,31.73z"/>
	<path class="st57" d="M95.16,42.95c-3.29-0.82-3.42-4.29-3.25-5.71c0.33-2.78,0.17-5.51,0.17-5.51s2.35-0.57,4.81-0.64
		c-2.77-0.08-5.73,0.64-5.73,0.64s0.16,2.74-0.17,5.51c-0.17,1.41-0.04,4.89,3.25,5.71c0.39,0.1,0.82,0.13,1.29,0.08
		c0.02,0,0.03,0,0.04-0.01C95.44,43,95.3,42.98,95.16,42.95z"/>
	<path class="st58" d="M85.87,58.62c0,0-2.69-5.22,3.57-9L86.6,59.64L85.87,58.62z"/>
	<path class="st51" d="M90.58,47.55c0,0-4.83,3.75-4.71,8.66c0.13,4.92,3.18,5.95,3.18,5.95L90.58,47.55z"/>
	<path class="st54" d="M99,56.33c-7.39,0.18-10.21-4.02-10.21-4.02s1.28,3.49,4.79,4.02C97.09,56.86,99,56.33,99,56.33z"/>
	<path class="st54" d="M102.39,54.87c-0.6,1.03-0.55,5.1-1.34,6.83c-0.69,1.51-0.89,2.72-2.54,2.52c-1.83-0.23-4.11-1.98-6.81-2.63
		c-4.29-1.03-4.16-0.87-5.82-2.96c0,0-0.18,3.75,4.04,4.17c4.42,0.44,6.8,3.25,12.17,2.85l-1.5,6.41c1.4-0.38,1.42-0.16,2.79-0.96
		l6.97-14.95C105.86,52.75,102.39,54.87,102.39,54.87z"/>
	<polygon class="st59" points="87.35,69.76 87.12,67.95 88.21,67.48 87.56,66.54 88.6,64.94 89.88,68.65 	"/>
	<path class="st60" d="M87.02,70.24L87.02,70.24c-0.1,0.4,0.03,0.81,0.34,1.08c1.12,0.97,4.15,3.07,9.13,2.84
		c4.26-0.2,6.79-0.97,8.02-1.47c0.53-0.21,0.81-0.78,0.64-1.32l-0.1-0.33c-0.18-0.59-0.83-0.92-1.42-0.71
		c-2.29,0.79-7.74,2.38-11.41,1.06c-1.69-0.61-2.77-1.21-3.45-1.74C88.14,69.15,87.21,69.47,87.02,70.24z"/>
	<path class="st61" d="M109.15,115.35c-2.52-1.5-5.11-2.93-7.84-4.06c-3.32-1.37-7.53-2.35-10.56,0.11
		c-2.42,1.96-2.71,4.95-2.62,7.63c0.14,4.36,0.09,12.71,0.14,17.08l9.58-0.26c-0.02-1.82-0.16-7.37-0.14-9.18
		c0.02-2.28,0.11-4.56-0.01-6.83c0.19,0.19,0.38,0.39,0.53,0.47c3.67,1.82,7.39,3.08,10.89,5.01c11.27,9.88,22.18-1.18,22.18-1.18
		l5.93-12.28C137.23,111.85,117.61,111.49,109.15,115.35z M97.2,119.4c0.06,0.03,0.13,0.08,0.21,0.15
		C97.3,119.55,97.21,119.54,97.2,119.4z"/>
	<path class="st62" d="M115.46,124.99c-2.52-1.5-8.77-4.46-11.5-5.59c-3.32-1.37-7.52-5.68-10.55-3.22
		c-2.42,1.96-1.71,0.82-1.62,3.5c0.14,4.36,2.67,11.89,2.72,16.25l3.35-0.09c-0.02-1.82-0.16-7.37-0.14-9.18
		c0.02-2.28,0.11-4.56-0.01-6.83c0.19,0.19,0.38,0.39,0.53,0.47c3.67,1.82,7.39,3.08,10.89,5.01c11.27,9.88,22.18-1.18,22.18-1.18
		l5.93-12.28C137.23,111.85,123.92,121.13,115.46,124.99z M97.2,119.4c0.06,0.03,0.13,0.08,0.21,0.15
		C97.3,119.55,97.21,119.54,97.2,119.4z"/>
	<g>
		<path class="st62" d="M126.68,117.8L126.68,117.8c-0.44,0.79,1.31-2.97,0.62-2.32c-1.44,1.35-4.9,6.12-6.95,6.68
			c-2.47,0.67-0.43-0.75-0.43-0.75s-20.6-10.18-20.16-10.68c3.39-3.94,6.6-5.17,13.1-3.03C120.25,110.14,128.76,114.01,126.68,117.8
			z"/>
	</g>
	<linearGradient id="SVGID_1_" gradientUnits="userSpaceOnUse" x1="14.1898" y1="95.7691" x2="120.8388" y2="95.7691">
		<stop  offset="0.0676" style="stop-color:#A8C4E5"/>
		<stop  offset="0.0685" style="stop-color:#A8C4E5"/>
		<stop  offset="0.1354" style="stop-color:#8DB7E9"/>
		<stop  offset="0.2114" style="stop-color:#77ACEC"/>
		<stop  offset="0.3011" style="stop-color:#66A4EF"/>
		<stop  offset="0.4121" style="stop-color:#5B9EF1"/>
		<stop  offset="0.5677" style="stop-color:#549BF2"/>
		<stop  offset="1" style="stop-color:#529AF2"/>
	</linearGradient>
	<ellipse class="st30" cx="67.51" cy="95.77" rx="53.32" ry="23.83"/>
	<ellipse class="st64" cx="67.92" cy="90.34" rx="53.32" ry="23.83"/>
	<g>
		<path class="st43" d="M86.71,73.43c4.1,2.2,14.53,3.58,14.98,2.72c1.47-2.79,4.49-9.62,6.3-12.21c3.27-4.67-1.89-7.11-4.73-2.76
			c-1.48,2.27-2.83,8.33-3.64,10.27c-0.3,0.71-9.31-1.31-15.31-1.07C83.19,70.43,85.72,72.89,86.71,73.43z"/>
	</g>
	<path class="st39" d="M107.23,58.93c0.67,0.82,0.71,2.25-0.53,4.02c-1.72,2.45-4.03,10.38-5.69,11.99
		c-1.99,1.93-11.76-0.02-14.29-1.53c4.1,2.2,14.53,3.58,14.98,2.72c1.47-2.79,4.49-9.62,6.3-12.21
		C109.91,61.19,108.94,59.22,107.23,58.93z"/>
	<g>
		<polygon class="st65" points="78.44,84.48 95.38,79.51 108.98,91.66 92.04,96.63 		"/>
		
			<ellipse transform="matrix(0.0284 -0.9996 0.9996 0.0284 -1.3047 175.9763)" class="st66" cx="89.88" cy="88.66" rx="1.42" ry="2.68"/>
		<path class="st18" d="M89.84,88.67l2.61-0.11c0.3,0.08-0.9-2.18-4.4-0.98L89.84,88.67z"/>
		<path class="st67" d="M80.9,85.3l14.69-4.36c0.17-0.05,0.22-0.17,0.12-0.26l0,0c-0.1-0.09-0.32-0.13-0.49-0.08l-14.69,4.36
			c-0.17,0.05-0.22,0.17-0.12,0.26l0,0C80.51,85.32,80.73,85.35,80.9,85.3z"/>
		<path class="st67" d="M82.03,86.5l14.99-4.45c0.09-0.03,0.11-0.08,0.06-0.13l0,0c-0.05-0.05-0.16-0.06-0.25-0.04l-14.99,4.45
			c-0.09,0.03-0.11,0.08-0.06,0.13l0,0C81.83,86.51,81.94,86.53,82.03,86.5z"/>
		<path class="st67" d="M82.6,87.03l14.99-4.45c0.09-0.03,0.11-0.08,0.06-0.13l0,0c-0.05-0.05-0.16-0.06-0.25-0.04l-14.99,4.45
			c-0.09,0.03-0.11,0.08-0.06,0.13l0,0C82.41,87.04,82.52,87.05,82.6,87.03z"/>
		<path class="st67" d="M91.87,95.3l14.99-4.45c0.09-0.03,0.11-0.08,0.06-0.13l0,0c-0.05-0.05-0.16-0.06-0.25-0.04l-14.99,4.45
			c-0.09,0.03-0.11,0.08-0.06,0.13l0,0C91.68,95.31,91.79,95.33,91.87,95.3z"/>
		<path class="st67" d="M92.45,95.82l14.99-4.45c0.09-0.03,0.11-0.08,0.06-0.13l0,0c-0.05-0.05-0.16-0.06-0.25-0.04l-14.99,4.45
			c-0.09,0.03-0.11,0.08-0.06,0.13l0,0C92.25,95.83,92.37,95.85,92.45,95.82z"/>
		<path class="st67" d="M83.18,87.55l14.99-4.45c0.09-0.03,0.11-0.08,0.06-0.13l0,0c-0.05-0.05-0.16-0.06-0.25-0.04l-14.99,4.45
			c-0.09,0.03-0.11,0.08-0.06,0.13l0,0C82.98,87.56,83.09,87.57,83.18,87.55z"/>
		<path class="st67" d="M92.66,86.79l7.15-2.12c0.13-0.04,0.15-0.14,0.05-0.23l-0.01-0.01c-0.1-0.09-0.28-0.13-0.41-0.09l-7.15,2.12
			c-0.13,0.04-0.15,0.14-0.05,0.23l0.01,0.01C92.35,86.79,92.54,86.83,92.66,86.79z"/>
		<path class="st67" d="M93.22,87.46l7.39-2.19c0.06-0.02,0.07-0.07,0.02-0.11l-0.02-0.02c-0.05-0.04-0.13-0.06-0.19-0.04
			l-7.39,2.19c-0.06,0.02-0.07,0.07-0.02,0.11l0.02,0.02C93.08,87.46,93.16,87.48,93.22,87.46z"/>
		<path class="st67" d="M93.8,87.99l7.39-2.19c0.06-0.02,0.07-0.07,0.02-0.11l-0.02-0.02c-0.05-0.04-0.13-0.06-0.19-0.04l-7.39,2.19
			c-0.06,0.02-0.07,0.07-0.02,0.11l0.02,0.02C93.65,87.98,93.74,88,93.8,87.99z"/>
		<path class="st67" d="M94.37,88.51l7.39-2.19c0.06-0.02,0.07-0.07,0.02-0.11l-0.02-0.02c-0.05-0.04-0.13-0.06-0.19-0.04
			l-7.39,2.19c-0.06,0.02-0.07,0.07-0.02,0.11l0.02,0.02C94.23,88.51,94.31,88.53,94.37,88.51z"/>
		<path class="st67" d="M94.95,89.03l7.39-2.19c0.06-0.02,0.07-0.07,0.02-0.11l-0.02-0.02c-0.05-0.04-0.13-0.06-0.19-0.04
			l-7.39,2.19c-0.06,0.02-0.07,0.07-0.02,0.11l0.02,0.02C94.8,89.03,94.89,89.05,94.95,89.03z"/>
		<path class="st67" d="M89.09,92.74l8.45-2.51c0.16-0.05,0.22-0.16,0.12-0.25l-0.01-0.01c-0.1-0.09-0.31-0.12-0.47-0.07l-8.45,2.51
			c-0.16,0.05-0.22,0.16-0.12,0.25l0.01,0.01C88.72,92.75,88.93,92.79,89.09,92.74z"/>
		<path class="st67" d="M89.63,93.42l8.77-2.6c0.07-0.02,0.1-0.07,0.05-0.11l-0.03-0.02c-0.04-0.04-0.14-0.05-0.21-0.03l-8.77,2.6
			c-0.07,0.02-0.1,0.07-0.05,0.11l0.03,0.02C89.46,93.43,89.56,93.44,89.63,93.42z"/>
		<path class="st67" d="M90.21,93.94l8.77-2.6c0.07-0.02,0.1-0.07,0.05-0.11l-0.03-0.02c-0.04-0.04-0.14-0.05-0.21-0.03l-8.77,2.6
			c-0.07,0.02-0.1,0.07-0.05,0.11L90,93.91C90.04,93.95,90.14,93.97,90.21,93.94z"/>
		<path class="st67" d="M90.79,94.47l8.77-2.6c0.07-0.02,0.1-0.07,0.05-0.11l-0.03-0.02c-0.04-0.04-0.14-0.05-0.21-0.03l-8.77,2.6
			c-0.07,0.02-0.1,0.07-0.05,0.11l0.03,0.02C90.62,94.47,90.71,94.49,90.79,94.47z"/>
		<polygon class="st18" points="104.39,90.34 105.32,90.07 103.36,88.32 102.43,88.6 		"/>
		<polygon class="st18" points="102.14,91 103.07,90.73 100.71,88.62 99.78,88.89 		"/>
		<polygon class="st18" points="103.25,90.68 104.18,90.4 102.79,89.17 101.86,89.44 		"/>
		<polygon class="st18" points="101,91.34 101.93,91.06 100.54,89.83 99.61,90.1 		"/>
		<polygon class="st68" points="80.64,84.75 103.04,94.12 87.13,103.04 64.74,93.67 		"/>
		<polygon class="st3" points="64.69,93.08 80.6,84.16 102.99,93.53 87.09,102.45 		"/>
		<g>
			<path class="st37" d="M68.47,93.58l6.71-3.76c0.07-0.04,0.07-0.1-0.01-0.13l-0.11-0.05c-0.07-0.03-0.19-0.02-0.27,0.02
				l-6.71,3.76c-0.07,0.04-0.07,0.1,0.01,0.13l0.11,0.05C68.28,93.62,68.4,93.62,68.47,93.58z"/>
			<path class="st37" d="M69.87,94.16l6.71-3.76c0.07-0.04,0.07-0.1-0.01-0.13l-0.11-0.05c-0.07-0.03-0.19-0.02-0.27,0.02L69.48,94
				c-0.07,0.04-0.07,0.1,0.01,0.13l0.11,0.05C69.68,94.21,69.8,94.2,69.87,94.16z"/>
			<path class="st37" d="M71.32,94.72L84.9,87.1c0.1-0.06,0.1-0.14-0.01-0.18l0,0c-0.11-0.04-0.28-0.03-0.38,0.02l-13.58,7.61
				c-0.1,0.06-0.1,0.14,0.01,0.18l0,0C71.05,94.78,71.22,94.77,71.32,94.72z"/>
			<path class="st37" d="M79.64,91.42l6.71-3.76c0.07-0.04,0.07-0.1-0.01-0.13l-0.11-0.05c-0.07-0.03-0.19-0.02-0.27,0.02
				l-6.71,3.76c-0.07,0.04-0.07,0.1,0.01,0.13l0.11,0.05C79.45,91.47,79.57,91.46,79.64,91.42z"/>
			<path class="st37" d="M81.04,92.01l6.71-3.76c0.07-0.04,0.07-0.1-0.01-0.13l-0.11-0.05c-0.07-0.03-0.19-0.02-0.27,0.02
				l-6.71,3.76c-0.07,0.04-0.07,0.1,0.01,0.13l0.11,0.05C80.85,92.06,80.97,92.05,81.04,92.01z"/>
			<path class="st37" d="M75.52,96.47l13.58-7.61c0.1-0.06,0.1-0.14-0.01-0.18l0,0c-0.11-0.04-0.28-0.03-0.38,0.02l-13.58,7.61
				c-0.1,0.06-0.1,0.14,0.01,0.18l0,0C75.25,96.54,75.42,96.53,75.52,96.47z"/>
			<path class="st37" d="M83.92,99.99l13.58-7.61c0.1-0.06,0.1-0.14-0.01-0.18l0,0c-0.11-0.04-0.28-0.03-0.38,0.02l-13.58,7.61
				c-0.1,0.06-0.1,0.14,0.01,0.18l0,0C83.65,100.05,83.82,100.04,83.92,99.99z"/>
			<path class="st37" d="M85.32,100.57l13.58-7.61c0.1-0.06,0.1-0.14-0.01-0.18l0,0c-0.11-0.04-0.28-0.03-0.38,0.02l-13.58,7.61
				c-0.1,0.06-0.1,0.14,0.01,0.18l0,0C85.05,100.64,85.22,100.63,85.32,100.57z"/>
			<path class="st37" d="M86.82,101.2l13.58-7.61c0.1-0.06,0.1-0.14-0.01-0.18l0,0c-0.11-0.04-0.28-0.03-0.38,0.02l-13.58,7.61
				c-0.1,0.06-0.1,0.14,0.01,0.18l0,0C86.55,101.27,86.72,101.26,86.82,101.2z"/>
			<path class="st37" d="M72.15,95.16l6.56-3.68l2,0.84l-6.56,3.68L72.15,95.16z M78.72,91.65l-6.21,3.48l1.63,0.68l6.21-3.48
				L78.72,91.65z"/>
			<g>
				<polygon class="st37" points="92.4,94.15 92.56,94.05 86.03,91.32 85.87,91.42 				"/>
				<path class="st37" d="M76.09,96.83l13.96-7.83l6.62,2.77l-13.96,7.83L76.09,96.83z M90.06,89.17L76.45,96.8l6.25,2.62
					l13.61-7.64L90.06,89.17z"/>
				<path class="st37" d="M77.04,97.2l13.94-7.82L93,90.23l-13.94,7.82L77.04,97.2z M90.98,89.55l-13.59,7.62l1.66,0.7l13.59-7.62
					L90.98,89.55z"/>
				<path class="st37" d="M80.72,98.74l13.94-7.82l2.03,0.85l-13.94,7.82L80.72,98.74z M94.67,91.1l-13.59,7.62l1.66,0.7l13.59-7.62
					L94.67,91.1z"/>
				<polygon class="st37" points="88.93,91.58 90.96,90.44 90.7,90.33 88.68,91.47 				"/>
				<polygon class="st37" points="90.84,92.38 92.87,91.24 92.62,91.13 90.59,92.27 				"/>
				<polygon class="st37" points="92.76,93.18 94.79,92.04 94.53,91.93 92.5,93.07 				"/>
				<polygon class="st37" points="86.11,95.03 88.14,93.89 87.89,93.79 85.86,94.92 				"/>
				<polygon class="st37" points="88.03,95.83 90.06,94.69 89.8,94.59 87.77,95.72 				"/>
			</g>
		</g>
		<polygon class="st18" points="78.44,90.73 85.1,86.99 80.69,85.14 74.03,88.88 		"/>
	</g>
	<g>
		<path class="st43" d="M99.78,108.48c-1.51,1.66-4.78,3.44-6.91,1.78c-1.98-1.55-1.13-10.23-2.35-12.72
			c-0.48-0.98,2.15-2.19,2.69-1.24c1.28,2.24,1.96,4.86,2.34,6.94c0.04,0.2,4.26-6.56,4.38-6.6
			C100.15,96.57,108.94,98.44,99.78,108.48z"/>
	</g>
	<g>
		<path class="st69" d="M113.04,65.25c-0.21-0.94-0.18-1.83-0.34-2.21c-0.27-0.64-0.68-0.34-0.68-0.34
			c-0.32,0.66-0.11,1.59,0.21,2.52c0.33,0.95,0.61,1.92,0.8,2.91c0.11,0.59,0.3,1.15,0.55,1.16h0
			C114.05,69.29,113.27,66.24,113.04,65.25z"/>
	</g>
	<g>
		<path class="st9" d="M54.82,91.48l-5.78,2.67c-0.15,0.07-0.38,0.05-0.53-0.04l-3.11-1.93c-0.14-0.09-0.14-0.22,0-0.28l5.78-2.67
			c0.15-0.07,0.38-0.05,0.53,0.04l3.11,1.93C54.96,91.28,54.96,91.41,54.82,91.48z"/>
		<polygon class="st70" points="52.96,90.04 46.65,92.95 45.82,92.44 52.13,89.53 		"/>
		<polygon class="st3" points="53.61,90.68 51.09,91.84 50.73,91.61 53.25,90.45 		"/>
	</g>
	<g>
		<path class="st68" d="M47.33,97.73c-1.46-0.85-4.03-0.96-5.73-0.26c-1.7,0.7-1.89,1.96-0.43,2.8c1.46,0.85,4.03,0.96,5.73,0.26
			C48.6,99.83,48.79,98.58,47.33,97.73z"/>
		<g>
			<path class="st71" d="M47.76,98.14c0.03,0.13-0.02,0.7-0.09,0.84c-0.13,0.46-0.59,0.89-1.37,1.21c-1.7,0.7-4.27,0.58-5.73-0.26
				c-0.68-0.39-1.01-0.88-0.98-1.35c-0.01-0.04,0.02-0.63,0.02-0.63c0.06-0.16,0.15-0.33,0.29-0.48c0.23-0.3,0.62-0.58,1.16-0.8
				c1.7-0.7,4.27-0.58,5.73,0.26C47.4,97.28,47.72,97.71,47.76,98.14z"/>
			
				<ellipse transform="matrix(0.0124 -0.9999 0.9999 0.0124 -54.9045 140.4751)" class="st70" cx="43.66" cy="98.03" rx="1.99" ry="4.06"/>
			<path class="st3" d="M45.91,97.1c-1.07-0.62-2.95-0.71-4.2-0.19c-1.25,0.51-1.39,1.43-0.31,2.05c1.07,0.62,2.95,0.71,4.2,0.19
				C46.85,98.64,46.99,97.72,45.91,97.1z"/>
			<g>
				<path class="st72" d="M41.96,98.39c-0.21-0.15-0.39-0.36-0.4-0.54l0.68-0.03c0.05,0.19,0.14,0.32,0.34,0.43
					c0.23,0.13,0.43,0.14,0.62,0.06c0.43-0.19-0.65-0.79,0.11-1.12c0.41-0.18,0.93-0.17,1.4,0.01L45.14,97l0.39,0.22l-0.42,0.19
					c0.22,0.16,0.27,0.33,0.26,0.49l-0.65-0.02c-0.01-0.14-0.06-0.25-0.23-0.34c-0.2-0.11-0.38-0.13-0.57-0.05
					c-0.4,0.17,0.71,0.76-0.1,1.12c-0.4,0.18-0.93,0.19-1.44-0.01l-0.44,0.19l-0.39-0.22L41.96,98.39z"/>
			</g>
		</g>
		<g>
			<path class="st71" d="M47.8,96.95c0.03,0.13-0.02,0.7-0.09,0.84c-0.13,0.46-0.59,0.89-1.37,1.21c-1.7,0.7-4.27,0.58-5.73-0.26
				c-0.68-0.39-1.01-0.88-0.98-1.35c-0.01-0.04,0.02-0.63,0.02-0.63c0.06-0.16,0.15-0.33,0.29-0.48c0.23-0.3,0.62-0.58,1.16-0.8
				c1.7-0.7,4.27-0.58,5.73,0.26C47.44,96.09,47.76,96.52,47.8,96.95z"/>
			
				<ellipse transform="matrix(0.0124 -0.9999 0.9999 0.0124 -53.6755 139.3414)" class="st70" cx="43.7" cy="96.84" rx="1.99" ry="4.06"/>
			<path class="st3" d="M45.95,95.91c-1.07-0.62-2.95-0.71-4.2-0.19c-1.25,0.51-1.39,1.43-0.31,2.05s2.95,0.71,4.2,0.19
				C46.89,97.45,47.03,96.53,45.95,95.91z"/>
			<g>
				<path class="st72" d="M42,97.2c-0.21-0.15-0.39-0.36-0.4-0.54l0.68-0.03c0.05,0.19,0.14,0.32,0.34,0.43
					c0.23,0.13,0.43,0.14,0.62,0.06c0.43-0.19-0.65-0.79,0.11-1.12c0.41-0.18,0.93-0.17,1.4,0.01l0.43-0.19l0.39,0.22l-0.42,0.19
					c0.22,0.16,0.27,0.33,0.26,0.49l-0.65-0.02c-0.01-0.14-0.06-0.25-0.23-0.34c-0.2-0.11-0.38-0.13-0.57-0.05
					c-0.4,0.17,0.71,0.76-0.1,1.12c-0.4,0.18-0.93,0.19-1.44-0.01l-0.44,0.19l-0.39-0.22L42,97.2z"/>
			</g>
		</g>
		<g>
			<path class="st71" d="M47.85,95.48c0.03,0.13-0.02,0.7-0.09,0.84c-0.13,0.46-0.59,0.89-1.37,1.21c-1.7,0.7-4.27,0.58-5.73-0.26
				c-0.68-0.39-1.01-0.88-0.98-1.35c-0.01-0.04,0.02-0.63,0.02-0.63c0.06-0.16,0.15-0.33,0.29-0.48c0.23-0.3,0.62-0.58,1.16-0.8
				c1.7-0.7,4.27-0.58,5.73,0.26C47.49,94.63,47.81,95.05,47.85,95.48z"/>
			
				<ellipse transform="matrix(0.0124 -0.9999 0.9999 0.0124 -52.1631 137.9456)" class="st70" cx="43.75" cy="95.38" rx="1.99" ry="4.06"/>
			<path class="st3" d="M46,94.45c-1.07-0.62-2.95-0.71-4.2-0.19c-1.25,0.51-1.39,1.43-0.31,2.05s2.95,0.71,4.2,0.19
				C46.94,95.99,47.08,95.07,46,94.45z"/>
		</g>
	</g>
	<g>
		<ellipse class="st68" cx="53.04" cy="101.25" rx="4.06" ry="1.97"/>
		<g>
			<path class="st71" d="M56.09,100.5c0.03,0.13-0.05,0.69-0.13,0.83c-0.15,0.45-0.63,0.88-1.42,1.2c-1.73,0.69-4.29,0.58-5.72-0.26
				c-0.67-0.39-0.97-0.87-0.93-1.34c-0.01-0.04,0.05-0.63,0.05-0.63c0.06-0.16,0.17-0.32,0.31-0.48c0.24-0.3,0.64-0.58,1.19-0.8
				c1.73-0.69,4.29-0.58,5.72,0.26C55.76,99.65,56.06,100.08,56.09,100.5z"/>
			<ellipse class="st70" cx="51.99" cy="100.4" rx="4.06" ry="1.97"/>
			<path class="st3" d="M54.28,99.48c-1.05-0.61-2.92-0.7-4.19-0.19c-1.27,0.51-1.44,1.42-0.39,2.03c1.05,0.61,2.92,0.7,4.19,0.19
				C55.16,101,55.33,100.09,54.28,99.48z"/>
		</g>
	</g>
	<polygon class="st18" points="39.89,81.62 43.37,79.82 40.15,78.58 36.4,80.38 	"/>
	<polygon class="st16" points="43.37,79.82 43.43,82.24 43.53,86.86 40.07,88.56 39.89,81.62 	"/>
	<polygon class="st17" points="39.89,81.62 40.06,88.56 36.53,87.76 36.36,80.38 	"/>
	<polygon class="st15" points="35.57,85.74 38.94,84.01 35.52,82.82 32.12,84.54 	"/>
	<polygon class="st13" points="35.67,91.12 39.03,89.4 38.93,84.02 35.56,85.74 	"/>
	<polygon class="st14" points="35.67,91.12 32.25,89.92 32.15,84.54 35.56,85.74 	"/>
	<polygon class="st19" points="31.06,90.14 34.45,88.42 31.03,87.23 27.63,88.95 	"/>
	<g>
		<polygon class="st15" points="31.12,93.56 31.06,90.14 34.45,88.42 34.51,91.83 		"/>
	</g>
	<polygon class="st19" points="47.68,84.62 63.13,90.92 83.27,79.85 83.27,78.53 69.59,74.76 	"/>
	<polygon class="st19" points="47.68,84.62 41.26,69.57 41.72,68.75 63.35,59.76 68.89,74.09 	"/>
	<polygon class="st3" points="48.45,83.73 63.13,89.61 83.27,78.53 69.59,73.45 	"/>
	<polygon class="st52" points="48.49,83.83 41.72,68.75 63.87,58.29 69.7,73.38 	"/>
	<polygon class="st15" points="48.62,81.9 43.08,69.54 63.37,59.97 68.26,72.51 	"/>
	<g>
		<polygon class="st73" points="61.18,69.95 58.36,63.22 44.87,69.32 47.75,76.17 		"/>
		<g>
			<path class="st74" d="M49.88,75.12c-0.03,0-0.06-0.02-0.07-0.05l-2.86-6.53c-0.02-0.04,0-0.08,0.04-0.1
				c0.04-0.02,0.08,0,0.1,0.04l2.86,6.53c0.02,0.04,0,0.08-0.04,0.1C49.9,75.12,49.89,75.12,49.88,75.12z"/>
		</g>
		<g>
			<path class="st74" d="M54.12,73.06c-0.03,0-0.06-0.02-0.07-0.05l-2.89-6.58c-0.02-0.04,0-0.08,0.04-0.1
				c0.04-0.02,0.08,0,0.1,0.04l2.89,6.58c0.02,0.04,0,0.08-0.04,0.1C54.14,73.05,54.13,73.06,54.12,73.06z"/>
		</g>
		<g>
			<path class="st74" d="M55.92,72.22c-0.03,0-0.06-0.02-0.07-0.05l-2.84-6.47c-0.02-0.04,0-0.08,0.04-0.1
				c0.04-0.02,0.08,0,0.1,0.04l2.84,6.47c0.02,0.04,0,0.08-0.04,0.1C55.94,72.22,55.93,72.22,55.92,72.22z"/>
		</g>
		<g>
			<path class="st74" d="M59.56,70.43c-0.03,0-0.06-0.02-0.07-0.05l-2.81-6.42c-0.02-0.04,0-0.08,0.04-0.1
				c0.04-0.02,0.08,0,0.1,0.04l2.81,6.42c0.02,0.04,0,0.08-0.04,0.1C59.58,70.43,59.57,70.43,59.56,70.43z"/>
		</g>
		<g>
			<path class="st74" d="M51.96,73.97c-0.03,0-0.06-0.02-0.07-0.05l-2.89-6.58c-0.02-0.04,0-0.08,0.04-0.1
				c0.04-0.02,0.08,0,0.1,0.04l2.89,6.58c0.02,0.04,0,0.08-0.04,0.1C51.98,73.97,51.97,73.97,51.96,73.97z"/>
		</g>
		<g>
			<path class="st74" d="M57.61,70.63c-0.03,0-0.06-0.02-0.07-0.05l-2.56-5.84c-0.02-0.04,0-0.08,0.04-0.1
				c0.04-0.02,0.08,0,0.1,0.04l2.56,5.84c0.02,0.04,0,0.08-0.04,0.1C57.63,70.63,57.62,70.63,57.61,70.63z"/>
		</g>
		<g>
			<path class="st74" d="M45.36,71.01c-0.03,0-0.06-0.02-0.07-0.04c-0.02-0.04,0-0.08,0.04-0.1l13.16-6.13
				c0.04-0.02,0.08,0,0.1,0.04c0.02,0.04,0,0.08-0.04,0.1L45.39,71C45.38,71,45.37,71.01,45.36,71.01z"/>
		</g>
		<g>
			<path class="st74" d="M45.91,72.21c-0.03,0-0.06-0.02-0.07-0.04c-0.02-0.04,0-0.08,0.04-0.1l13.16-6.13
				c0.04-0.02,0.08,0,0.1,0.04c0.02,0.04,0,0.08-0.04,0.1L45.94,72.2C45.93,72.2,45.92,72.21,45.91,72.21z"/>
		</g>
		<g>
			<path class="st74" d="M46.46,73.4c-0.03,0-0.06-0.02-0.07-0.04c-0.02-0.04,0-0.08,0.04-0.1l13.16-6.13c0.04-0.02,0.08,0,0.1,0.04
				c0.02,0.04,0,0.08-0.04,0.1L46.49,73.4C46.48,73.4,46.47,73.4,46.46,73.4z"/>
		</g>
		<g>
			<path class="st74" d="M47.01,74.6c-0.03,0-0.06-0.02-0.07-0.04c-0.02-0.04,0-0.08,0.04-0.1l13.16-6.13c0.04-0.02,0.08,0,0.1,0.04
				c0.02,0.04,0,0.08-0.04,0.1L47.05,74.6C47.04,74.6,47.03,74.6,47.01,74.6z"/>
		</g>
		<polygon class="st75" points="56.96,68.75 53.61,70.29 52.62,67.99 55.97,66.45 		"/>
		<polygon class="st3" points="57,68.23 53.65,69.77 52.66,67.46 56.01,65.92 		"/>
		<polygon class="st76" points="56.06,67.13 53.56,68.26 53.4,67.87 55.9,66.74 		"/>
		<polygon class="st76" points="55.7,67.56 53.66,68.49 53.85,68.95 55.89,68.02 		"/>
		<path class="st77" d="M46.9,74.23c0,0,0.56-1.2,1.36-0.72c0.8,0.48,0.93,0.25,1.34-0.33c0.41-0.58-0.54-2.76,0.39-3.07
			c0.93-0.31,1.81,2,2.3,1.8c0.49-0.2-0.2-1.03,0.45-1.28c0.92-0.36,1.69,1.31,2.02,0.82c0.34-0.49,0.26-1.14,0.99-1.38
			c0.61-0.2,1,0.77,1.63,0.49c2.17-0.97-0.77-3.45,1.67-5.6l2.14,4.95l-13.45,6.26L46.9,74.23z"/>
		<g>
			<path class="st78" d="M47.71,74.6c-0.02,0-0.03,0-0.05-0.01c-0.06-0.03-0.08-0.09-0.06-0.15c0.01-0.03,0.34-0.71,0.86-0.87
				c0.22-0.07,0.44-0.04,0.66,0.09c0.69,0.41,0.78,0.28,1.16-0.25l0.03-0.05c0.14-0.2,0.08-0.72,0.02-1.22
				c-0.1-0.79-0.2-1.69,0.43-1.89c0.61-0.2,1.17,0.54,1.61,1.13c0.23,0.31,0.55,0.73,0.68,0.68c0.13-0.06,0.13-0.17,0.1-0.45
				c-0.03-0.28-0.08-0.67,0.35-0.83c0.57-0.22,1.08,0.24,1.45,0.57c0.17,0.16,0.37,0.34,0.47,0.33c0.01,0,0.02,0,0.05-0.04
				c0.1-0.15,0.17-0.32,0.23-0.49c0.14-0.37,0.28-0.75,0.81-0.93c0.35-0.12,0.63,0.09,0.88,0.27c0.25,0.18,0.47,0.34,0.74,0.22
				c0.96-0.43,0.84-1.17,0.69-2.1c-0.16-1.03-0.37-2.32,0.95-3.48c0.05-0.04,0.12-0.04,0.16,0.01c0.04,0.05,0.04,0.12-0.01,0.16
				c-1.23,1.08-1.04,2.25-0.88,3.27c0.15,0.95,0.29,1.85-0.82,2.34c-0.39,0.17-0.69-0.05-0.96-0.25c-0.24-0.17-0.44-0.32-0.68-0.24
				c-0.43,0.14-0.54,0.45-0.67,0.79c-0.07,0.18-0.14,0.37-0.25,0.54c-0.06,0.08-0.13,0.13-0.21,0.14c-0.19,0.02-0.39-0.16-0.65-0.39
				c-0.35-0.31-0.77-0.7-1.22-0.53c-0.25,0.1-0.24,0.29-0.2,0.59c0.03,0.25,0.07,0.56-0.24,0.69c-0.29,0.12-0.58-0.26-0.95-0.75
				c-0.4-0.53-0.9-1.2-1.36-1.05c-0.46,0.15-0.36,0.91-0.27,1.65c0.07,0.57,0.13,1.1-0.06,1.38l-0.03,0.05
				c-0.42,0.59-0.63,0.82-1.46,0.32c-0.16-0.1-0.32-0.12-0.48-0.07c-0.43,0.13-0.72,0.74-0.72,0.75
				C47.8,74.57,47.76,74.6,47.71,74.6z"/>
		</g>
		<path class="st17" d="M56.92,70.22c0.08,0.2-0.02,0.41-0.21,0.46s-0.42-0.07-0.5-0.28c-0.08-0.2,0.02-0.41,0.21-0.46
			C56.62,69.89,56.84,70.02,56.92,70.22z"/>
	</g>
	<polygon class="st73" points="65.39,67.89 62.61,61.36 58.87,63.09 61.65,69.62 	"/>
	<polygon class="st76" points="64.33,66.35 61.84,67.48 61.68,67.1 64.17,65.97 	"/>
	<polygon class="st76" points="63.96,66.77 61.94,67.7 62.13,68.15 64.16,67.23 	"/>
	<g>
		<path class="st79" d="M61.02,62.67c0.52-0.26,1.11-0.2,1.59,0.09l-0.27,0.52c-0.32-0.19-0.71-0.22-1.06-0.05
			c-0.47,0.23-0.7,0.77-0.6,1.3l-0.55,0.11C59.97,63.84,60.31,63.02,61.02,62.67z"/>
		<path class="st79" d="M61.02,62.67c0.52-0.26,1.11-0.2,1.59,0.09l-0.27,0.52c-0.32-0.19-0.71-0.22-1.06-0.05
			c-0.47,0.23-0.7,0.77-0.6,1.3l-0.55,0.11C59.97,63.84,60.31,63.02,61.02,62.67z"/>
		<path class="st17" d="M63.48,64.88l-0.55-0.17c0.07-0.28,0.05-0.59-0.09-0.88c-0.12-0.26-0.32-0.46-0.55-0.58l0.22-0.55
			c0.35,0.18,0.64,0.48,0.83,0.88C63.55,64.01,63.58,64.47,63.48,64.88z"/>
		<g>
			<polygon class="st80" points="62.51,62.7 62.29,63.25 62.51,62.7 			"/>
			<path class="st80" d="M63.48,64.88l-0.55-0.17l0,0c-0.08,0.32-0.28,0.6-0.59,0.75c-0.57,0.28-1.27,0.01-1.56-0.61
				c-0.05-0.11-0.08-0.22-0.11-0.33l-0.55,0.11c0.03,0.16,0.08,0.31,0.15,0.46c0.44,0.92,1.48,1.33,2.32,0.91
				C63.06,65.79,63.37,65.37,63.48,64.88L63.48,64.88z"/>
			<polygon class="st80" points="62.29,63.25 62.29,63.25 62.29,63.25 			"/>
		</g>
	</g>
	<polygon class="st73" points="67.29,72.28 65.7,68.53 61.95,70.22 63.54,73.97 	"/>
	<g>
		<polygon class="st73" points="62.91,74.17 61.37,70.41 48,76.71 49.69,80.72 51.95,79.61 51.96,79.63 		"/>
		
			<ellipse transform="matrix(0.9991 -0.0423 0.0423 0.9991 -3.2356 2.2299)" class="st18" cx="51.09" cy="77.6" rx="1.07" ry="1.31"/>
		<path class="st76" d="M59.65,72.79l-7.02,3.54c-0.11,0.06-0.26-0.02-0.32-0.17l0,0c-0.06-0.15-0.02-0.32,0.09-0.38l7.02-3.54
			c0.11-0.06,0.26,0.02,0.32,0.17l0,0C59.81,72.56,59.77,72.73,59.65,72.79z"/>
		<path class="st76" d="M56.6,75.71l-3.48,1.75c-0.11,0.06-0.26-0.02-0.32-0.17l0,0c-0.06-0.15-0.02-0.32,0.09-0.38l3.48-1.75
			c0.11-0.06,0.26,0.02,0.32,0.17l0,0C56.75,75.48,56.71,75.65,56.6,75.71z"/>
		<g>
			<path class="st3" d="M51.25,78.3c-0.02,0-0.04,0-0.07-0.01l-0.72-0.35c-0.08-0.04-0.11-0.13-0.07-0.2
				c0.04-0.08,0.13-0.11,0.2-0.07l0.53,0.25l0.09-1.08c0.01-0.08,0.08-0.15,0.17-0.14c0.08,0.01,0.15,0.08,0.14,0.17l-0.11,1.3
				c0,0.05-0.03,0.09-0.08,0.12C51.3,78.29,51.28,78.3,51.25,78.3z"/>
		</g>
	</g>
	<g>
		<g>
			<g>
				<path class="st19" d="M69.4,75.69c0.05,0.02,0.12,0.01,0.16-0.01l1.25-0.63c0.05-0.02,0.04-0.06,0-0.07l-1.26-0.47
					c-0.05-0.02-0.12-0.01-0.16,0.01l-1.25,0.63c-0.05,0.02-0.04,0.06,0,0.07L69.4,75.69z"/>
				<path class="st19" d="M68.54,77.65c0.05,0.02,0.12,0.01,0.17-0.01l1.25-0.63c0.05-0.02,0.04-0.06,0-0.07l-1.27-0.47
					c-0.04-0.02-0.12-0.01-0.16,0.01l-1.25,0.63c-0.05,0.02-0.04,0.06,0,0.07L68.54,77.65z"/>
				<path class="st19" d="M69.88,78.51c0.05,0.02,0.12,0.01,0.16-0.01l1.25-0.63c0.04-0.02,0.05-0.06,0-0.07l-1.27-0.47
					c-0.04-0.02-0.12-0.01-0.16,0.01l-1.25,0.63c-0.04,0.02-0.04,0.06,0,0.07L69.88,78.51z"/>
				<path class="st19" d="M72.46,78.73c0.05,0.02,0.12,0.01,0.16-0.01l1.25-0.63c0.04-0.02,0.04-0.06,0-0.07l-1.27-0.47
					c-0.05-0.02-0.12-0.01-0.16,0.01l-1.25,0.63c-0.04,0.02-0.04,0.06,0,0.07L72.46,78.73z"/>
				<path class="st19" d="M76.59,78.37c0.05,0.02,0.12,0.01,0.16-0.01L78,77.73c0.05-0.02,0.04-0.06,0-0.07l-1.49-0.55
					c-0.04-0.02-0.12-0.01-0.16,0.01l-1.25,0.63c-0.05,0.02-0.04,0.06,0,0.07L76.59,78.37z"/>
				<path class="st19" d="M74.43,79.46c0.05,0.02,0.13,0.01,0.19-0.02l1.64-0.83c0.06-0.03,0.07-0.07,0.02-0.09l-1.49-0.55
					c-0.04-0.02-0.13-0.01-0.19,0.02l-1.64,0.83c-0.06,0.03-0.07,0.07-0.02,0.09L74.43,79.46z"/>
				<path class="st19" d="M63.65,84.92c0.04,0.01,0.11,0.01,0.15-0.02l1.25-0.63c0.05-0.02,0.05-0.05,0.01-0.07L64.52,84
					c-0.04-0.01-0.11-0.01-0.15,0.02l-1.25,0.63c-0.05,0.02-0.05,0.05-0.01,0.07L63.65,84.92z"/>
				<path class="st19" d="M61.99,85.79c0.04,0.01,0.11,0.01,0.15-0.02l1.25-0.63c0.05-0.02,0.05-0.05,0.01-0.07l-0.55-0.2
					c-0.04-0.01-0.11-0.01-0.15,0.02l-1.25,0.63c-0.05,0.02-0.05,0.05-0.01,0.07L61.99,85.79z"/>
				<path class="st19" d="M60.21,86.67c0.04,0.01,0.1,0.01,0.15-0.02l1.25-0.63c0.04-0.02,0.05-0.05,0.02-0.07l-0.53-0.2
					c-0.04-0.01-0.1-0.01-0.15,0.02l-1.25,0.63c-0.05,0.02-0.05,0.05-0.02,0.07L60.21,86.67z"/>
				<path class="st19" d="M60.96,85.42c0.04,0.01,0.1,0.01,0.15-0.02l1.25-0.63c0.04-0.02,0.05-0.05,0.02-0.07l-0.53-0.2
					c-0.04-0.01-0.1-0.01-0.15,0.02l-1.25,0.63c-0.05,0.02-0.05,0.05-0.02,0.07L60.96,85.42z"/>
				<path class="st19" d="M65.81,83.82c0.05,0.02,0.12,0.01,0.17-0.01l8.15-4.12c0.04-0.02,0.04-0.06,0-0.07l-1.49-0.55
					c-0.04-0.02-0.12-0.01-0.16,0.01l-8.15,4.12c-0.05,0.02-0.04,0.06,0,0.07L65.81,83.82z"/>
				<path class="st19" d="M74.57,79.18c0,0,0.01,0,0.01,0l0.96-0.48c0.01,0,0.01-0.01,0-0.01l-0.09-0.03c0,0-0.01,0-0.01,0
					l-0.96,0.48c-0.01,0-0.01,0.01,0,0.01L74.57,79.18z"/>
				<polygon class="st19" points="76.97,77.84 76.98,77.84 77.39,77.63 77.39,77.63 77.3,77.6 77.29,77.6 76.88,77.8 76.88,77.81 
									"/>
				<path class="st19" d="M70.75,79.6c0.05,0.02,0.12,0.01,0.16-0.01l1.25-0.63c0.04-0.02,0.04-0.06,0-0.07l-1.27-0.47
					c-0.05-0.02-0.12-0.01-0.16,0.01l-1.25,0.63c-0.05,0.02-0.04,0.06,0,0.07L70.75,79.6z"/>
				<path class="st19" d="M69.02,80.47c0.05,0.02,0.12,0.01,0.16-0.01l1.25-0.63c0.04-0.02,0.04-0.06,0-0.07l-1.27-0.47
					c-0.05-0.02-0.12-0.01-0.17,0.01l-1.25,0.63c-0.04,0.02-0.04,0.06,0,0.07L69.02,80.47z"/>
				<path class="st19" d="M67.3,81.34c0.05,0.02,0.12,0.01,0.16-0.01l1.25-0.63c0.04-0.02,0.04-0.06,0-0.07l-1.27-0.47
					c-0.05-0.02-0.12-0.01-0.16,0.01l-1.25,0.63c-0.04,0.02-0.04,0.06,0,0.07L67.3,81.34z"/>
				<path class="st19" d="M65.57,82.21c0.05,0.02,0.12,0.01,0.16-0.01l1.25-0.63c0.05-0.02,0.04-0.06,0-0.07l-1.27-0.47
					c-0.05-0.02-0.12-0.01-0.16,0.01l-1.25,0.63c-0.05,0.02-0.04,0.06,0,0.07L65.57,82.21z"/>
				<path class="st19" d="M63.85,83.09c0.05,0.02,0.12,0.01,0.17-0.01l1.25-0.63c0.04-0.02,0.04-0.06,0-0.07L64,81.9
					c-0.05-0.02-0.12-0.01-0.16,0.01l-1.25,0.63c-0.05,0.02-0.04,0.06,0,0.07L63.85,83.09z"/>
				<path class="st19" d="M62.13,83.96c0.05,0.02,0.12,0.01,0.16-0.01l1.25-0.63c0.05-0.02,0.04-0.06,0-0.07l-1.27-0.47
					c-0.05-0.02-0.12-0.01-0.16,0.01l-1.25,0.63c-0.04,0.02-0.04,0.06,0,0.07L62.13,83.96z"/>
				<path class="st19" d="M58.24,85.92c0.05,0.02,0.12,0.01,0.16-0.01l3.41-1.73c0.05-0.02,0.04-0.06,0-0.07l-1.27-0.47
					c-0.05-0.02-0.12-0.01-0.16,0.01l-3.41,1.73c-0.05,0.02-0.04,0.06,0,0.07L58.24,85.92z"/>
				<path class="st19" d="M68.16,79.38c0.05,0.02,0.12,0.01,0.16-0.01l1.25-0.63c0.05-0.02,0.05-0.05,0-0.07l-1.27-0.47
					c-0.04-0.02-0.12-0.01-0.16,0.01l-1.25,0.63c-0.05,0.02-0.04,0.06,0,0.07L68.16,79.38z"/>
				<path class="st19" d="M66.44,80.25c0.05,0.02,0.12,0.01,0.16-0.01l1.25-0.63c0.04-0.02,0.04-0.05,0-0.07l-1.27-0.47
					c-0.04-0.02-0.12-0.01-0.16,0.01l-1.25,0.63c-0.04,0.02-0.04,0.06,0,0.07L66.44,80.25z"/>
				<path class="st19" d="M64.71,81.12c0.05,0.02,0.12,0.01,0.16-0.01l1.25-0.63c0.04-0.02,0.05-0.06,0-0.07l-1.27-0.47
					c-0.04-0.02-0.12-0.01-0.16,0.01l-1.25,0.63c-0.04,0.02-0.04,0.06,0,0.07L64.71,81.12z"/>
				<path class="st19" d="M62.99,81.99c0.05,0.02,0.12,0.01,0.16-0.01l1.25-0.63c0.05-0.02,0.05-0.06,0-0.07l-1.27-0.47
					c-0.04-0.02-0.12-0.01-0.16,0.01l-1.25,0.63c-0.04,0.02-0.04,0.06,0,0.07L62.99,81.99z"/>
				<path class="st19" d="M61.26,82.86c0.05,0.02,0.12,0.01,0.16-0.01l1.25-0.63c0.05-0.02,0.04-0.05,0-0.07l-1.27-0.47
					c-0.04-0.02-0.12-0.01-0.16,0.01L60,82.32c-0.04,0.02-0.04,0.06,0,0.07L61.26,82.86z"/>
				<path class="st19" d="M59.54,83.74c0.05,0.02,0.12,0.01,0.16-0.01l1.25-0.63c0.05-0.02,0.05-0.06,0-0.07l-1.27-0.47
					c-0.04-0.02-0.12-0.01-0.16,0.01l-1.25,0.63c-0.04,0.02-0.04,0.06,0,0.07L59.54,83.74z"/>
				<path class="st19" d="M57.82,84.61c0.05,0.02,0.12,0.01,0.16-0.01l1.25-0.63c0.04-0.02,0.04-0.05,0-0.07l-1.27-0.47
					c-0.04-0.02-0.12-0.01-0.16,0.01l-1.25,0.63c-0.04,0.02-0.04,0.06,0,0.07L57.82,84.61z"/>
				<path class="st19" d="M66.83,78.52c0.05,0.02,0.12,0.01,0.17-0.01l1.25-0.63c0.04-0.02,0.04-0.05,0-0.07l-1.27-0.47
					c-0.04-0.02-0.12-0.01-0.16,0.01l-1.25,0.63c-0.05,0.02-0.04,0.06,0,0.07L66.83,78.52z"/>
				<path class="st19" d="M65.1,79.39c0.05,0.02,0.12,0.01,0.16-0.01l1.25-0.63c0.05-0.02,0.04-0.06,0-0.07l-1.27-0.47
					c-0.04-0.02-0.12-0.01-0.16,0.01l-1.25,0.63c-0.04,0.02-0.04,0.06,0,0.07L65.1,79.39z"/>
				<path class="st19" d="M63.38,80.26c0.05,0.02,0.12,0.01,0.17-0.01l1.25-0.63c0.04-0.02,0.04-0.05,0-0.07l-1.27-0.47
					c-0.04-0.02-0.12-0.01-0.16,0.01l-1.25,0.63c-0.05,0.02-0.04,0.06,0,0.07L63.38,80.26z"/>
				<path class="st19" d="M61.65,81.14c0.05,0.02,0.12,0.01,0.16-0.01l1.25-0.63c0.05-0.02,0.04-0.06,0-0.07l-1.27-0.47
					c-0.04-0.02-0.12-0.01-0.16,0.01l-1.25,0.63c-0.05,0.02-0.04,0.06,0,0.07L61.65,81.14z"/>
				<path class="st19" d="M59.93,82.01c0.05,0.02,0.12,0.01,0.16-0.01l1.25-0.63c0.05-0.02,0.04-0.06,0-0.07l-1.27-0.47
					c-0.04-0.02-0.12-0.01-0.16,0.01l-1.25,0.63c-0.04,0.02-0.04,0.05,0,0.07L59.93,82.01z"/>
				<path class="st19" d="M58.2,82.88c0.05,0.02,0.12,0.01,0.17-0.01l1.25-0.63c0.04-0.02,0.04-0.06,0-0.07l-1.27-0.47
					c-0.04-0.02-0.12-0.01-0.16,0.01l-1.25,0.63c-0.05,0.02-0.04,0.06,0,0.07L58.2,82.88z"/>
				<path class="st19" d="M56.48,83.75c0.05,0.02,0.12,0.01,0.16-0.01l1.25-0.63c0.05-0.02,0.04-0.06,0-0.07l-1.27-0.47
					c-0.04-0.02-0.12-0.01-0.16,0.01l-1.25,0.63c-0.04,0.02-0.04,0.06,0,0.07L56.48,83.75z"/>
				<path class="st19" d="M70.27,76.78c0.05,0.02,0.12,0.01,0.17-0.01l2.12-1.07c0.05-0.02,0.04-0.06,0-0.07l-1.27-0.47
					c-0.04-0.02-0.12-0.01-0.16,0.01L69,76.24c-0.05,0.02-0.04,0.06,0,0.07L70.27,76.78z"/>
				<path class="st19" d="M53.01,83.97c0.05,0.02,0.12,0.01,0.16-0.01l2.12-1.07c0.04-0.02,0.04-0.06,0-0.07l-1.26-0.47
					c-0.05-0.02-0.12-0.01-0.16,0.01l-2.12,1.07c-0.05,0.02-0.04,0.06,0,0.07L53.01,83.97z"/>
				<path class="st19" d="M71.6,77.64c0.05,0.02,0.12,0.01,0.16-0.01l2.53-1.28c0.05-0.02,0.05-0.06,0-0.07l-1.27-0.47
					c-0.04-0.02-0.12-0.01-0.16,0.01l-2.53,1.28c-0.05,0.02-0.04,0.06,0,0.07L71.6,77.64z"/>
				<path class="st19" d="M74.19,77.86c0.05,0.02,0.12,0.01,0.16-0.01l1.69-0.85c0.05-0.02,0.04-0.06,0-0.07l-1.27-0.47
					c-0.05-0.02-0.12-0.01-0.16,0.01l-1.69,0.85c-0.05,0.02-0.04,0.06,0,0.07L74.19,77.86z"/>
				<path class="st19" d="M67.67,76.56c0.05,0.02,0.12,0.01,0.16-0.01l1.25-0.63c0.05-0.02,0.04-0.06,0-0.07l-1.26-0.47
					c-0.05-0.02-0.12-0.01-0.16,0.01l-1.25,0.63c-0.05,0.02-0.05,0.06,0,0.07L67.67,76.56z"/>
				<path class="st19" d="M65.96,77.43c0.05,0.02,0.12,0.01,0.16-0.01l1.25-0.63c0.04-0.02,0.04-0.06,0-0.07l-1.26-0.47
					c-0.05-0.02-0.12-0.01-0.16,0.01l-1.25,0.63c-0.05,0.02-0.05,0.06,0,0.07L65.96,77.43z"/>
				<path class="st19" d="M64.23,78.3c0.05,0.02,0.12,0.01,0.16-0.01l1.25-0.63c0.04-0.02,0.04-0.06,0-0.07l-1.26-0.47
					c-0.05-0.02-0.12-0.01-0.16,0.01l-1.25,0.63c-0.05,0.02-0.04,0.05,0,0.07L64.23,78.3z"/>
				<path class="st19" d="M62.51,79.17c0.05,0.02,0.12,0.01,0.16-0.01l1.25-0.63c0.05-0.02,0.04-0.06,0-0.07l-1.26-0.47
					c-0.05-0.02-0.12-0.01-0.16,0.01l-1.25,0.63c-0.05,0.02-0.04,0.06,0,0.07L62.51,79.17z"/>
				<path class="st19" d="M60.78,80.04c0.05,0.02,0.12,0.01,0.16-0.01l1.25-0.63c0.05-0.02,0.04-0.06,0-0.07l-1.26-0.47
					c-0.05-0.02-0.12-0.01-0.16,0.01l-1.25,0.63c-0.05,0.02-0.04,0.05,0,0.07L60.78,80.04z"/>
				<path class="st19" d="M59.06,80.92c0.05,0.02,0.12,0.01,0.16-0.01l1.25-0.63c0.04-0.02,0.04-0.05,0-0.07l-1.26-0.47
					c-0.05-0.02-0.12-0.01-0.16,0.01l-1.25,0.63c-0.04,0.02-0.04,0.06,0,0.07L59.06,80.92z"/>
				<path class="st19" d="M57.33,81.79c0.05,0.02,0.12,0.01,0.16-0.01l1.25-0.63c0.05-0.02,0.05-0.06,0-0.07l-1.26-0.47
					c-0.05-0.02-0.12-0.01-0.17,0.01l-1.25,0.63c-0.05,0.02-0.04,0.06,0,0.07L57.33,81.79z"/>
				<path class="st19" d="M55.61,82.66c0.05,0.02,0.12,0.01,0.16-0.01l1.25-0.63c0.04-0.02,0.04-0.05,0-0.07l-1.26-0.47
					c-0.05-0.02-0.12-0.01-0.16,0.01l-1.25,0.63c-0.04,0.02-0.04,0.05,0,0.07L55.61,82.66z"/>
				<path class="st19" d="M54.74,83.45c0.02-0.01,0.05-0.02,0.08-0.02c0.03,0,0.06,0,0.08,0.01l1.27,0.47
					c0.02,0.01,0.03,0.02,0.04,0.03c0,0.01-0.01,0.03-0.03,0.04l-0.33,0.17l1.66,0.62c0.02,0.01,0.03,0.02,0.03,0.03
					c0,0.01-0.01,0.03-0.03,0.04l-0.84,0.43c-0.02,0.01-0.05,0.02-0.08,0.02c-0.03,0-0.06,0-0.08-0.01l-3.01-1.12
					c-0.02-0.01-0.03-0.02-0.03-0.03c0-0.01,0.01-0.03,0.03-0.04L54.74,83.45z"/>
				<path class="st19" d="M74.29,77.49c0,0,0.01,0,0.01,0L75.26,77c0.01,0,0.01-0.01,0-0.01l-0.09-0.03c0,0-0.01,0-0.01,0
					l-0.96,0.48c-0.01,0-0.01,0.01,0,0.01L74.29,77.49z"/>
			</g>
		</g>
	</g>
	<path class="st19" d="M70.73,84.89l4.59-2.42c0.05-0.03,0.03-0.08-0.05-0.11l-2.84-1.13c-0.08-0.03-0.19-0.03-0.24-0.01l-4.59,2.42
		c-0.05,0.03-0.03,0.08,0.05,0.11l2.84,1.13C70.57,84.92,70.67,84.92,70.73,84.89z"/>
	<polygon class="st43" points="101.43,85.32 115.63,84.22 114.39,90.45 99.92,88.5 	"/>
	<path class="st9" d="M118.26,129.48L95.74,117.8c-3.65-1.89-6.47-1-6.27,1.97l0.19,2.86c0.2,2.98,3.35,6.96,7,8.85l2.4,1.24
		c13.39,4.86,18.45,2.5,23.34,0C121.22,131.43,119.79,130.27,118.26,129.48z"/>
	<g>
		<path class="st43" d="M94.08,87.22c0,0-3.28,1.81-3.44,0.49c-0.04-0.33,0.56-0.72,1.37-1.08c-0.33-0.04-0.6-0.19-0.73-0.5
			c0,0,0.47-0.27,1.08-0.54c-0.16-0.08-0.29-0.21-0.37-0.4c0,0,1.52-0.85,2.61-1.1c0.37-0.1,1.37,0.05,2.5,0.11
			c1.16,0.06,1.5,0.09,4.44,1.1c0,0-0.07,0.1-0.18,0.24c0.53,0.14,0.96,0.56,1.07,1.08l0.01,0.06c0.18,0.91-0.33,1.76-1.21,2.04
			l-1.91,0.6l-3.08-0.16c0,0-1.59,0.41-1.87-0.23c-0.32-0.71,1.66-0.76,1.66-0.76l1.44-0.08c0.4-0.08,0.58-0.1,0.54-0.49
			c-0.02-0.23-0.36-0.33-0.38-0.36C97.58,87.15,94.08,87.22,94.08,87.22z"/>
		<g>
			<polygon class="st81" points="92.04,86.69 91.99,86.57 93.86,85.71 93.88,85.71 97.62,86.11 97.61,86.25 93.88,85.85 			"/>
		</g>
		<g>
			<path class="st81" d="M92.42,85.63l-0.11-0.09c0.09-0.12,1.47-0.77,1.89-0.96l0.02-0.01l0.02,0l3.75,0.4l-0.01,0.14l-3.73-0.4
				C93.57,85.02,92.5,85.54,92.42,85.63z"/>
		</g>
	</g>
	<path class="st18" d="M136.11,85.89c0-0.33-0.01-0.68-0.05-1.04c-0.23-2.58-0.07-3.64-1.95-5.49c-3.22-3.17-6.84-3.7-11.07-2.35
		c0,0-1,4.7-9.97,5.46c-1.57,0.9-3.31,1.67-5.26,2.47c-4.74,1.96-4.17,7.81-2.5,10.69c1.87,11.79,2.57,6.53,1.43,16.32
		c-0.4,3.41,0.57,6.85,2.7,9.55c13,16.43,21.14,6.04,28.02-6.26C139.12,114.7,137.52,100.8,136.11,85.89z"/>
	<path class="st82" d="M105.32,95.1l8.09-2.77c0.1,1.84-0.85,4.86-0.73,8.07c0.16,4.14,1.35,8.58,1.02,11.06
		c-1.46,10.81-0.57,11.24,5.52,18.25c-4.8-3.02-8.85-6.36-11.48-10.31c-0.95-1.43-1.36-3.16-1.17-4.86
		C107.12,109.27,106.91,108.32,105.32,95.1z"/>
	<path class="st9" d="M115.56,104.91l-9.71,21.97c-0.12,0.28-0.28,0.66-0.44,1.1c-1.12,3.02,0.24,7.44,3.46,7.34
		c3.76,0.7,7.7,0.08,11.78-1.6l13.29-5.45c7.05-2.89,11.66-10.27,11.66-18.68l0-14.4c0-4.83-4.59-8.18-8.52-6.21l-11.68,5.85
		C121.25,96.9,117.31,100.93,115.56,104.91z"/>
	<path class="st7" d="M117.81,107.51c2.72-3.74,7.2-7.65,11.35-9.72l11.68-5.85c1.41-0.71,2.54-0.71,3.88-0.22
		c-1.3-3.27-4.49-5.11-7.64-3.54l-11.68,5.85c-4.14,2.07-8.08,6.11-9.84,10.09l-9.71,21.97c-0.12,0.28-0.28,0.66-0.44,1.1
		C104.41,129.92,117.81,107.51,117.81,107.51z"/>
	<g>
		<path class="st43" d="M77.19,68.56c0,0.01-0.09,0.28,0.12,0.53c0,0,0,0,0,0.01c0.39,0.45,1.44,0.55,3.14,0.3
			c0.06,0,0.29,0.06,0.6,0.13c-0.56,0.13-1.16,0.45-1.5,0.84c-1.36,1.56-1.67,2.53-1.68,2.57L77.86,73l0.03,0.05
			c0.01,0.02,0.12,0.18,0.37,0.19c0.5,0.02,1.18-0.58,2.02-1.76c0.23-0.32,0.61-0.51,1.14-0.56c-0.33,0.09-0.62,0.27-0.81,0.5
			C80,72.15,79.06,73.93,79.02,74l-0.04,0.07l0.05,0.06c0.01,0.02,0.12,0.16,0.36,0.15c0.08,0,0.17-0.02,0.26-0.06
			c-0.02,0.02-0.03,0.04-0.03,0.04l-0.08,0.1l0.11,0.08c0.77,0.57,1.43-0.24,1.91-0.84c0.06-0.08,0.12-0.15,0.18-0.22
			c0.23-0.27,0.62-0.56,0.99-0.49c1.01,0.2,1.75,0.43,2.06,0.63c0.08,0.05,0.8,0.32,0.9,0.36c1.9,0.9,3.01-1.46,1.8-3.21
			c-2.17-0.88-5.11-2.64-6.48-2.49l-0.02-0.01l-3.77,0.29L77.19,68.56z"/>
		<g>
			<polygon class="st81" points="79.83,74.15 79.74,74.08 81.8,71.63 83.47,71.79 83.46,71.9 81.85,71.74 			"/>
		</g>
		<g>
			
				<rect x="81.94" y="70.36" transform="matrix(0.0231 -0.9997 0.9997 0.0231 9.1808 151.2598)" class="st81" width="0.11" height="1.14"/>
		</g>
	</g>
	<path class="st43" d="M92.04,99.62c-0.59-0.06,0.04-0.93-0.12-1.43c0.24,0.9-0.89,1.23-0.89,1.23c-1.42-2.11-1.03-2.92-1.45-3.95
		c-0.46-1.13-0.9-1.66-0.9-1.66c0-0.2-0.06-1.14,0.87-0.73c-0.41-1.08,1.09-1.85,1.09-1.85c0.36,0.1,0.1,0.08,0.17,0.23
		c-0.55-0.63-0.52-1.47-0.17-1.35c1.27,0.4,1.92,1.16,1.92,1.16s0.75,1.07,0.86,1.11c0.04,0.02-0.03,2.28,0.23,2.28
		c0.43,0.01-0.11,0.49-0.03,0.11l0.07-1.39c0,0,0.02-1.9,0.82-1.65c0.72,0.22,0.28,1.77,0.28,1.77l0.23,2.93l-0.65,1.88
		c-0.3,0.87-1.25,1.42-2.27,1.32L92.04,99.62z"/>
	<path class="st39" d="M96.86,42.73c-0.37,0.09,2.06-0.59,2.41,2.84c0.11,1.04,2.43-0.41,3.06-1.09l-1.04-5.17
		C101.29,39.3,99.28,42.11,96.86,42.73z"/>
	<path class="st39" d="M98.51,42.11c0,0,2.65-2.3,1.35-6.98c0,0-3.9-0.6-4.25-3.65c-0.35-3.04,6.12,2.67,6.12,2.67l-0.45,5.14
		C101.29,39.3,100.01,42.49,98.51,42.11z"/>
	<path class="st42" d="M95.62,29.83c0.75,4.78,8.84,4.49,7.86,8.45c0,0,2.76-6.06,1.61-8.96C103.95,26.42,95.9,21.06,95.62,29.83z"
		/>
	<path class="st53" d="M87.22,33.57c0,0,9.72-1.41,11.64-4.13c1.02-1.44,1.68-2.62,2.08-3.42c0.3-0.6-0.08-1.42-0.79-1.7
		c-2.35-0.95-7.01-2.1-9.58,2.37C87.87,31.39,87.22,33.57,87.22,33.57z"/>
	<path class="st39" d="M102.85,39.14c-0.89,0.74-1.9,0.48-2.26-0.57c-0.36-1.05,0.06-2.5,0.94-3.24c0.89-0.74,1.9-0.48,2.26,0.57
		C104.15,36.96,103.73,38.41,102.85,39.14z"/>
	<path class="st83" d="M101.76,36.34c0,0,0.45-0.82,0.97-0.39c0.52,0.43,0.15,2.25-0.49,2.32s0.21-0.62-0.14-0.99
		C101.76,36.93,101.57,36.84,101.76,36.34z"/>
	<path class="st42" d="M91.17,27.77c-1.35,2.35-2.31,4.23-2.99,5.65c-0.6,0.1-0.96,0.16-0.96,0.16s0.66-2.18,3.36-6.88
		c1.75-3.04,4.47-3.48,6.77-3.15C95.07,23.81,92.8,24.93,91.17,27.77z"/>
	<path class="st39" d="M96.21,46.16c-0.09-0.02-0.18,0.03-0.19,0.12c-0.04,0.24-0.03,0.62,0.56,0.43
		C97.37,46.46,97.54,46.53,96.21,46.16z"/>
	<path class="st39" d="M99.63,71.45c0,0,0.74,2.51,2.53,2.66l0.33-0.94l-2.72-2.06L99.63,71.45z"/>
	<path class="st51" d="M99.28,70.38c0,0,2.63,4.73,5.23,2.3c0,0,5.22-13.28,5.33-14.75c0.23-3.03,0.93-8.84-1.67-10.39
		c-3.84-2.31-6.87,2.78-5.43,4.92C104.19,54.6,99.28,70.38,99.28,70.38z"/>
	<path class="st54" d="M102.45,73.32c0.65,0.15,1.36,0.02,2.06-0.64c0,0,5.22-13.28,5.33-14.75c0.23-3.03,0.93-8.84-1.67-10.39
		C109.5,51.88,107.36,66.09,102.45,73.32z"/>
	<path class="st54" d="M103.65,45.12c0,0,3.87,1.66,4.62,2.18c1.54,1.06,1.68,3.24,1.68,3.24l0.11,1.34c0,0-1.29-1.65-1.59-2.73
		c-0.33-1.19-2.23-1.44-2.79-2.17c-0.57-0.73-2.55-0.44-2.76-0.5C102.69,46.41,103.65,45.12,103.65,45.12z"/>
	<path class="st43" d="M106.44,71.81c0.17,2.07,0.85,3.68,2.3,4.4c2.2,1.09,6.94-0.51,8.93-1c5.16-1.28,5.31-8.37,5.52-13.58
		c0.05-1.29-7.02-4.74-9.22-4.28c-4.83,1-7.42,1.57-7.18,11.26C106.8,69.39,106.36,70.88,106.44,71.81z"/>
	<path class="st43" d="M124.37,79.87l-3.49-8.32c-0.71-1.7-2.94-2.6-4.95-1.99l-0.59,0.18c-2.01,0.6-4.03,2.53-3.32,4.23l3.53,7.24
		C116.25,82.91,125.08,81.57,124.37,79.87z"/>
	<path class="st39" d="M108.74,76.21c2.2,1.09,6.94-0.51,8.93-1c5.16-1.28,5.31-8.37,5.52-13.58c0.05-1.29-2.74,0.66-3.46,2.79
		C115.42,77.16,108.74,76.21,108.74,76.21z"/>
	<g>
		<path class="st43" d="M105.06,69.26c-0.47,0.41,0.2,0.95,0.75,1.3c0.27,0.17,0.59,0.33,0.88,0.3c0.31-0.03,0.49-0.26,0.59-0.49
			c0.27-0.61,1-1.86,0.07-2.39c-0.38-0.22,0.08-2.12-0.04-1.83C106.67,67.73,105.67,68.72,105.06,69.26z"/>
	</g>
	<path class="st39" d="M104.97,69.79c0,0,0.76,0.95,1.51,1.06c0,0,0.6-0.1,0.33-0.6C106.56,69.75,106.18,70.87,104.97,69.79z"/>
	<path class="st39" d="M107.46,61.63c0,0-0.28,0.81-0.39,1.61c0,0,2.3,0.86,4.84,0.75C111.9,63.99,108.81,62.82,107.46,61.63z"/>
	<polygon class="st39" points="95.54,103.23 94.5,104.39 95.17,101.89 	"/>
	<path class="st39" d="M118.9,74.38c0,0,2.27,5.62,2.34,5.44c0.08-0.18,2.04-2.41,2.04-2.41l-1.31-3.24L118.9,74.38z"/>
	<path class="st9" d="M119.59,56.3c-4.62-1.01-8.8-3.12-11.41-0.69c-2.62,2.43-3.21,5.52,2.52,7.76c0.45,0.18,0.86,0.38,1.22,0.61
		c0.07,0.35,0.18,0.74,0.35,1.23c0.33,0.95,0.61,1.92,0.8,2.91c0.11,0.59,0.3,1.15,0.55,1.16c0.46,0.01,0.84-0.36,0.85-0.83
		l0.19-0.26c1.28,3.91,0.11,8.19,3.7,8.65c4.54,0.58,5.75-3.8,5.75-3.8C129.62,60.71,124.48,57.37,119.59,56.3z"/>
	<path class="st9" d="M124.09,73.05c0,0,1.48-8.44-3.05-9.02c-5.23-0.67-3.17,2.14-10.35-0.66c-5.73-2.24-5.14-5.33-2.52-7.76
		s6.79-0.32,11.41,0.69C124.48,57.37,129.62,60.71,124.09,73.05z"/>
	<ellipse class="st43" cx="115.18" cy="69.99" rx="2.63" ry="2.23"/>
	<path class="st39" d="M115.11,69.84c0,0,0.63,0.19,0.51,0.61c-0.12,0.41-0.37,0.45-0.37,0.45s0.32,0.42,0.78,0.09
		c0.46-0.34,0.79-0.94,0.25-1.62C115.84,68.81,115.11,69.84,115.11,69.84z"/>
	<path class="st3" d="M112.14,82.97c7.5-1.26,12.87,2.44,13.53-6.84c0,0-2-0.38-2.63,0.55c-1.11,1.64-2.1,3.27-5.22,3.25
		c-1.62-0.01-3.69-0.07-4.16,0.6L112.14,82.97z"/>
	<path class="st39" d="M96.67,101.71c0,0,0.87,4.84,4.5,5.14c0,0,1.01-1.13,1.49-2.15L96.67,101.71z"/>
	<g>
		<path class="st18" d="M114,91.46l-8.94,12.33c-3.22,3.13-11.07-2.32-8.64-5.07l8.99-12.35c1.56-1.76,4.07-2.3,5.8-1.26l0,0
			C113.02,86.19,115.38,89.47,114,91.46z"/>
	</g>
	<path class="st82" d="M113.4,92.33l-8.04,11.04c0,0-1.39,2.21-4.31,1.16c0,0,1.7-0.84,2.59-2.2c0.89-1.36,1.98-1.85,3.31-4.5
		C110.53,90.67,113.3,89.62,113.4,92.33z"/>
	<path class="st58" d="M79.78,62.05c-0.38-0.53-0.38-1.84,0.08-2.3c0.44-0.44,2.35-4.28,2.88-5.13c1.05-1.67,3.65-7.67,4.63-9.81
		c0.64-1.4,1.11-2.67,3.29-2.67c0.7,0,0.71-0.67,0.01-0.72c-1.76-0.13-4.06,1.96-4.86,3.74c-0.98,2.15-2.55,7.58-3.6,9.24
		c-0.53,0.84-2.06,4.03-2.5,4.47c-0.46,0.46-1.5,1.46-1.12,1.98c0.46,0.65,1.09,1.55,1.97,2.24C80.26,62.73,80,62.36,79.78,62.05z"
		/>
	<g>
		<path class="st5" d="M64.55,101.18l8.07-3.14c0.09-0.03,0.23-0.02,0.31,0.04l0.64,0.42c0,0,0.01,0,0.01,0.01l6.48,4.29
			c0.08,0.05,0.08,0.13-0.01,0.16l-8.07,3.14c-0.09,0.03-0.23,0.02-0.31-0.04l-0.64-0.42c0,0-0.01,0-0.01-0.01l-6.48-4.29
			C64.46,101.29,64.46,101.22,64.55,101.18z"/>
		<polygon class="st84" points="77,103.61 78.18,103.71 78.32,103.06 77.14,102.97 		"/>
		<polygon class="st85" points="63.2,102.48 64.38,102.57 64.52,101.93 63.34,101.84 		"/>
		<path class="st9" d="M70.84,96.87c0.17-0.06,0.42,0.06,0.44,0.22l0.19,1.56l-1.18,0.35l0,0l-7.24,3.38l-0.24-2.05
			c-0.01-0.12-0.01-0.24,0.11-0.29L70.84,96.87z"/>
		<path class="st9" d="M70.04,106.89l8.07-3.14c0.09-0.03,0.09-0.11,0.01-0.16l-6.48-4.29c-0.08-0.05-0.22-0.07-0.31-0.04
			l-8.06,2.79c-0.09,0.03-0.17,0.12-0.24,0.32l6.69,4.47C69.81,106.91,69.95,106.92,70.04,106.89z"/>
		<path class="st86" d="M63.32,100.12l0.95-0.37l0,0l6.9-2.68c0.17-0.06,0.34,0.02,0.36,0.17l0.19,1.44
			c0.02,0.01,0.04,0.02,0.06,0.03l6.48,4.29c0.08,0.05,0.08,0.13-0.01,0.16l-8.07,3.14c-0.09,0.03-0.23,0.02-0.31-0.04l-6.48-4.29
			c-0.04-0.02-0.05-0.05-0.06-0.08l0,0l-0.2-1.5C63.12,100.28,63.19,100.17,63.32,100.12z"/>
		<path class="st9" d="M71.46,100.22l1.02-0.4c0.07-0.03,0.08-0.09,0.01-0.13l-0.68-0.45c-0.07-0.04-0.18-0.06-0.26-0.03l-1.02,0.4
			c-0.07,0.03-0.08,0.09-0.01,0.13l0.68,0.45C71.27,100.23,71.39,100.25,71.46,100.22z"/>
		<path class="st9" d="M69.39,101.02l1.02-0.4c0.07-0.03,0.08-0.09,0.01-0.13l-0.68-0.45c-0.07-0.04-0.18-0.06-0.26-0.03l-1.02,0.4
			c-0.07,0.03-0.08,0.09-0.01,0.13l0.68,0.45C69.2,101.04,69.31,101.05,69.39,101.02z"/>
		<path class="st9" d="M67.32,101.83l1.02-0.4c0.07-0.03,0.08-0.09,0.01-0.13l-0.68-0.45c-0.07-0.04-0.18-0.06-0.26-0.03l-1.02,0.4
			c-0.07,0.03-0.08,0.09-0.01,0.13l0.68,0.45C67.13,101.84,67.24,101.86,67.32,101.83z"/>
		<path class="st9" d="M65.24,102.63l1.02-0.4c0.07-0.03,0.08-0.09,0.01-0.13l-0.68-0.45c-0.07-0.04-0.18-0.06-0.26-0.03l-1.02,0.4
			c-0.07,0.03-0.08,0.09-0.01,0.13l0.68,0.45C65.05,102.65,65.17,102.66,65.24,102.63z"/>
		<path class="st9" d="M73.01,101.24l1.02-0.4c0.07-0.03,0.08-0.09,0.01-0.13l-0.68-0.45c-0.07-0.04-0.18-0.06-0.26-0.03l-1.02,0.4
			c-0.07,0.03-0.08,0.09-0.01,0.13l0.68,0.45C72.82,101.26,72.93,101.27,73.01,101.24z"/>
		<path class="st9" d="M70.93,102.05l1.02-0.4c0.07-0.03,0.08-0.09,0.01-0.13l-0.68-0.45c-0.07-0.04-0.18-0.06-0.26-0.03l-1.02,0.4
			c-0.07,0.03-0.08,0.09-0.01,0.13l0.68,0.45C70.74,102.06,70.86,102.07,70.93,102.05z"/>
		<path class="st9" d="M68.86,102.85l1.02-0.4c0.07-0.03,0.08-0.09,0.01-0.13l-0.68-0.45c-0.07-0.04-0.18-0.06-0.26-0.03l-1.02,0.4
			c-0.07,0.03-0.08,0.09-0.01,0.13l0.68,0.45C68.67,102.87,68.79,102.88,68.86,102.85z"/>
		<path class="st9" d="M66.79,103.66l1.02-0.4c0.07-0.03,0.08-0.09,0.01-0.13l-0.68-0.45c-0.07-0.04-0.18-0.06-0.26-0.03l-1.02,0.4
			c-0.07,0.03-0.08,0.09-0.01,0.13l0.68,0.45C66.6,103.67,66.71,103.68,66.79,103.66z"/>
		<path class="st9" d="M68.34,104.68l1.02-0.4c0.07-0.03,0.08-0.09,0.01-0.13l-0.68-0.45c-0.07-0.04-0.18-0.06-0.26-0.03l-1.02,0.4
			c-0.07,0.03-0.08,0.09-0.01,0.13l0.68,0.45C68.16,104.7,68.27,104.71,68.34,104.68z"/>
		<path class="st9" d="M72.48,103.07l1.02-0.4c0.07-0.03,0.08-0.09,0.01-0.13l-0.68-0.45c-0.07-0.04-0.18-0.06-0.26-0.03l-1.02,0.4
			c-0.07,0.03-0.08,0.09-0.01,0.13l0.68,0.45C72.29,103.08,72.4,103.1,72.48,103.07z"/>
		<path class="st9" d="M70.41,103.87l1.02-0.4c0.07-0.03,0.08-0.09,0.01-0.13l-0.68-0.45c-0.07-0.04-0.18-0.06-0.26-0.03l-1.02,0.4
			c-0.07,0.03-0.08,0.09-0.01,0.13l0.68,0.45C70.22,103.89,70.33,103.9,70.41,103.87z"/>
		<path class="st9" d="M69.89,105.71l1.02-0.4c0.07-0.03,0.08-0.09,0.01-0.13l-0.68-0.45c-0.07-0.04-0.18-0.06-0.26-0.03l-1.02,0.4
			c-0.07,0.03-0.08,0.09-0.01,0.13l0.68,0.45C69.7,105.72,69.82,105.74,69.89,105.71z"/>
		<path class="st9" d="M74.02,104.09l1.02-0.4c0.07-0.03,0.08-0.09,0.01-0.13l-0.68-0.45c-0.07-0.04-0.18-0.06-0.26-0.03l-1.02,0.4
			c-0.07,0.03-0.08,0.09-0.01,0.13l0.68,0.45C73.84,104.11,73.95,104.12,74.02,104.09z"/>
		<path class="st9" d="M71.95,104.9l1.02-0.4c0.07-0.03,0.08-0.09,0.01-0.13l-0.68-0.45c-0.07-0.04-0.18-0.06-0.26-0.03l-1.02,0.4
			c-0.07,0.03-0.08,0.09-0.01,0.13l0.68,0.45C71.76,104.91,71.88,104.93,71.95,104.9z"/>
		<path class="st9" d="M76.93,102.67l-1.58-1.05h0l-0.58-0.39c-0.07-0.04-0.18-0.06-0.26-0.03l-1.02,0.4
			c-0.07,0.03-0.08,0.09-0.01,0.13l0.68,0.45l0,0l1.49,0.99c0.1,0.07,0.26,0.08,0.37,0.04l0.9-0.35
			C77.02,102.82,77.03,102.73,76.93,102.67z"/>
		<path class="st9" d="M63.79,100.26l0.61-0.23l0,0l4.77-1.85l0,0l1.78-0.69c0.07-0.03,0.15,0.01,0.16,0.07l0.12,0.91
			c0.01,0.05-0.03,0.1-0.08,0.12l-0.68,0.26l0,0l-4.77,1.85l0,0l-1.67,0.65c-0.13,0.05-0.27-0.01-0.28-0.13l-0.1-0.74
			C63.64,100.38,63.69,100.3,63.79,100.26z"/>
	</g>
	<path class="st49" d="M121.24,15.65c0,0-2.27,13.32,8.51,23.91s19.4,23.14,20.25,38.41V51.31C150,51.31,148.77,31,121.24,15.65z"/>
</g>
</svg>
