<?xml version="1.0" encoding="utf-8"?>
<!-- Generator: Adobe Illustrator 25.3.1, SVG Export Plug-In . SVG Version: 6.00 Build 0)  -->
<svg version="1.1" id="Layer_1" xmlns="http://www.w3.org/2000/svg" xmlns:xlink="http://www.w3.org/1999/xlink" x="0px" y="0px"
	 viewBox="0 0 150 150" style="enable-background:new 0 0 150 150;" xml:space="preserve">
<style type="text/css">
	.st0{fill:#F2F5F7;}
	.st1{fill:#212121;}
	.st2{fill:#BCD5C5;}
	.st3{fill:#FFFFFF;}
	.st4{fill:#E9EDF2;}
	.st5{opacity:0.4;fill:#A8C4E5;}
	.st6{fill:#D6E3FF;}
	.st7{fill:#223A6B;}
	.st8{fill:#221473;}
	.st9{fill:#27427A;}
	.st10{fill:#94B7E0;}
	.st11{opacity:0.2;fill:#FFFFFF;}
	.st12{opacity:0.2;fill:#628FC4;}
	.st13{fill:#4D7CF0;}
	.st14{fill:#446DD4;}
	.st15{fill:#97CBFF;}
	.st16{fill:#DB9833;}
	.st17{fill:#F5BC51;}
	.st18{fill:#F7C750;}
	.st19{fill:#C7DCFF;}
	.st20{opacity:0.15;}
	.st21{fill:#F29700;}
	.st22{fill:#FFA208;}
	.st23{fill:#FFAD24;}
	.st24{fill:#FFC31B;}
	.st25{fill:#FFE7A6;}
	.st26{fill:#FF9F00;}
	.st27{fill:#FFDC7D;}
	.st28{fill:#FFF6DB;}
	.st29{fill:#D98800;}
	.st30{fill:url(#SVGID_1_);}
	.st31{fill:url(#SVGID_2_);}
	.st32{fill:url(#SVGID_3_);}
	.st33{fill:#5CA7FF;}
	.st34{fill:#BAD0FF;}
	.st35{fill:#E6EEFF;}
	.st36{fill:#F1F5FE;}
	.st37{fill:#BEDBFA;}
	.st38{fill:#BF6B6B;}
	.st39{fill:#EA8A6C;}
	.st40{fill:#6F7996;}
	.st41{fill:#628FC4;}
	.st42{fill:#A64C4B;}
	.st43{fill:#FFB49E;}
	.st44{fill:#FFC2B0;}
	.st45{fill:#F5D6CE;}
	.st46{fill:#4F94E3;}
	.st47{fill:#DFEAF4;}
	.st48{fill:#F5A086;}
	.st49{fill:#C9DFF2;}
	.st50{fill:#A8C8E3;}
	.st51{fill:#95C1F5;}
	.st52{fill:#2F4C9C;}
	.st53{fill:#B25D5D;}
	.st54{fill:#5A97DB;}
	.st55{fill:#A3BDFF;}
	.st56{fill:#2C4482;}
	.st57{fill:#FFCCBD;}
	.st58{fill:#B3D1F5;}
	.st59{fill:#7090E0;}
	.st60{fill:#213696;}
	.st61{fill:#1B3A91;}
	.st62{fill:#163078;}
	.st63{fill:url(#SVGID_4_);}
	.st64{fill:#EBF5FF;}
	.st65{fill:#F5FAFF;}
	.st66{fill:#CEDBED;}
	.st67{fill:#B3CCF2;}
	.st68{fill:#CFE5FF;}
	.st69{fill:#3E68DE;}
	.st70{fill:#D9E8FF;}
	.st71{fill:#96B5EB;}
	.st72{fill:#353559;}
	.st73{opacity:0.71;fill:#FFFFFF;}
	.st74{fill:#C2E0FF;}
	.st75{opacity:0.47;fill:#BADDFF;}
	.st76{fill:#BADDFF;}
	.st77{opacity:0.61;fill:#FFFFFF;}
	.st78{fill:#2A66F7;}
	.st79{fill:#5986FF;}
	.st80{fill:#29479C;}
	.st81{fill:#EA986C;}
	.st82{fill:#E69F35;}
	.st83{fill:#D47D62;}
	.st84{fill:#3C61C7;}
	.st85{fill:#363656;}
	.st86{fill:#EDF4FF;}
	.st87{fill:url(#SVGID_5_);}
	.st88{fill:#ABCFFF;}
	.st89{fill:url(#SVGID_6_);}
	.st90{fill:none;stroke:#FFFFFF;stroke-width:2.5103;stroke-miterlimit:10;}
	.st91{fill:none;stroke:#FFFFFF;stroke-width:2.6407;stroke-miterlimit:10;}
	.st92{fill:none;stroke:#FFFFFF;stroke-width:2.5677;stroke-miterlimit:10;}
	.st93{fill:#A8ACBA;}
	.st94{fill:none;stroke:#FFFFFF;stroke-width:2.9223;stroke-linecap:round;stroke-linejoin:round;stroke-miterlimit:10;}
	.st95{fill:none;stroke:#FFFFFF;stroke-width:2.9311;stroke-linecap:round;stroke-linejoin:round;stroke-miterlimit:10;}
	.st96{fill:#ED5353;}
	.st97{fill:none;stroke:#27427A;stroke-width:5.3333;stroke-linecap:round;stroke-linejoin:round;stroke-miterlimit:10;}
</style>
<g>
	<path class="st5" d="M50.99,43.48c0,0-5.99,9.46-16.77,5.15S7.55,54.95,14.87,68.46s26.61,3.79,35.82,1.12
		C59.9,66.92,72.72,36.66,50.99,43.48z"/>
	<path class="st5" d="M82.46,69.22c-8.08-6.68-2.99-6.08-8.82-18.7c-1.13-2.44-2.51-4.57-4.19-5.9c-6.67-5.3-7.38-24.77,6.07-25.91
		s20.23,12.7,29.43,8.8c19.88-8.41,29.89,8.33,27.09,17.21c-5.51,17.52,22.34,29.34-1.29,37.2c-12.31,4.09-13.08-8.65-25.21-12.46
		C94.14,65.89,89.93,75.4,82.46,69.22z"/>
	<ellipse class="st5" cx="54.31" cy="117.14" rx="25.41" ry="13.94"/>
	<linearGradient id="SVGID_1_" gradientUnits="userSpaceOnUse" x1="30.9769" y1="117.7952" x2="50.3661" y2="91.9282">
		<stop  offset="0" style="stop-color:#FCCB52"/>
		<stop  offset="0.6147" style="stop-color:#E09628"/>
	</linearGradient>
	<path class="st30" d="M22.83,113.47c0-6.83,4.27-14.46,10-17.77c2.63-1.52,4.93-1.76,6.64-0.91l0,0l0.03,0.02
		c0.16,0.08,0.32,0.17,0.47,0.27l13.88,7.99c0,0-3.82,10.86-4.32,11.03c-0.5,0.17-9.95,14.16-9.95,14.16l-13.55-7.78
		c-0.15-0.07-0.3-0.16-0.44-0.25l-0.04-0.02l0,0C23.85,119.06,22.83,116.75,22.83,113.47z"/>
	<path class="st16" d="M46.93,127.73c-5.73,3.31-10,0.62-10-6.09c0-6.83,4.27-14.46,10-17.77c5.73-3.31,9.89-0.55,9.89,6.28
		C56.82,116.86,52.66,124.42,46.93,127.73z"/>
	<polygon class="st18" points="39.1,100.61 28.15,95.59 23.42,40.54 42.8,30.43 55.4,37.19 	"/>
	<polygon class="st17" points="39.1,100.61 28.15,95.59 23.42,40.54 23.42,40.54 36.01,47.3 	"/>
	<g>
		<path class="st16" d="M52.29,93.83l-13.19,6.78l-2.44-35.58L36.01,47.3L55.4,37.19L54.74,55.6L52.29,93.83z"/>
	</g>
	<g>
		<ellipse class="st5" cx="117.7" cy="106.08" rx="24.86" ry="13.94"/>
		<g>
			<linearGradient id="SVGID_2_" gradientUnits="userSpaceOnUse" x1="79.4567" y1="65.279" x2="137.4508" y2="65.279">
				<stop  offset="0" style="stop-color:#4F80E3"/>
				<stop  offset="0.3079" style="stop-color:#406AC8"/>
				<stop  offset="0.7252" style="stop-color:#2F51A8"/>
				<stop  offset="0.957" style="stop-color:#29479C"/>
			</linearGradient>
			<path class="st31" d="M116.17,18.02c-8.14-4.7-15.11-4.62-20.3-1.47l0,0l-16.4,9.53l28.86,12.03l7.33,14.82
				c-4.07,2.97-8.69,6.46-8.46,15.54l-7.73,11.4l4.01,4.68L92,91.15c0,0,5.36,10,5.85,10.17c0.5,0.17,8.7,14.92,8.7,14.92
				l14.85-8.53c0.15-0.08,0.3-0.16,0.44-0.25l0.04-0.02l0,0c1.72-1.13,2.75-3.45,2.75-6.74c0-6.54-3.9-13.79-9.24-17.32l6.54-3.75
				c-1.35-16.16,15.54-11.19,15.54-27.21C137.45,37.16,128.22,24.98,116.17,18.02z"/>
			<path class="st33" d="M106.37,53.39c0-5.3-3.04-9.9-7.55-12.5c-4.17-2.41-7.21-1.71-10.25,0.03l-9.12-14.83
				c5.29-3.92,12.73-4.41,21.51,0.66c12.05,6.96,21.28,19.14,21.28,34.39c0,16.02-16.89,11.05-15.54,27.21l-14.53-8.39
				C89.93,60.95,106.37,63.08,106.37,53.39z M89.48,97.91c0-6.85,4.17-9.61,9.91-6.3c5.74,3.32,10.02,10.96,10.02,17.81
				c0,6.72-4.28,9.42-10.02,6.1C93.65,112.2,89.48,104.63,89.48,97.91z"/>
		</g>
	</g>
	<line class="st90" x1="23.42" y1="40.54" x2="36.01" y2="47.3"/>
	<path class="st91" d="M38.49,126.16c-0.37-1.06-0.57-2.32-0.57-3.78c0-6.83,4.27-14.46,10-17.77c2.11-1.22,4.01-1.62,5.57-1.29"/>
	<path class="st92" d="M94.82,102.02c1.56-0.33,3.46,0.06,5.57,1.29c5.73,3.31,10,10.93,10,17.77c0,1.45-0.2,2.72-0.57,3.78"/>
	<path class="st92" d="M83.17,24.05c0,0,8.69-4.39,21.03,4.73s15.32,18.46,15.32,18.46"/>
	<g>
		<polygon class="st9" points="142.74,104.11 138.46,104.86 138.46,100.38 142.74,99.63 		"/>
		<polygon class="st39" points="145.97,94.89 144.42,92.18 146.52,92.19 147.93,94.46 147.14,95.84 		"/>
		<polygon class="st39" points="134.59,97.11 135.68,94.68 133.39,93.63 132.72,96.83 		"/>
		<path class="st43" d="M147.14,99.9L147.14,99.9c0.45-0.19,0.98,0.02,1.17,0.47l0.47,1.09c0.19,0.45-0.02,0.98-0.47,1.17l0,0
			c-0.45,0.19-0.98-0.02-1.17-0.47l-0.47-1.09C146.48,100.62,146.69,100.1,147.14,99.9z"/>
		<path class="st43" d="M148.17,100.1c0,0,0.36-4.2-0.1-5.39c-0.46-1.19-2.1,0.18-2.1,0.18l0.85,5.37L148.17,100.1z"/>
		
			<ellipse transform="matrix(0.0391 -0.9992 0.9992 0.0391 13.0063 254.8656)" class="st5" cx="139.02" cy="120.67" rx="2.61" ry="5.25"/>
		
			<ellipse transform="matrix(0.0391 -0.9992 0.9992 0.0391 18.8396 261.6885)" class="st5" cx="145.48" cy="121.05" rx="1.83" ry="3.69"/>
		<path class="st9" d="M138.95,120.08l-1.51,0.25c-1.11-0.15-1.66-0.34-2.02,0.04l-0.1,0.11c-0.13,0.26,0.08,0.69,0.48,0.85l3,1.2
			c0.59,0.14,1.2-0.06,1.21-0.59c0,0,0-1.47-0.27-1.53C139.21,120.29,139.42,120.19,138.95,120.08z"/>
		<path class="st93" d="M138.17,120.8c0.01,0.62,1.5,0.6,1.5-0.02l-0.02-2l-1.5,0.02L138.17,120.8z"/>
		<path class="st9" d="M137.83,119.01c0.52,0.71,1.82,0.7,2.1,0.22c0.16-2.83,1.12-5.84,0.03-9.73l1.26-11.8l-5.27,1.05l1.17,12.45
			L137.83,119.01z"/>
		<path class="st93" d="M147.91,118.21c0.34,0.45,1.59-0.37,1.25-0.82l-1.09-1.46l-1.25,0.82L147.91,118.21z"/>
		<path class="st9" d="M147.09,117.22c0.73,0.44,1.73-0.79,1.83-1.29c-0.88-2.47-1.47-6.05-3.77-7.46l-0.98-6.65
			c0.08-1.02-0.11-1.83-0.53-3.33l-3.79,2.23l3.38,10.04c0.06,0.18,0.14,0.35,0.24,0.52L147.09,117.22z"/>
		<path class="st43" d="M137.08,84.38c0.03,1.21,1.14,1.93,2.04,1.38c0.9-0.55,1.6-1.99,1.57-3.2c-0.03-1.21-0.79-1.74-1.69-1.19
			C138.1,81.93,137.05,83.17,137.08,84.38z"/>
		<path class="st39" d="M139.98,88.11l0.12-0.03c0.42-0.11,0.67-0.54,0.56-0.96l-0.61-2.36c-0.11-0.42-0.54-0.67-0.96-0.56
			l-0.12,0.03c-0.42,0.11-0.67,0.54-0.56,0.96l0.25,2.35C138.78,87.96,139.57,88.22,139.98,88.11z"/>
		<path class="st9" d="M141.22,85.45c0,0-0.23,0.82-1.71,0.65c-1.12-0.13-0.32-2.05-1.35-2.53c-1.39-0.64-0.84-2.01-0.23-2.45
			s1.4-0.19,2.36,0.13C141.31,81.6,142.69,82.38,141.22,85.45z"/>
		<circle class="st9" cx="138.36" cy="84.07" r="0.53"/>
		<path class="st18" d="M144.27,99.51c-0.13-2.97-0.58-4.92-0.43-7.49c-0.06-4.91,0.02-5.05-1.06-5.36l-1.78-0.2
			c-0.34,0.06-0.65,0.22-0.98,0.3c-1.39,0.34-2.29,0.42-3.29,0.96c-0.89,0.48-0.94,1.77-0.94,2.85c-0.24,3.17-0.3,7.94-0.35,9.5
			C135.94,102.32,143.42,101.03,144.27,99.51z"/>
		<path class="st18" d="M143.89,87.12l3.39,5.69c0.62,1.24-1.99,2.8-2.58,1.25c-0.04-0.1-2.76-6.73-2.76-6.73
			S142.4,85.99,143.89,87.12z"/>
		<path class="st82" d="M135.41,90.95l0.82,0.88c0.96,3.87,0.52,7.8,2.09,9.45c-0.96,0-1.85-0.13-2.5-0.61
			c-0.04,0-0.34-0.26-0.38-0.75L135.41,90.95z"/>
		<path class="st3" d="M141.18,86.4c0,0,0.26,0.71-0.58,0.98s-2.23-0.2-2.23-0.2S139.3,86.21,141.18,86.4z"/>
		<path class="st9" d="M138.16,84.43L138.16,84.43c0.1,0.01,0.19-0.06,0.2-0.15l0.32-1.13c0.01-0.1-0.24-0.04-0.34-0.05l0,0
			c-0.1-0.01-0.37-0.1-0.39,0l0.06,1.14C138,84.33,138.06,84.42,138.16,84.43z"/>
		<path class="st82" d="M143.84,92.02l-0.1-2.03c1.33,1.48,2.33,2.99,2.51,4.59c0,0-1.02,0.51-1.5-0.43L143.84,92.02z"/>
		<path class="st94" d="M146.91,92.19c0.05,0.94-1.54,1.86-2.41,1.35"/>
		<path class="st43" d="M130.05,100.24L130.05,100.24c0.44,0.21,0.63,0.75,0.42,1.19l-0.51,1.07c-0.21,0.44-0.75,0.63-1.19,0.42l0,0
			c-0.44-0.21-0.63-0.75-0.42-1.19l0.51-1.07C129.07,100.22,129.6,100.03,130.05,100.24z"/>
		<path class="st43" d="M130.47,101.43c0,0,3.43-2.83,4.02-3.97c0.59-1.14-1.77-1.75-1.77-1.75l-3.5,4.57L130.47,101.43z"/>
		<path class="st18" d="M138.39,90.95L135.53,96c-0.52,1.29-3.84,0.05-3.06-1.43c0.05-0.09,3.91-6.57,3.91-6.57
			S138.26,89.08,138.39,90.95z"/>
		<path class="st95" d="M135.34,95c-0.68,0.66-2.42,0.07-2.61-0.92"/>
		<path class="st9" d="M147.85,118.2l-0.02,1.39c-0.31,0.96-1.04,1.08-0.75,1.46l0.24,0.21c0.24,0.24,1.03,0.17,1.19-0.04l1.39-2.11
			c0.22-0.5,0.06-1.13-0.31-1.47c0,0-0.41-0.41-0.62-0.42C148.47,117.21,148.03,117.8,147.85,118.2z"/>
	</g>
	<g>
		<path class="st39" d="M63.96,68.83L63.96,68.83c-0.32,0.05-0.54,0.35-0.5,0.67l0.16,1.11c0.05,0.32,0.35,0.54,0.67,0.5h0
			c0.32-0.05,0.54-0.35,0.5-0.67l-0.16-1.11C64.58,69.01,64.28,68.78,63.96,68.83z"/>
		<path class="st10" d="M72.92,77.12c0,0-4.85,0.85-5.32-0.43c-0.47-1.28-2.48-6.13-2.48-6.13l-1.66,0.39c0,0,1.46,8.4,2.84,9.11
			c1.38,0.71,5.8,0.57,5.8,0.57L72.92,77.12z"/>
		<path class="st5" d="M81.04,110.34c-1.41-0.76-3.77-0.82-5.35-0.14c-0.14-0.32-0.45-0.63-0.93-0.89
			c-1.45-0.78-3.91-0.82-5.49-0.08c-1.58,0.74-1.69,1.97-0.23,2.76c1.41,0.76,3.77,0.82,5.35,0.14c0.14,0.32,0.45,0.63,0.93,0.89
			c1.45,0.78,3.91,0.82,5.49,0.08C82.39,112.36,82.49,111.13,81.04,110.34z"/>
		<path class="st9" d="M76.15,76.94c0,0,1.15,0.32,1.15,0.91s-0.11,1.14-0.11,1.14l-3.88-0.82l0.4-1.6L76.15,76.94z"/>
		<path class="st9" d="M70.07,109.43l2.15-1.47c0.32-0.1,0.71-0.13,1.15,0c0.2,0.06,0.24-0.09,0.22,0.1l0.19,0.79
			c0.18,0.53-0.24,0.85-0.84,1.03l-2.05,0.59c-0.43,0.14-1.02,0.06-1.33-0.17l-0.09-0.07C69.15,110,69.62,109.68,70.07,109.43z"/>
		<path class="st40" d="M73.58,108.21c-0.03,0.61-1.52,0.53-1.49-0.08l0.11-1.99l1.49,0.08L73.58,108.21z"/>
		<path class="st9" d="M73.82,107.45c-0.63,0.47-1.25,0.45-1.87-0.05c0,0-1.05-12.3-0.7-18.62l4.69-1.47
			c-0.59,3.87-1.87,10.24-1.87,10.24C75.44,100.74,74.21,104.68,73.82,107.45z"/>
		<path class="st7" d="M75.94,87.31l-1.32,0.41c-0.36,2.3-0.92,5.3-1.32,7.38c-0.26,1.35-0.24,2.74,0,4.1
			c0.49,2.82-0.41,5.95-0.74,8.25c-0.09,0.07-0.19,0.13-0.28,0.17c0.51,0.26,1.02,0.21,1.53-0.17c0.35-2.46,1.36-5.85,0.62-8.81
			c-0.22-0.88-0.22-1.81-0.04-2.7C74.81,93.79,75.54,89.97,75.94,87.31z"/>
		<path class="st40" d="M78.88,109.74c0.06,0.61-1.42,0.76-1.48,0.15l-0.2-1.98l1.48-0.15L78.88,109.74z"/>
		<path class="st9" d="M78.99,108.99c-0.64,0.52-1.26,0.61-1.86,0.21c0,0-0.53-4.09-1.37-8.44c-0.65-3.37-1.61-6.75-1.83-9.43
			l4.36-2.54c-0.04,2.38,0.14,7.63,0.22,9.88c0.02,0.53,0.15,1.04,0.38,1.51C79.9,102.25,78.99,108.99,78.99,108.99z"/>
		<path class="st10" d="M70.88,89.07c0.15-2.17,0.18-5.31,0.04-8.03c0.26-3.74,1.77-5.03,4.07-4.01l0.96,0.33
			c2.74,1.73,4.19,1.75,3.47,4.73l-0.67,7.14C78.5,92.62,70.42,93.05,70.88,89.07z"/>
		<path class="st41" d="M79.41,82.09l-0.67,7.14c-0.14,1.98-2.94,2.95-5.17,2.63C76.2,90.53,78.02,86.91,79.41,82.09z"/>
		<g>
			<g>
				<path class="st3" d="M77.08,78.02c0,0,0.08,1.03-1.48,1.78c-0.8,0.38-1.24,1.1-1.48,1.7c-0.14,0.35-0.34,0.16-0.35-0.23
					c-0.03-1-0.04-1.29-0.19-2.04c-0.24-1.21,0.41-2.93,0.47-2.94C74.12,76.28,77.08,78.02,77.08,78.02z"/>
			</g>
		</g>
		<path class="st9" d="M75.09,77.09c0,0-1.46,0.33-1.25,1.7l-0.1,1.59c0,0-0.95-1.89-0.29-3.53C74.1,75.21,75.09,77.09,75.09,77.09z
			"/>
		<path class="st42" d="M74.5,77.1c0,0,0.23,0.43,0.38,0.53c0.16,0.1,2.53-0.72,2.47-2.63c-0.04-1.21-2.33-1.1-2.33-1.1L74.5,77.1z"
			/>
		<path class="st43" d="M75.32,78.92l-0.11,0.01c-0.39,0.03-0.73-0.27-0.76-0.65l-0.16-2.18c-0.03-0.39,0.27-0.73,0.65-0.76
			l0.11-0.01c0.39-0.03,0.73,0.27,0.76,0.65l0.46,2.08C76.31,78.44,75.71,78.89,75.32,78.92z"/>
		<path class="st39" d="M74.38,77.27c0,0,0.92,0.11,1.61-0.72c0,0-0.71,1.29-1.56,1.33L74.38,77.27z"/>
		<path class="st9" d="M76.44,77.02c0,0,0.9,1.32-1,2.14c0,0-0.77,0.67-0.84,1.48c0,0,0.65-0.43,1.03-0.67
			C75.99,79.73,78.77,78.3,76.44,77.02z"/>
		
			<ellipse transform="matrix(0.1433 -0.9897 0.9897 0.1433 -10.7391 137.8585)" class="st39" cx="74.26" cy="75.13" rx="2.12" ry="1.2"/>
		<path class="st43" d="M76.1,76.52c-0.53,0.86-2.26,1.15-2.68,0.37s0.29-2.33,0.82-3.2s1.3-0.93,1.73-0.15
			C76.39,74.31,76.63,75.66,76.1,76.52z"/>
		<path class="st42" d="M75.43,74.07c0,0-0.54,1.8,0.84,2.48c0,0,1.82-0.65,0.93-2.64c-0.78-1.75-2.7-0.87-2.7-0.87L75.43,74.07z"/>
		<path class="st42" d="M73.08,74.92c0,0,0.34-0.75,1.36-0.91l-0.68-0.59C73.76,73.42,72.96,73.46,73.08,74.92z"/>
		<path class="st42" d="M76,75.28c-0.24-0.49-0.93-0.61-1.96-0.43c-0.16,0.03-0.32,0.02-0.47-0.04c-0.7-0.28-0.64-1.2-0.64-1.2
			c-0.05-0.63,0.4-0.83,1.03-0.87l1.64-0.12c0.93-0.08,1.65,0.81,1.7,1.43l0.02,0.11C77.35,74.79,76.63,75.24,76,75.28z"/>
		<path class="st42" d="M76.45,76.52c-0.13,0.21-0.4,0.28-0.61,0.15s-0.28-0.4-0.15-0.61c0.13-0.21,0.4-0.28,0.61-0.15
			C76.51,76.03,76.58,76.31,76.45,76.52z"/>
		<path class="st9" d="M77.39,109.81l0.11,1.26c0.01,0.15,0.16,0.93,0.22,1.07c0.18,0.39,0.49,0.55,0.78,0.57
			c0.39,0.03,1.16-0.66,0.89-1.5c-0.24-0.74-0.5-1.52-0.5-1.52C78.33,109.94,77.82,110.02,77.39,109.81z"/>
		<path class="st39" d="M77.07,93.6L77.07,93.6c0.27,0.18,0.63,0.12,0.82-0.15l0.64-0.92c0.18-0.27,0.12-0.63-0.15-0.82v0
			c-0.27-0.18-0.63-0.12-0.82,0.15l-0.64,0.92C76.73,93.05,76.8,93.42,77.07,93.6z"/>
		<path class="st10" d="M76.14,81.42c0,0,4.65,3.62,4.12,4.89c-0.53,1.26-2.87,5.24-2.87,5.24l1.48,0.84c0,0,4.76-5.12,4.36-6.62
			c-0.49-1.88-4.1-6.35-4.1-6.35L76.14,81.42z"/>
		<path class="st41" d="M63.88,70.85l-0.42,0.1c0,0,1.46,8.4,2.84,9.11c0.93,0.48,3.26,0.57,4.66,0.58l-0.01-1.23
			c0,0-2.97,0.1-4-0.33C66.05,78.7,64.2,72.21,63.88,70.85z"/>
		<g>
			<path class="st3" d="M73.91,76.84L73.91,76.84c-0.2-0.08-0.35-0.39-0.35-0.7l0.71,0.28C74.26,76.73,74.1,76.91,73.91,76.84z"/>
		</g>
	</g>
	<path class="st33" d="M7.89,102.05c0,0-0.36-2.57-2.78,3.41c-0.49,1.21-2.89,7.85-2.89,7.85l1.23,0.81c0,0,3.05-6.45,3.66-7.74
		c0.87-1.86,2.5-3.41,2.5-4.13C9.61,101.53,7.89,102.05,7.89,102.05z"/>
	<path class="st5" d="M13.55,132.64c-1.91-0.72-5.17-0.74-7.27-0.05c-1.02,0.33-1.58,0.77-1.67,1.21c-0.09-0.04-0.18-0.08-0.28-0.11
		c-1.06-0.35-2.69-0.33-3.65,0.03c-0.96,0.36-0.88,0.93,0.17,1.28c1.06,0.35,2.69,0.33,3.65-0.03c0.25-0.09,0.43-0.2,0.54-0.31
		c0.22,0.17,0.52,0.33,0.9,0.47c1.91,0.72,5.17,0.74,7.27,0.05C15.31,134.49,15.46,133.35,13.55,132.64z"/>
	<path class="st43" d="M3.08,131.01c-0.1,0.83-1.17,0.06-1.17-0.58c1.34-4.3,2.76-7.78,4.42-9.22l0.4-9.13l5.09-1.44l-2.5,11.88
		L3.08,131.01z"/>
	<path class="st9" d="M11.41,132.86l1.21,0.42c0.93,0.03,1.42-0.05,1.66,0.31l0.07,0.1c0.24,0.36,0.06,0.55-0.48,0.72l-2.43,0.55
		c-0.71,0.16-0.89-0.08-1.07-0.51c0,0-0.11-0.54,0.38-1.18C11.02,132.91,11,132.88,11.41,132.86z"/>
	<path class="st43" d="M12.16,133.42c-0.27,0.67-1.43,0.53-1.41-0.03c-1.23-8.49-0.39-9.01-0.42-10.86
		c-0.04-2.07-0.44-4.3-1.91-8.23l1.32,0.21c2.1,0.34,3.65,2.14,3.67,4.27C13.46,124.07,13.21,128.24,12.16,133.42z"/>
	<path class="st9" d="M12.94,111.01l0.79,11.13c0,0-3.93,3.37-8.77-0.82c1.06-1.51,1.19-3.44,1.05-5.5
		c-0.43-1.93,0.06-3.52,0.61-4.9L12.94,111.01z"/>
	
		<ellipse transform="matrix(0.9474 -0.3199 0.3199 0.9474 -31.2319 8.2816)" class="st44" cx="9.59" cy="99.19" rx="1.43" ry="2.52"/>
	<path class="st43" d="M12.34,99.68c-0.1,1.2-1.24,1.86-2.1,1.26c-0.87-0.6-1.49-2.06-1.39-3.27c0.1-1.2,0.88-1.69,1.75-1.09
		C11.46,97.18,12.44,98.48,12.34,99.68z"/>
	<path class="st39" d="M9.67,103.57l-0.13-0.03c-0.44-0.1-0.72-0.54-0.62-0.98l0.55-2.48c0.1-0.44,0.54-0.72,0.98-0.62l0.13,0.03
		c0.44,0.1,0.72,0.54,0.62,0.98l-0.18,2.46C10.93,103.37,10.11,103.66,9.67,103.57z"/>
	<path class="st9" d="M8.64,100.59c0,0,0.02,0.82,1.41,0.62c1.11-0.16,0.39-2.09,1.45-2.48c1.16-0.44,1.08-1.96,0.5-2.44
		c-0.59-0.48-1.97-0.51-2.85,0.11C8.27,97,6.32,97.71,8.64,100.59z"/>
	<path class="st9" d="M11.6,99.33c-0.02,0.29-0.28,0.5-0.56,0.48s-0.5-0.28-0.48-0.56c0.02-0.29,0.28-0.5,0.56-0.48
		C11.41,98.79,11.63,99.04,11.6,99.33z"/>
	<path class="st33" d="M6.62,110.92c0-1.95,0.06-2.37-0.27-4.59c-0.11-0.74-0.06-0.97-0.13-1.72c-0.13-1.32,0.46-3.72,2.63-3.09
		l0.2,0.14c0.32,0.08,0.63,0.2,0.92,0.36c3.17,1.64,4.37,1.83,3.88,3.85c-0.14,1.51-1.37,1.94-0.9,5.15
		C12.29,113.16,7.34,112.46,6.62,110.92z"/>
	<path class="st45" d="M9.01,101.35c-0.26-0.06-0.5,0.17-0.46,0.43c0.05,0.3,0.23,0.65,0.77,0.83c0.75,0.25,1.57,0.12,1.97,0.02
		c0.09-0.02,0.11-0.15,0.03-0.2C10.88,102.17,9.81,101.54,9.01,101.35z"/>
	<path class="st9" d="M3.07,131.09l-0.27,1.26c0.08,0.94,0.22,1.41-0.11,1.7l-0.09,0.08c-0.34,0.29-0.69,0.11-0.78-0.39l-0.78-2.28
		c-0.09-0.5,0.18-0.93,0.59-1.16c0,0,0.36-0.21,0.95,0.17C2.96,130.72,3,130.69,3.07,131.09z"/>
	<path class="st9" d="M8.62,97.72c0,0-1.21-1.5-2.29,0.35c-1.08,1.85-0.48,4.04-2.01,5.11c0,0,2.69,0.03,2.99-1.67
		c0.3-1.7,0.14-3.14,1.1-3.19C9.37,98.28,8.62,97.72,8.62,97.72z"/>
	<path class="st7" d="M5.91,115.33c0,0,0.55,0.99,0.96,1.02c0,0-0.53,0.05-0.84-0.17L5.91,115.33z"/>
	<path class="st7" d="M13.73,122.14l-0.79-11.13l-1.43,0.84c0,0,1.17,9.87,0.28,11.28C11.79,123.14,12.76,122.92,13.73,122.14z"/>
	<path class="st43" d="M17.98,99.91L17.98,99.91c-0.44-0.02-0.82,0.33-0.84,0.77l-0.02,0.58c-0.02,0.44,0.33,0.82,0.78,0.84h0
		c0.44,0.02,0.82-0.33,0.84-0.77l0.02-0.58C18.77,100.3,18.42,99.93,17.98,99.91z"/>
	<path class="st46" d="M12.94,111.01c0,0-0.16-1.95,0.1-2.52c0.26-0.57,1.3-2.99,1.3-2.99l-0.61-0.75
		c-0.67,1.18-2.07,1.27-2.23,7.47C11.5,112.21,12.78,111.92,12.94,111.01z"/>
	<path class="st33" d="M13.67,104.2l2.21,2.82l1.39-4.97l1.49-0.28c0,0-0.17,7.73-1.84,8.48c-1.55,0.7-4.72-3.99-4.72-3.99
		L13.67,104.2z"/>
	<path class="st43" d="M17.46,101.01L17.46,101.01c-0.16,0-0.28-0.13-0.28-0.28v-1.69c0-0.16,0.13-0.28,0.28-0.28l0,0
		c0.16,0,0.28,0.13,0.28,0.28v1.69C17.75,100.88,17.62,101.01,17.46,101.01z"/>
	<path class="st39" d="M3.31,113.03l-0.19-0.1c-0.34-0.18-0.77-0.04-0.95,0.3l-0.36,0.7c-0.18,0.34-0.04,0.77,0.3,0.95l0.19,0.1
		c0.34,0.18,0.77,0.04,0.95-0.3l0.36-0.7C3.79,113.64,3.66,113.21,3.31,113.03z"/>
	<g>
		<polygon class="st96" points="66.94,51.55 69.11,50.57 81.57,63.71 78.9,64.89 		"/>
		<path class="st9" d="M70.46,59.73l7.68,3.9c3.02,1.54,6.05-0.98,5.45-4.53l-0.06-0.35c-0.28-1.65-1.31-3.1-2.72-3.82l-8.42-4.28
			c-2.92-1.49-5.86,0.95-5.28,4.39v0C67.47,57.07,68.74,58.85,70.46,59.73z"/>
		<path class="st9" d="M81.68,62.15l-0.6,5.49c-0.05,0.46-0.6,0.62-0.92,0.28l-4.27-4.67L81.68,62.15z"/>
		<path class="st86" d="M68.32,60.69L76,64.6c3.02,1.54,6.05-0.98,5.45-4.53l-0.06-0.35c-0.28-1.65-1.31-3.1-2.72-3.82l-8.42-4.28
			c-2.92-1.49-5.86,0.95-5.28,4.39l0,0C65.33,58.03,66.6,59.82,68.32,60.69z"/>
		<path class="st97" d="M68.32,60.69L76,64.6c3.02,1.54,6.05-0.98,5.45-4.53l-0.06-0.35c-0.28-1.65-1.31-3.1-2.72-3.82l-8.42-4.28
			c-2.92-1.49-5.86,0.95-5.28,4.39l0,0C65.33,58.03,66.6,59.82,68.32,60.69z"/>
		
			<ellipse transform="matrix(0.8876 -0.4606 0.4606 0.8876 -18.9254 42.1806)" class="st9" cx="76.97" cy="59.87" rx="1.01" ry="1.75"/>
		
			<ellipse transform="matrix(0.8876 -0.4606 0.4606 0.8876 -18.5117 40.1612)" class="st9" cx="73.04" cy="58.01" rx="1.01" ry="1.75"/>
		
			<ellipse transform="matrix(0.8876 -0.4606 0.4606 0.8876 -18.1479 38.3395)" class="st9" cx="69.49" cy="56.36" rx="1.01" ry="1.75"/>
	</g>
	<line class="st92" x1="106.71" y1="88.34" x2="115.12" y2="83.55"/>
	<line class="st91" x1="39.1" y1="100.61" x2="44.65" y2="97.76"/>
</g>
</svg>
